{
	"asset":{
		"generator":"Khronos glTF Blender I/O v5.1.20",
		"version":"2.0"
	},
	"extensionsUsed":[
		"KHR_materials_specular"
	],
	"scene":0,
	"scenes":[
		{
			"name":"Scene",
			"nodes":[
				0,
				1,
				2,
				3,
				4,
				5,
				6,
				7,
				8,
				9,
				10,
				11
			]
		}
	],
	"nodes":[
		{
			"mesh":0,
			"name":"barra-col"
		},
		{
			"mesh":1,
			"name":"barra_middle-col"
		},
		{
			"mesh":2,
			"name":"barra_corner-col"
		},
		{
			"mesh":3,
			"name":"seat-col"
		},
		{
			"mesh":4,
			"name":"seat-col.001",
			"translation":[
				0,
				-0.09932028502225876,
				0
			]
		},
		{
			"mesh":5,
			"name":"pot-col"
		},
		{
			"mesh":6,
			"name":"F0",
			"translation":[
				0,
				0.6203698515892029,
				0
			]
		},
		{
			"mesh":7,
			"name":"F0.001",
			"translation":[
				0,
				0.6203698515892029,
				0
			]
		},
		{
			"mesh":8,
			"name":"F1"
		},
		{
			"mesh":9,
			"name":"F1.001"
		},
		{
			"mesh":10,
			"name":"F2"
		},
		{
			"mesh":11,
			"name":"F2.001"
		}
	],
	"materials":[
		{
			"doubleSided":true,
			"extensions":{
				"KHR_materials_specular":{
					"specularFactor":0
				}
			},
			"name":"mobles",
			"pbrMetallicRoughness":{
				"baseColorTexture":{
					"index":0
				},
				"metallicFactor":0
			}
		},
		{
			"doubleSided":true,
			"extensions":{
				"KHR_materials_specular":{
					"specularFactor":0
				}
			},
			"name":"Material",
			"pbrMetallicRoughness":{
				"baseColorTexture":{
					"index":1
				},
				"metallicFactor":0
			}
		},
		{
			"doubleSided":true,
			"extensions":{
				"KHR_materials_specular":{
					"specularFactor":0
				}
			},
			"name":"Material.001",
			"pbrMetallicRoughness":{
				"baseColorTexture":{
					"index":2
				},
				"metallicFactor":0
			}
		},
		{
			"alphaMode":"BLEND",
			"doubleSided":true,
			"extensions":{
				"KHR_materials_specular":{
					"specularFactor":0
				}
			},
			"name":"F0",
			"pbrMetallicRoughness":{
				"baseColorTexture":{
					"index":3
				},
				"metallicFactor":0
			}
		},
		{
			"alphaMode":"BLEND",
			"doubleSided":true,
			"extensions":{
				"KHR_materials_specular":{
					"specularFactor":0
				}
			},
			"name":"F1",
			"pbrMetallicRoughness":{
				"baseColorTexture":{
					"index":4
				},
				"metallicFactor":0
			}
		},
		{
			"alphaMode":"BLEND",
			"doubleSided":true,
			"extensions":{
				"KHR_materials_specular":{
					"specularFactor":0
				}
			},
			"name":"F2",
			"pbrMetallicRoughness":{
				"baseColorTexture":{
					"index":5
				},
				"metallicFactor":0
			}
		}
	],
	"meshes":[
		{
			"name":"Cube.001",
			"primitives":[
				{
					"attributes":{
						"POSITION":0,
						"NORMAL":1,
						"TEXCOORD_0":2,
						"TANGENT":3
					},
					"indices":4,
					"material":0
				}
			]
		},
		{
			"name":"Cube.002",
			"primitives":[
				{
					"attributes":{
						"POSITION":5,
						"NORMAL":6,
						"TEXCOORD_0":7,
						"TANGENT":8
					},
					"indices":9,
					"material":0
				}
			]
		},
		{
			"name":"Cube.004",
			"primitives":[
				{
					"attributes":{
						"POSITION":10,
						"NORMAL":11,
						"TEXCOORD_0":12,
						"TANGENT":13
					},
					"indices":14,
					"material":0
				}
			]
		},
		{
			"name":"Cube",
			"primitives":[
				{
					"attributes":{
						"POSITION":15,
						"NORMAL":16,
						"TEXCOORD_0":17,
						"TANGENT":18
					},
					"indices":19
				}
			]
		},
		{
			"name":"Cube.003",
			"primitives":[
				{
					"attributes":{
						"POSITION":20,
						"NORMAL":21,
						"TEXCOORD_0":22
					},
					"indices":23,
					"material":1
				}
			]
		},
		{
			"name":"Cube.005",
			"primitives":[
				{
					"attributes":{
						"POSITION":24,
						"NORMAL":25,
						"TEXCOORD_0":26,
						"TANGENT":27
					},
					"indices":28,
					"material":2
				}
			]
		},
		{
			"name":"F0",
			"primitives":[
				{
					"attributes":{
						"POSITION":29,
						"NORMAL":30,
						"TEXCOORD_0":31,
						"TANGENT":32
					},
					"indices":33,
					"material":3
				}
			]
		},
		{
			"name":"F0.001",
			"primitives":[
				{
					"attributes":{
						"POSITION":34,
						"NORMAL":35,
						"TEXCOORD_0":36,
						"TANGENT":37
					},
					"indices":33,
					"material":3
				}
			]
		},
		{
			"name":"F1",
			"primitives":[
				{
					"attributes":{
						"POSITION":38,
						"NORMAL":39,
						"TEXCOORD_0":40,
						"TANGENT":41
					},
					"indices":33,
					"material":4
				}
			]
		},
		{
			"name":"F1.001",
			"primitives":[
				{
					"attributes":{
						"POSITION":42,
						"NORMAL":43,
						"TEXCOORD_0":44,
						"TANGENT":45
					},
					"indices":33,
					"material":4
				}
			]
		},
		{
			"name":"F2",
			"primitives":[
				{
					"attributes":{
						"POSITION":46,
						"NORMAL":47,
						"TEXCOORD_0":48,
						"TANGENT":49
					},
					"indices":33,
					"material":5
				}
			]
		},
		{
			"name":"F2.001",
			"primitives":[
				{
					"attributes":{
						"POSITION":50,
						"NORMAL":51,
						"TEXCOORD_0":52,
						"TANGENT":53
					},
					"indices":33,
					"material":5
				}
			]
		}
	],
	"textures":[
		{
			"sampler":0,
			"source":0
		},
		{
			"sampler":0,
			"source":0
		},
		{
			"sampler":0,
			"source":1
		},
		{
			"sampler":1,
			"source":2
		},
		{
			"sampler":1,
			"source":3
		},
		{
			"sampler":1,
			"source":4
		}
	],
	"images":[
		{
			"mimeType":"image/png",
			"name":"mobles_sprite_color_64.png",
			"uri":"../../sprites/mobles_sprite_color_64.png"
		},
		{
			"mimeType":"image/png",
			"name":"tiesto_32.png",
			"uri":"../../sprites/tiesto_32.png"
		},
		{
			"mimeType":"image/png",
			"name":"F0.png",
			"uri":"../../../../Downloads/F0.png"
		},
		{
			"mimeType":"image/png",
			"name":"F1.png",
			"uri":"../../../../Downloads/F1.png"
		},
		{
			"mimeType":"image/png",
			"name":"F2.png",
			"uri":"../../../../Downloads/F2.png"
		}
	],
	"accessors":[
		{
			"bufferView":0,
			"componentType":5126,
			"count":48,
			"max":[
				0.5,
				0.5,
				0.5
			],
			"min":[
				-0.5,
				-0.5,
				-0.5
			],
			"type":"VEC3"
		},
		{
			"bufferView":1,
			"componentType":5126,
			"count":48,
			"type":"VEC3"
		},
		{
			"bufferView":2,
			"componentType":5126,
			"count":48,
			"type":"VEC2"
		},
		{
			"bufferView":3,
			"componentType":5126,
			"count":48,
			"type":"VEC4"
		},
		{
			"bufferView":4,
			"componentType":5123,
			"count":84,
			"type":"SCALAR"
		},
		{
			"bufferView":5,
			"componentType":5126,
			"count":48,
			"max":[
				0.5,
				0.5,
				0.4999999403953552
			],
			"min":[
				-0.5,
				-0.5,
				-0.5000000596046448
			],
			"type":"VEC3"
		},
		{
			"bufferView":6,
			"componentType":5126,
			"count":48,
			"type":"VEC3"
		},
		{
			"bufferView":7,
			"componentType":5126,
			"count":48,
			"type":"VEC2"
		},
		{
			"bufferView":8,
			"componentType":5126,
			"count":48,
			"type":"VEC4"
		},
		{
			"bufferView":9,
			"componentType":5123,
			"count":84,
			"type":"SCALAR"
		},
		{
			"bufferView":10,
			"componentType":5126,
			"count":42,
			"max":[
				0.5,
				0.5,
				0.5
			],
			"min":[
				-0.5,
				-0.5,
				-0.5
			],
			"type":"VEC3"
		},
		{
			"bufferView":11,
			"componentType":5126,
			"count":42,
			"type":"VEC3"
		},
		{
			"bufferView":12,
			"componentType":5126,
			"count":42,
			"type":"VEC2"
		},
		{
			"bufferView":13,
			"componentType":5126,
			"count":42,
			"type":"VEC4"
		},
		{
			"bufferView":14,
			"componentType":5123,
			"count":72,
			"type":"SCALAR"
		},
		{
			"bufferView":15,
			"componentType":5126,
			"count":256,
			"max":[
				0.6499999165534973,
				0.050000011920928955,
				0.6331304907798767
			],
			"min":[
				-0.6499999165534973,
				-0.8500000238418579,
				-0.6331304907798767
			],
			"type":"VEC3"
		},
		{
			"bufferView":16,
			"componentType":5126,
			"count":256,
			"type":"VEC3"
		},
		{
			"bufferView":17,
			"componentType":5126,
			"count":256,
			"type":"VEC2"
		},
		{
			"bufferView":18,
			"componentType":5126,
			"count":256,
			"type":"VEC4"
		},
		{
			"bufferView":19,
			"componentType":5123,
			"count":384,
			"type":"SCALAR"
		},
		{
			"bufferView":20,
			"componentType":5126,
			"count":1109,
			"max":[
				0.25,
				0.01340627670288086,
				0.25
			],
			"min":[
				-0.25,
				-0.3997451364994049,
				-0.25
			],
			"type":"VEC3"
		},
		{
			"bufferView":21,
			"componentType":5126,
			"count":1109,
			"type":"VEC3"
		},
		{
			"bufferView":22,
			"componentType":5126,
			"count":1109,
			"type":"VEC2"
		},
		{
			"bufferView":23,
			"componentType":5123,
			"count":2130,
			"type":"SCALAR"
		},
		{
			"bufferView":24,
			"componentType":5126,
			"count":534,
			"max":[
				0.125,
				0.7453698515892029,
				0.125
			],
			"min":[
				-0.125,
				0.4953698515892029,
				-0.125
			],
			"type":"VEC3"
		},
		{
			"bufferView":25,
			"componentType":5126,
			"count":534,
			"type":"VEC3"
		},
		{
			"bufferView":26,
			"componentType":5126,
			"count":534,
			"type":"VEC2"
		},
		{
			"bufferView":27,
			"componentType":5126,
			"count":534,
			"type":"VEC4"
		},
		{
			"bufferView":28,
			"componentType":5123,
			"count":804,
			"type":"SCALAR"
		},
		{
			"bufferView":29,
			"componentType":5126,
			"count":4,
			"max":[
				0.18365025520324707,
				0.44437962770462036,
				8.027607911742507e-09
			],
			"min":[
				-0.18365025520324707,
				0.07707911729812622,
				-8.027607911742507e-09
			],
			"type":"VEC3"
		},
		{
			"bufferView":30,
			"componentType":5126,
			"count":4,
			"type":"VEC3"
		},
		{
			"bufferView":31,
			"componentType":5126,
			"count":4,
			"type":"VEC2"
		},
		{
			"bufferView":32,
			"componentType":5126,
			"count":4,
			"type":"VEC4"
		},
		{
			"bufferView":33,
			"componentType":5123,
			"count":6,
			"type":"SCALAR"
		},
		{
			"bufferView":34,
			"componentType":5126,
			"count":4,
			"max":[
				1.6055215823485014e-08,
				0.44437962770462036,
				0.18365025520324707
			],
			"min":[
				-1.6055215823485014e-08,
				0.07707911729812622,
				-0.18365025520324707
			],
			"type":"VEC3"
		},
		{
			"bufferView":35,
			"componentType":5126,
			"count":4,
			"type":"VEC3"
		},
		{
			"bufferView":36,
			"componentType":5126,
			"count":4,
			"type":"VEC2"
		},
		{
			"bufferView":37,
			"componentType":5126,
			"count":4,
			"type":"VEC4"
		},
		{
			"bufferView":38,
			"componentType":5126,
			"count":4,
			"max":[
				0.13685297966003418,
				0.9684087634086609,
				5.982033535190112e-09
			],
			"min":[
				-0.13685297966003418,
				0.6947028040885925,
				-5.982033535190112e-09
			],
			"type":"VEC3"
		},
		{
			"bufferView":39,
			"componentType":5126,
			"count":4,
			"type":"VEC3"
		},
		{
			"bufferView":40,
			"componentType":5126,
			"count":4,
			"type":"VEC2"
		},
		{
			"bufferView":41,
			"componentType":5126,
			"count":4,
			"type":"VEC4"
		},
		{
			"bufferView":42,
			"componentType":5126,
			"count":4,
			"max":[
				1.1964067070380224e-08,
				0.9684087634086609,
				0.13685297966003418
			],
			"min":[
				-1.1964067070380224e-08,
				0.6947028040885925,
				-0.13685297966003418
			],
			"type":"VEC3"
		},
		{
			"bufferView":43,
			"componentType":5126,
			"count":4,
			"type":"VEC3"
		},
		{
			"bufferView":44,
			"componentType":5126,
			"count":4,
			"type":"VEC2"
		},
		{
			"bufferView":45,
			"componentType":5126,
			"count":4,
			"type":"VEC4"
		},
		{
			"bufferView":46,
			"componentType":5126,
			"count":4,
			"max":[
				0.20987971127033234,
				1.1173409223556519,
				9.174133452916067e-09
			],
			"min":[
				-0.20987971127033234,
				0.6975815296173096,
				-9.174133452916067e-09
			],
			"type":"VEC3"
		},
		{
			"bufferView":47,
			"componentType":5126,
			"count":4,
			"type":"VEC3"
		},
		{
			"bufferView":48,
			"componentType":5126,
			"count":4,
			"type":"VEC2"
		},
		{
			"bufferView":49,
			"componentType":5126,
			"count":4,
			"type":"VEC4"
		},
		{
			"bufferView":50,
			"componentType":5126,
			"count":4,
			"max":[
				1.8348266905832133e-08,
				1.1173409223556519,
				0.20987971127033234
			],
			"min":[
				-1.8348266905832133e-08,
				0.6975815296173096,
				-0.20987971127033234
			],
			"type":"VEC3"
		},
		{
			"bufferView":51,
			"componentType":5126,
			"count":4,
			"type":"VEC3"
		},
		{
			"bufferView":52,
			"componentType":5126,
			"count":4,
			"type":"VEC2"
		},
		{
			"bufferView":53,
			"componentType":5126,
			"count":4,
			"type":"VEC4"
		}
	],
	"bufferViews":[
		{
			"buffer":0,
			"byteLength":576,
			"byteOffset":0,
			"target":34962
		},
		{
			"buffer":0,
			"byteLength":576,
			"byteOffset":576,
			"target":34962
		},
		{
			"buffer":0,
			"byteLength":384,
			"byteOffset":1152,
			"target":34962
		},
		{
			"buffer":0,
			"byteLength":768,
			"byteOffset":1536,
			"target":34962
		},
		{
			"buffer":0,
			"byteLength":168,
			"byteOffset":2304,
			"target":34963
		},
		{
			"buffer":0,
			"byteLength":576,
			"byteOffset":2472,
			"target":34962
		},
		{
			"buffer":0,
			"byteLength":576,
			"byteOffset":3048,
			"target":34962
		},
		{
			"buffer":0,
			"byteLength":384,
			"byteOffset":3624,
			"target":34962
		},
		{
			"buffer":0,
			"byteLength":768,
			"byteOffset":4008,
			"target":34962
		},
		{
			"buffer":0,
			"byteLength":168,
			"byteOffset":4776,
			"target":34963
		},
		{
			"buffer":0,
			"byteLength":504,
			"byteOffset":4944,
			"target":34962
		},
		{
			"buffer":0,
			"byteLength":504,
			"byteOffset":5448,
			"target":34962
		},
		{
			"buffer":0,
			"byteLength":336,
			"byteOffset":5952,
			"target":34962
		},
		{
			"buffer":0,
			"byteLength":672,
			"byteOffset":6288,
			"target":34962
		},
		{
			"buffer":0,
			"byteLength":144,
			"byteOffset":6960,
			"target":34963
		},
		{
			"buffer":0,
			"byteLength":3072,
			"byteOffset":7104,
			"target":34962
		},
		{
			"buffer":0,
			"byteLength":3072,
			"byteOffset":10176,
			"target":34962
		},
		{
			"buffer":0,
			"byteLength":2048,
			"byteOffset":13248,
			"target":34962
		},
		{
			"buffer":0,
			"byteLength":4096,
			"byteOffset":15296,
			"target":34962
		},
		{
			"buffer":0,
			"byteLength":768,
			"byteOffset":19392,
			"target":34963
		},
		{
			"buffer":0,
			"byteLength":13308,
			"byteOffset":20160,
			"target":34962
		},
		{
			"buffer":0,
			"byteLength":13308,
			"byteOffset":33468,
			"target":34962
		},
		{
			"buffer":0,
			"byteLength":8872,
			"byteOffset":46776,
			"target":34962
		},
		{
			"buffer":0,
			"byteLength":4260,
			"byteOffset":55648,
			"target":34963
		},
		{
			"buffer":0,
			"byteLength":6408,
			"byteOffset":59908,
			"target":34962
		},
		{
			"buffer":0,
			"byteLength":6408,
			"byteOffset":66316,
			"target":34962
		},
		{
			"buffer":0,
			"byteLength":4272,
			"byteOffset":72724,
			"target":34962
		},
		{
			"buffer":0,
			"byteLength":8544,
			"byteOffset":76996,
			"target":34962
		},
		{
			"buffer":0,
			"byteLength":1608,
			"byteOffset":85540,
			"target":34963
		},
		{
			"buffer":0,
			"byteLength":48,
			"byteOffset":87148,
			"target":34962
		},
		{
			"buffer":0,
			"byteLength":48,
			"byteOffset":87196,
			"target":34962
		},
		{
			"buffer":0,
			"byteLength":32,
			"byteOffset":87244,
			"target":34962
		},
		{
			"buffer":0,
			"byteLength":64,
			"byteOffset":87276,
			"target":34962
		},
		{
			"buffer":0,
			"byteLength":12,
			"byteOffset":87340,
			"target":34963
		},
		{
			"buffer":0,
			"byteLength":48,
			"byteOffset":87352,
			"target":34962
		},
		{
			"buffer":0,
			"byteLength":48,
			"byteOffset":87400,
			"target":34962
		},
		{
			"buffer":0,
			"byteLength":32,
			"byteOffset":87448,
			"target":34962
		},
		{
			"buffer":0,
			"byteLength":64,
			"byteOffset":87480,
			"target":34962
		},
		{
			"buffer":0,
			"byteLength":48,
			"byteOffset":87544,
			"target":34962
		},
		{
			"buffer":0,
			"byteLength":48,
			"byteOffset":87592,
			"target":34962
		},
		{
			"buffer":0,
			"byteLength":32,
			"byteOffset":87640,
			"target":34962
		},
		{
			"buffer":0,
			"byteLength":64,
			"byteOffset":87672,
			"target":34962
		},
		{
			"buffer":0,
			"byteLength":48,
			"byteOffset":87736,
			"target":34962
		},
		{
			"buffer":0,
			"byteLength":48,
			"byteOffset":87784,
			"target":34962
		},
		{
			"buffer":0,
			"byteLength":32,
			"byteOffset":87832,
			"target":34962
		},
		{
			"buffer":0,
			"byteLength":64,
			"byteOffset":87864,
			"target":34962
		},
		{
			"buffer":0,
			"byteLength":48,
			"byteOffset":87928,
			"target":34962
		},
		{
			"buffer":0,
			"byteLength":48,
			"byteOffset":87976,
			"target":34962
		},
		{
			"buffer":0,
			"byteLength":32,
			"byteOffset":88024,
			"target":34962
		},
		{
			"buffer":0,
			"byteLength":64,
			"byteOffset":88056,
			"target":34962
		},
		{
			"buffer":0,
			"byteLength":48,
			"byteOffset":88120,
			"target":34962
		},
		{
			"buffer":0,
			"byteLength":48,
			"byteOffset":88168,
			"target":34962
		},
		{
			"buffer":0,
			"byteLength":32,
			"byteOffset":88216,
			"target":34962
		},
		{
			"buffer":0,
			"byteLength":64,
			"byteOffset":88248,
			"target":34962
		}
	],
	"samplers":[
		{
			"magFilter":9728,
			"minFilter":9984
		},
		{
			"magFilter":9728,
			"minFilter":9984,
			"wrapS":33071,
			"wrapT":33071
		}
	],
	"buffers":[
		{
			"byteLength":88312,
			"uri":"Bars-4d99364ec945eb8413eed863cc2a6797.bin"
		}
	]
}
