{
	"asset":{
		"generator":"Khronos glTF Blender I/O v5.1.20",
		"version":"2.0"
	},
	"extensionsUsed":[
		"KHR_materials_specular"
	],
	"scene":0,
	"scenes":[
		{
			"name":"Scene",
			"nodes":[
				0,
				1,
				2,
				3,
				5,
				6,
				7,
				8
			]
		}
	],
	"nodes":[
		{
			"mesh":0,
			"name":"fachada-col",
			"rotation":[
				0.5,
				0.5,
				-0.5,
				0.5
			],
			"scale":[
				1.2799999713897705,
				1.2799999713897705,
				1.2799999713897705
			]
		},
		{
			"mesh":1,
			"name":"parets-col",
			"rotation":[
				0.5,
				0.5,
				-0.5,
				0.5
			],
			"scale":[
				1.2799999713897705,
				1.2799999713897705,
				1.2799999713897705
			]
		},
		{
			"mesh":2,
			"name":"teulada-col",
			"rotation":[
				0.5,
				0.5,
				-0.5,
				0.5
			],
			"scale":[
				1.2799999713897705,
				1.2799999713897705,
				1.2799999713897705
			]
		},
		{
			"mesh":3,
			"name":"finestra.003-col",
			"rotation":[
				0.5,
				-0.5,
				0.5,
				0.5
			],
			"scale":[
				1.2799999713897705,
				1.2799999713897705,
				1.2799999713897705
			],
			"translation":[
				-0.0020982325077056885,
				-0.3700000047683716,
				-0.20606064796447754
			]
		},
		{
			"mesh":4,
			"name":"sombres finestra",
			"translation":[
				0,
				-0.006476759910583496,
				0
			]
		},
		{
			"children":[
				4
			],
			"mesh":5,
			"name":"finestra.001-col",
			"rotation":[
				0.5,
				0.5,
				-0.5,
				0.5
			],
			"scale":[
				1.2799999713897705,
				1.2799999713897705,
				1.2799999713897705
			],
			"translation":[
				0.7087127566337585,
				0,
				0
			]
		},
		{
			"mesh":6,
			"name":"finestra.004-col",
			"rotation":[
				0,
				-0.7071068286895752,
				0.7071068286895752,
				3.090862321641907e-08
			],
			"scale":[
				1.2799999713897705,
				1.2799999713897705,
				1.2799999713897705
			],
			"translation":[
				0.5047495365142822,
				-0.3731573820114136,
				-0.40873128175735474
			]
		},
		{
			"mesh":7,
			"name":"finestra.005-col",
			"rotation":[
				0,
				-0.7071068286895752,
				0.7071068286895752,
				3.090862321641907e-08
			],
			"scale":[
				1.2799999713897705,
				1.2799999713897705,
				1.2799999713897705
			],
			"translation":[
				0.21217432618141174,
				-0.3731573820114136,
				-0.40873128175735474
			]
		},
		{
			"mesh":8,
			"name":"finestra.001-col.001",
			"rotation":[
				0.5,
				0.5,
				-0.5,
				0.5
			],
			"scale":[
				1.2799999713897705,
				1.2799999713897705,
				1.2799999713897705
			],
			"translation":[
				-0.0006457865238189697,
				0,
				0.049855343997478485
			]
		}
	],
	"materials":[
		{
			"alphaMode":"BLEND",
			"doubleSided":true,
			"extensions":{
				"KHR_materials_specular":{
					"specularFactor":0
				}
			},
			"name":"casa_sola_128",
			"pbrMetallicRoughness":{
				"baseColorTexture":{
					"index":0
				},
				"metallicFactor":0,
				"roughnessFactor":0
			}
		},
		{
			"doubleSided":true,
			"extensions":{
				"KHR_materials_specular":{
					"specularFactor":0
				}
			},
			"name":"Material.002",
			"pbrMetallicRoughness":{
				"baseColorTexture":{
					"index":1
				},
				"metallicFactor":0,
				"roughnessFactor":0
			}
		},
		{
			"doubleSided":true,
			"extensions":{
				"KHR_materials_specular":{
					"specularFactor":0
				}
			},
			"name":"Material.003",
			"pbrMetallicRoughness":{
				"baseColorTexture":{
					"index":2
				},
				"metallicFactor":0,
				"roughnessFactor":0
			}
		}
	],
	"meshes":[
		{
			"name":"casa_sola_128.001",
			"primitives":[
				{
					"attributes":{
						"POSITION":0,
						"NORMAL":1,
						"TEXCOORD_0":2,
						"TANGENT":3
					},
					"indices":4,
					"material":0
				}
			]
		},
		{
			"name":"casa_sola_128.003",
			"primitives":[
				{
					"attributes":{
						"POSITION":5,
						"NORMAL":6,
						"TEXCOORD_0":7,
						"TANGENT":8
					},
					"indices":9,
					"material":0
				},
				{
					"attributes":{
						"POSITION":10,
						"NORMAL":11,
						"TEXCOORD_0":12,
						"TANGENT":13
					},
					"indices":14,
					"material":1
				}
			]
		},
		{
			"name":"casa_sola_128.004",
			"primitives":[
				{
					"attributes":{
						"POSITION":15,
						"NORMAL":16,
						"TEXCOORD_0":17,
						"TANGENT":18
					},
					"indices":19,
					"material":2
				}
			]
		},
		{
			"name":"casa_sola_128.009",
			"primitives":[
				{
					"attributes":{
						"POSITION":20,
						"NORMAL":21,
						"TEXCOORD_0":22,
						"TANGENT":23
					},
					"indices":24,
					"material":0
				}
			]
		},
		{
			"name":"casa_sola_128.006",
			"primitives":[
				{
					"attributes":{
						"POSITION":25,
						"NORMAL":26,
						"TEXCOORD_0":27,
						"TANGENT":28
					},
					"indices":29,
					"material":0
				}
			]
		},
		{
			"name":"casa_sola_128.007",
			"primitives":[
				{
					"attributes":{
						"POSITION":30,
						"NORMAL":31,
						"TEXCOORD_0":32,
						"TANGENT":33
					},
					"indices":34,
					"material":0
				}
			]
		},
		{
			"name":"casa_sola_128.010",
			"primitives":[
				{
					"attributes":{
						"POSITION":35,
						"NORMAL":36,
						"TEXCOORD_0":37,
						"TANGENT":38
					},
					"indices":39,
					"material":0
				}
			]
		},
		{
			"name":"casa_sola_128.012",
			"primitives":[
				{
					"attributes":{
						"POSITION":40,
						"NORMAL":41,
						"TEXCOORD_0":42,
						"TANGENT":43
					},
					"indices":39,
					"material":0
				}
			]
		},
		{
			"name":"casa_sola_128.002",
			"primitives":[
				{
					"attributes":{
						"POSITION":44,
						"NORMAL":45,
						"TEXCOORD_0":46,
						"TANGENT":47
					},
					"indices":34,
					"material":0
				}
			]
		}
	],
	"textures":[
		{
			"sampler":0,
			"source":0
		},
		{
			"sampler":1,
			"source":1
		},
		{
			"sampler":1,
			"source":1
		}
	],
	"images":[
		{
			"mimeType":"image/png",
			"name":"casa_sola_128.png",
			"uri":"../../sprites/casa_sola_128.png"
		},
		{
			"mimeType":"image/png",
			"name":"casa_sprite.png",
			"uri":"../../sprites/casa_sprite.png"
		}
	],
	"accessors":[
		{
			"bufferView":0,
			"componentType":5126,
			"count":20949,
			"max":[
				0.359375,
				0.5625,
				0.5
			],
			"min":[
				-0.359375,
				-0.007812499068677425,
				-0.296875
			],
			"type":"VEC3"
		},
		{
			"bufferView":1,
			"componentType":5126,
			"count":20949,
			"type":"VEC3"
		},
		{
			"bufferView":2,
			"componentType":5126,
			"count":20949,
			"type":"VEC2"
		},
		{
			"bufferView":3,
			"componentType":5126,
			"count":20949,
			"type":"VEC4"
		},
		{
			"bufferView":4,
			"componentType":5123,
			"count":91908,
			"type":"SCALAR"
		},
		{
			"bufferView":5,
			"componentType":5126,
			"count":456,
			"max":[
				0.3125,
				0.546875,
				0.5
			],
			"min":[
				-0.3125,
				0,
				0.078125
			],
			"type":"VEC3"
		},
		{
			"bufferView":6,
			"componentType":5126,
			"count":456,
			"type":"VEC3"
		},
		{
			"bufferView":7,
			"componentType":5126,
			"count":456,
			"type":"VEC2"
		},
		{
			"bufferView":8,
			"componentType":5126,
			"count":456,
			"type":"VEC4"
		},
		{
			"bufferView":9,
			"componentType":5123,
			"count":1344,
			"type":"SCALAR"
		},
		{
			"bufferView":10,
			"componentType":5126,
			"count":2020,
			"max":[
				0.3203125,
				0.546875,
				0.5
			],
			"min":[
				-0.3203125,
				0,
				0.078125
			],
			"type":"VEC3"
		},
		{
			"bufferView":11,
			"componentType":5126,
			"count":2020,
			"type":"VEC3"
		},
		{
			"bufferView":12,
			"componentType":5126,
			"count":2020,
			"type":"VEC2"
		},
		{
			"bufferView":13,
			"componentType":5126,
			"count":2020,
			"type":"VEC4"
		},
		{
			"bufferView":14,
			"componentType":5123,
			"count":5892,
			"type":"SCALAR"
		},
		{
			"bufferView":15,
			"componentType":5126,
			"count":786,
			"max":[
				0.359375,
				0.546875,
				0.0859375
			],
			"min":[
				-0.359375,
				0,
				-0.296875
			],
			"type":"VEC3"
		},
		{
			"bufferView":16,
			"componentType":5126,
			"count":786,
			"type":"VEC3"
		},
		{
			"bufferView":17,
			"componentType":5126,
			"count":786,
			"type":"VEC2"
		},
		{
			"bufferView":18,
			"componentType":5126,
			"count":786,
			"type":"VEC4"
		},
		{
			"bufferView":19,
			"componentType":5123,
			"count":1212,
			"type":"SCALAR"
		},
		{
			"bufferView":20,
			"componentType":5126,
			"count":884,
			"max":[
				0.08984375,
				0.003714139573276043,
				0.0703125
			],
			"min":[
				-0.08984375,
				-0.004098360426723957,
				-0.0703125
			],
			"type":"VEC3"
		},
		{
			"bufferView":21,
			"componentType":5126,
			"count":884,
			"type":"VEC3"
		},
		{
			"bufferView":22,
			"componentType":5126,
			"count":884,
			"type":"VEC2"
		},
		{
			"bufferView":23,
			"componentType":5126,
			"count":884,
			"type":"VEC4"
		},
		{
			"bufferView":24,
			"componentType":5123,
			"count":3408,
			"type":"SCALAR"
		},
		{
			"bufferView":25,
			"componentType":5126,
			"count":68,
			"max":[
				-0.0234375,
				0,
				0.3671875
			],
			"min":[
				-0.1953125,
				0,
				0.21875
			],
			"type":"VEC3"
		},
		{
			"bufferView":26,
			"componentType":5126,
			"count":68,
			"type":"VEC3"
		},
		{
			"bufferView":27,
			"componentType":5126,
			"count":68,
			"type":"VEC2"
		},
		{
			"bufferView":28,
			"componentType":5126,
			"count":68,
			"type":"VEC4"
		},
		{
			"bufferView":29,
			"componentType":5123,
			"count":174,
			"type":"SCALAR"
		},
		{
			"bufferView":30,
			"componentType":5126,
			"count":1776,
			"max":[
				-0.03125,
				0.0078125,
				0.359375
			],
			"min":[
				-0.2109375,
				-0.0078125,
				0.21875
			],
			"type":"VEC3"
		},
		{
			"bufferView":31,
			"componentType":5126,
			"count":1776,
			"type":"VEC3"
		},
		{
			"bufferView":32,
			"componentType":5126,
			"count":1776,
			"type":"VEC2"
		},
		{
			"bufferView":33,
			"componentType":5126,
			"count":1776,
			"type":"VEC4"
		},
		{
			"bufferView":34,
			"componentType":5123,
			"count":6816,
			"type":"SCALAR"
		},
		{
			"bufferView":35,
			"componentType":5126,
			"count":1768,
			"max":[
				0.08984377980232239,
				0.003714139573276043,
				0.0703125
			],
			"min":[
				-0.08984375,
				-0.6423566937446594,
				-0.0703125
			],
			"type":"VEC3"
		},
		{
			"bufferView":36,
			"componentType":5126,
			"count":1768,
			"type":"VEC3"
		},
		{
			"bufferView":37,
			"componentType":5126,
			"count":1768,
			"type":"VEC2"
		},
		{
			"bufferView":38,
			"componentType":5126,
			"count":1768,
			"type":"VEC4"
		},
		{
			"bufferView":39,
			"componentType":5123,
			"count":6816,
			"type":"SCALAR"
		},
		{
			"bufferView":40,
			"componentType":5126,
			"count":1768,
			"max":[
				0.08984377980232239,
				0.003714139573276043,
				0.0703125
			],
			"min":[
				-0.08984375,
				-0.6423567533493042,
				-0.0703125
			],
			"type":"VEC3"
		},
		{
			"bufferView":41,
			"componentType":5126,
			"count":1768,
			"type":"VEC3"
		},
		{
			"bufferView":42,
			"componentType":5126,
			"count":1768,
			"type":"VEC2"
		},
		{
			"bufferView":43,
			"componentType":5126,
			"count":1768,
			"type":"VEC4"
		},
		{
			"bufferView":44,
			"componentType":5126,
			"count":1776,
			"max":[
				-0.03125,
				0.0078125,
				0.359375
			],
			"min":[
				-0.2109375,
				-0.0078125,
				0.21875
			],
			"type":"VEC3"
		},
		{
			"bufferView":45,
			"componentType":5126,
			"count":1776,
			"type":"VEC3"
		},
		{
			"bufferView":46,
			"componentType":5126,
			"count":1776,
			"type":"VEC2"
		},
		{
			"bufferView":47,
			"componentType":5126,
			"count":1776,
			"type":"VEC4"
		}
	],
	"bufferViews":[
		{
			"buffer":0,
			"byteLength":251388,
			"byteOffset":0,
			"target":34962
		},
		{
			"buffer":0,
			"byteLength":251388,
			"byteOffset":251388,
			"target":34962
		},
		{
			"buffer":0,
			"byteLength":167592,
			"byteOffset":502776,
			"target":34962
		},
		{
			"buffer":0,
			"byteLength":335184,
			"byteOffset":670368,
			"target":34962
		},
		{
			"buffer":0,
			"byteLength":183816,
			"byteOffset":1005552,
			"target":34963
		},
		{
			"buffer":0,
			"byteLength":5472,
			"byteOffset":1189368,
			"target":34962
		},
		{
			"buffer":0,
			"byteLength":5472,
			"byteOffset":1194840,
			"target":34962
		},
		{
			"buffer":0,
			"byteLength":3648,
			"byteOffset":1200312,
			"target":34962
		},
		{
			"buffer":0,
			"byteLength":7296,
			"byteOffset":1203960,
			"target":34962
		},
		{
			"buffer":0,
			"byteLength":2688,
			"byteOffset":1211256,
			"target":34963
		},
		{
			"buffer":0,
			"byteLength":24240,
			"byteOffset":1213944,
			"target":34962
		},
		{
			"buffer":0,
			"byteLength":24240,
			"byteOffset":1238184,
			"target":34962
		},
		{
			"buffer":0,
			"byteLength":16160,
			"byteOffset":1262424,
			"target":34962
		},
		{
			"buffer":0,
			"byteLength":32320,
			"byteOffset":1278584,
			"target":34962
		},
		{
			"buffer":0,
			"byteLength":11784,
			"byteOffset":1310904,
			"target":34963
		},
		{
			"buffer":0,
			"byteLength":9432,
			"byteOffset":1322688,
			"target":34962
		},
		{
			"buffer":0,
			"byteLength":9432,
			"byteOffset":1332120,
			"target":34962
		},
		{
			"buffer":0,
			"byteLength":6288,
			"byteOffset":1341552,
			"target":34962
		},
		{
			"buffer":0,
			"byteLength":12576,
			"byteOffset":1347840,
			"target":34962
		},
		{
			"buffer":0,
			"byteLength":2424,
			"byteOffset":1360416,
			"target":34963
		},
		{
			"buffer":0,
			"byteLength":10608,
			"byteOffset":1362840,
			"target":34962
		},
		{
			"buffer":0,
			"byteLength":10608,
			"byteOffset":1373448,
			"target":34962
		},
		{
			"buffer":0,
			"byteLength":7072,
			"byteOffset":1384056,
			"target":34962
		},
		{
			"buffer":0,
			"byteLength":14144,
			"byteOffset":1391128,
			"target":34962
		},
		{
			"buffer":0,
			"byteLength":6816,
			"byteOffset":1405272,
			"target":34963
		},
		{
			"buffer":0,
			"byteLength":816,
			"byteOffset":1412088,
			"target":34962
		},
		{
			"buffer":0,
			"byteLength":816,
			"byteOffset":1412904,
			"target":34962
		},
		{
			"buffer":0,
			"byteLength":544,
			"byteOffset":1413720,
			"target":34962
		},
		{
			"buffer":0,
			"byteLength":1088,
			"byteOffset":1414264,
			"target":34962
		},
		{
			"buffer":0,
			"byteLength":348,
			"byteOffset":1415352,
			"target":34963
		},
		{
			"buffer":0,
			"byteLength":21312,
			"byteOffset":1415700,
			"target":34962
		},
		{
			"buffer":0,
			"byteLength":21312,
			"byteOffset":1437012,
			"target":34962
		},
		{
			"buffer":0,
			"byteLength":14208,
			"byteOffset":1458324,
			"target":34962
		},
		{
			"buffer":0,
			"byteLength":28416,
			"byteOffset":1472532,
			"target":34962
		},
		{
			"buffer":0,
			"byteLength":13632,
			"byteOffset":1500948,
			"target":34963
		},
		{
			"buffer":0,
			"byteLength":21216,
			"byteOffset":1514580,
			"target":34962
		},
		{
			"buffer":0,
			"byteLength":21216,
			"byteOffset":1535796,
			"target":34962
		},
		{
			"buffer":0,
			"byteLength":14144,
			"byteOffset":1557012,
			"target":34962
		},
		{
			"buffer":0,
			"byteLength":28288,
			"byteOffset":1571156,
			"target":34962
		},
		{
			"buffer":0,
			"byteLength":13632,
			"byteOffset":1599444,
			"target":34963
		},
		{
			"buffer":0,
			"byteLength":21216,
			"byteOffset":1613076,
			"target":34962
		},
		{
			"buffer":0,
			"byteLength":21216,
			"byteOffset":1634292,
			"target":34962
		},
		{
			"buffer":0,
			"byteLength":14144,
			"byteOffset":1655508,
			"target":34962
		},
		{
			"buffer":0,
			"byteLength":28288,
			"byteOffset":1669652,
			"target":34962
		},
		{
			"buffer":0,
			"byteLength":21312,
			"byteOffset":1697940,
			"target":34962
		},
		{
			"buffer":0,
			"byteLength":21312,
			"byteOffset":1719252,
			"target":34962
		},
		{
			"buffer":0,
			"byteLength":14208,
			"byteOffset":1740564,
			"target":34962
		},
		{
			"buffer":0,
			"byteLength":28416,
			"byteOffset":1754772,
			"target":34962
		}
	],
	"samplers":[
		{
			"magFilter":9728,
			"minFilter":9984,
			"wrapS":33071,
			"wrapT":33071
		},
		{
			"magFilter":9728,
			"minFilter":9984
		}
	],
	"buffers":[
		{
			"byteLength":1783188,
			"uri":"Buildings-fe5a46466a6fe98b9ab6438d5c133b6f.bin"
		}
	]
}
