{
	"asset":{
		"generator":"Khronos glTF Blender I/O v5.1.20",
		"version":"2.0"
	},
	"extensionsUsed":[
		"KHR_materials_specular"
	],
	"scene":0,
	"scenes":[
		{
			"name":"Scene",
			"nodes":[
				0,
				1,
				2,
				3,
				4,
				6,
				7,
				8
			]
		}
	],
	"nodes":[
		{
			"mesh":0,
			"name":"fachada"
		},
		{
			"mesh":1,
			"name":"parets"
		},
		{
			"mesh":2,
			"name":"teulada"
		},
		{
			"mesh":3,
			"name":"finestra.002"
		},
		{
			"mesh":4,
			"name":"finestra.003"
		},
		{
			"mesh":5,
			"name":"sombres finestra"
		},
		{
			"children":[
				5
			],
			"mesh":6,
			"name":"finestra.001"
		},
		{
			"mesh":7,
			"name":"finestra.004"
		},
		{
			"mesh":8,
			"name":"finestra.005"
		}
	],
	"materials":[
		{
			"alphaMode":"BLEND",
			"doubleSided":true,
			"extensions":{
				"KHR_materials_specular":{
					"specularFactor":0
				}
			},
			"name":"casa_sola_128",
			"pbrMetallicRoughness":{
				"baseColorTexture":{
					"index":0
				},
				"metallicFactor":0
			}
		},
		{
			"doubleSided":true,
			"extensions":{
				"KHR_materials_specular":{
					"specularFactor":0
				}
			},
			"name":"Material.002",
			"pbrMetallicRoughness":{
				"baseColorTexture":{
					"index":1
				},
				"metallicFactor":0
			}
		},
		{
			"doubleSided":true,
			"extensions":{
				"KHR_materials_specular":{
					"specularFactor":0
				}
			},
			"name":"Material.003",
			"pbrMetallicRoughness":{
				"baseColorTexture":{
					"index":2
				},
				"metallicFactor":0
			}
		}
	],
	"meshes":[
		{
			"name":"casa_sola_128.001",
			"primitives":[
				{
					"attributes":{
						"POSITION":0,
						"NORMAL":1,
						"TEXCOORD_0":2,
						"TANGENT":3
					},
					"indices":4,
					"material":0
				}
			]
		},
		{
			"name":"casa_sola_128.003",
			"primitives":[
				{
					"attributes":{
						"POSITION":5,
						"NORMAL":6,
						"TEXCOORD_0":7,
						"TANGENT":8
					},
					"indices":9,
					"material":1
				}
			]
		},
		{
			"name":"casa_sola_128.004",
			"primitives":[
				{
					"attributes":{
						"POSITION":10,
						"NORMAL":11,
						"TEXCOORD_0":12,
						"TANGENT":13
					},
					"indices":14,
					"material":2
				}
			]
		},
		{
			"name":"casa_sola_128.008",
			"primitives":[
				{
					"attributes":{
						"POSITION":15,
						"NORMAL":16,
						"TEXCOORD_0":17,
						"TANGENT":18
					},
					"indices":19,
					"material":0
				}
			]
		},
		{
			"name":"casa_sola_128.009",
			"primitives":[
				{
					"attributes":{
						"POSITION":20,
						"NORMAL":21,
						"TEXCOORD_0":22,
						"TANGENT":23
					},
					"indices":19,
					"material":0
				}
			]
		},
		{
			"name":"casa_sola_128.006",
			"primitives":[
				{
					"attributes":{
						"POSITION":24,
						"NORMAL":25,
						"TEXCOORD_0":26,
						"TANGENT":27
					},
					"indices":28,
					"material":0
				}
			]
		},
		{
			"name":"casa_sola_128.007",
			"primitives":[
				{
					"attributes":{
						"POSITION":29,
						"NORMAL":30,
						"TEXCOORD_0":31,
						"TANGENT":32
					},
					"indices":33,
					"material":0
				}
			]
		},
		{
			"name":"casa_sola_128.010",
			"primitives":[
				{
					"attributes":{
						"POSITION":34,
						"NORMAL":35,
						"TEXCOORD_0":36,
						"TANGENT":37
					},
					"indices":38,
					"material":0
				}
			]
		},
		{
			"name":"casa_sola_128.012",
			"primitives":[
				{
					"attributes":{
						"POSITION":39,
						"NORMAL":40,
						"TEXCOORD_0":41,
						"TANGENT":42
					},
					"indices":43,
					"material":0
				}
			]
		}
	],
	"textures":[
		{
			"sampler":0,
			"source":0
		},
		{
			"sampler":1,
			"source":1
		},
		{
			"sampler":1,
			"source":1
		}
	],
	"images":[
		{
			"mimeType":"image/png",
			"name":"casa_sola_128.png",
			"uri":"../../sprites/casa_sola_128.png"
		},
		{
			"mimeType":"image/png",
			"name":"casa_sprite.png",
			"uri":"../../sprites/casa_sprite.png"
		}
	],
	"accessors":[
		{
			"bufferView":0,
			"componentType":5126,
			"count":20736,
			"max":[
				0.7199999094009399,
				0.3799999952316284,
				0.4599999785423279
			],
			"min":[
				-0.010000028647482395,
				-0.64000004529953,
				-0.46000000834465027
			],
			"type":"VEC3"
		},
		{
			"bufferView":1,
			"componentType":5126,
			"count":20736,
			"type":"VEC3"
		},
		{
			"bufferView":2,
			"componentType":5126,
			"count":20736,
			"type":"VEC2"
		},
		{
			"bufferView":3,
			"componentType":5126,
			"count":20736,
			"type":"VEC4"
		},
		{
			"bufferView":4,
			"componentType":5123,
			"count":91632,
			"type":"SCALAR"
		},
		{
			"bufferView":5,
			"componentType":5126,
			"count":1580,
			"max":[
				0.699999988079071,
				-0.09999999403953552,
				0.4099999964237213
			],
			"min":[
				-4.589695734580346e-08,
				-0.64000004529953,
				-0.4100000262260437
			],
			"type":"VEC3"
		},
		{
			"bufferView":6,
			"componentType":5126,
			"count":1580,
			"type":"VEC3"
		},
		{
			"bufferView":7,
			"componentType":5126,
			"count":1580,
			"type":"VEC2"
		},
		{
			"bufferView":8,
			"componentType":5126,
			"count":1580,
			"type":"VEC4"
		},
		{
			"bufferView":9,
			"componentType":5123,
			"count":4596,
			"type":"SCALAR"
		},
		{
			"bufferView":10,
			"componentType":5126,
			"count":786,
			"max":[
				0.699999988079071,
				0.3799999952316284,
				0.4599999785423279
			],
			"min":[
				-2.4041264978791332e-08,
				-0.11000002920627594,
				-0.46000000834465027
			],
			"type":"VEC3"
		},
		{
			"bufferView":11,
			"componentType":5126,
			"count":786,
			"type":"VEC3"
		},
		{
			"bufferView":12,
			"componentType":5126,
			"count":786,
			"type":"VEC2"
		},
		{
			"bufferView":13,
			"componentType":5126,
			"count":786,
			"type":"VEC4"
		},
		{
			"bufferView":14,
			"componentType":5123,
			"count":1212,
			"type":"SCALAR"
		},
		{
			"bufferView":15,
			"componentType":5126,
			"count":890,
			"max":[
				0.0031476737931370735,
				-0.2800000011920929,
				0.31893932819366455
			],
			"min":[
				-0.006852336227893829,
				-0.46000000834465027,
				0.0889393538236618
			],
			"type":"VEC3"
		},
		{
			"bufferView":16,
			"componentType":5126,
			"count":890,
			"type":"VEC3"
		},
		{
			"bufferView":17,
			"componentType":5126,
			"count":890,
			"type":"VEC2"
		},
		{
			"bufferView":18,
			"componentType":5126,
			"count":890,
			"type":"VEC4"
		},
		{
			"bufferView":19,
			"componentType":5123,
			"count":3408,
			"type":"SCALAR"
		},
		{
			"bufferView":20,
			"componentType":5126,
			"count":890,
			"max":[
				0.0031476737931370735,
				-0.2800000011920929,
				-0.09106065332889557
			],
			"min":[
				-0.006852336227893829,
				-0.46000000834465027,
				-0.3210606575012207
			],
			"type":"VEC3"
		},
		{
			"bufferView":21,
			"componentType":5126,
			"count":890,
			"type":"VEC3"
		},
		{
			"bufferView":22,
			"componentType":5126,
			"count":890,
			"type":"VEC2"
		},
		{
			"bufferView":23,
			"componentType":5126,
			"count":890,
			"type":"VEC4"
		},
		{
			"bufferView":24,
			"componentType":5126,
			"count":68,
			"max":[
				0.7000214457511902,
				-0.2800000011920929,
				0.25
			],
			"min":[
				0.7000214457511902,
				-0.4699999988079071,
				0.029999999329447746
			],
			"type":"VEC3"
		},
		{
			"bufferView":25,
			"componentType":5126,
			"count":68,
			"type":"VEC3"
		},
		{
			"bufferView":26,
			"componentType":5126,
			"count":68,
			"type":"VEC2"
		},
		{
			"bufferView":27,
			"componentType":5126,
			"count":68,
			"type":"VEC4"
		},
		{
			"bufferView":28,
			"componentType":5123,
			"count":174,
			"type":"SCALAR"
		},
		{
			"bufferView":29,
			"componentType":5126,
			"count":884,
			"max":[
				0.7100213766098022,
				-0.2800000011920929,
				0.26999998092651367
			],
			"min":[
				0.7000213861465454,
				-0.4599999785423279,
				0.03999999910593033
			],
			"type":"VEC3"
		},
		{
			"bufferView":30,
			"componentType":5126,
			"count":884,
			"type":"VEC3"
		},
		{
			"bufferView":31,
			"componentType":5126,
			"count":884,
			"type":"VEC2"
		},
		{
			"bufferView":32,
			"componentType":5126,
			"count":884,
			"type":"VEC4"
		},
		{
			"bufferView":33,
			"componentType":5123,
			"count":3408,
			"type":"SCALAR"
		},
		{
			"bufferView":34,
			"componentType":5126,
			"count":1776,
			"max":[
				0.6197495460510254,
				-0.2831573784351349,
				0.4134853482246399
			],
			"min":[
				0.38974952697753906,
				-0.46315741539001465,
				-0.41348540782928467
			],
			"type":"VEC3"
		},
		{
			"bufferView":35,
			"componentType":5126,
			"count":1776,
			"type":"VEC3"
		},
		{
			"bufferView":36,
			"componentType":5126,
			"count":1776,
			"type":"VEC2"
		},
		{
			"bufferView":37,
			"componentType":5126,
			"count":1776,
			"type":"VEC4"
		},
		{
			"bufferView":38,
			"componentType":5123,
			"count":6816,
			"type":"SCALAR"
		},
		{
			"bufferView":39,
			"componentType":5126,
			"count":1776,
			"max":[
				0.3271743655204773,
				-0.2831573784351349,
				0.41348540782928467
			],
			"min":[
				0.09717433154582977,
				-0.46315741539001465,
				-0.41348540782928467
			],
			"type":"VEC3"
		},
		{
			"bufferView":40,
			"componentType":5126,
			"count":1776,
			"type":"VEC3"
		},
		{
			"bufferView":41,
			"componentType":5126,
			"count":1776,
			"type":"VEC2"
		},
		{
			"bufferView":42,
			"componentType":5126,
			"count":1776,
			"type":"VEC4"
		},
		{
			"bufferView":43,
			"componentType":5123,
			"count":6816,
			"type":"SCALAR"
		}
	],
	"bufferViews":[
		{
			"buffer":0,
			"byteLength":248832,
			"byteOffset":0,
			"target":34962
		},
		{
			"buffer":0,
			"byteLength":248832,
			"byteOffset":248832,
			"target":34962
		},
		{
			"buffer":0,
			"byteLength":165888,
			"byteOffset":497664,
			"target":34962
		},
		{
			"buffer":0,
			"byteLength":331776,
			"byteOffset":663552,
			"target":34962
		},
		{
			"buffer":0,
			"byteLength":183264,
			"byteOffset":995328,
			"target":34963
		},
		{
			"buffer":0,
			"byteLength":18960,
			"byteOffset":1178592,
			"target":34962
		},
		{
			"buffer":0,
			"byteLength":18960,
			"byteOffset":1197552,
			"target":34962
		},
		{
			"buffer":0,
			"byteLength":12640,
			"byteOffset":1216512,
			"target":34962
		},
		{
			"buffer":0,
			"byteLength":25280,
			"byteOffset":1229152,
			"target":34962
		},
		{
			"buffer":0,
			"byteLength":9192,
			"byteOffset":1254432,
			"target":34963
		},
		{
			"buffer":0,
			"byteLength":9432,
			"byteOffset":1263624,
			"target":34962
		},
		{
			"buffer":0,
			"byteLength":9432,
			"byteOffset":1273056,
			"target":34962
		},
		{
			"buffer":0,
			"byteLength":6288,
			"byteOffset":1282488,
			"target":34962
		},
		{
			"buffer":0,
			"byteLength":12576,
			"byteOffset":1288776,
			"target":34962
		},
		{
			"buffer":0,
			"byteLength":2424,
			"byteOffset":1301352,
			"target":34963
		},
		{
			"buffer":0,
			"byteLength":10680,
			"byteOffset":1303776,
			"target":34962
		},
		{
			"buffer":0,
			"byteLength":10680,
			"byteOffset":1314456,
			"target":34962
		},
		{
			"buffer":0,
			"byteLength":7120,
			"byteOffset":1325136,
			"target":34962
		},
		{
			"buffer":0,
			"byteLength":14240,
			"byteOffset":1332256,
			"target":34962
		},
		{
			"buffer":0,
			"byteLength":6816,
			"byteOffset":1346496,
			"target":34963
		},
		{
			"buffer":0,
			"byteLength":10680,
			"byteOffset":1353312,
			"target":34962
		},
		{
			"buffer":0,
			"byteLength":10680,
			"byteOffset":1363992,
			"target":34962
		},
		{
			"buffer":0,
			"byteLength":7120,
			"byteOffset":1374672,
			"target":34962
		},
		{
			"buffer":0,
			"byteLength":14240,
			"byteOffset":1381792,
			"target":34962
		},
		{
			"buffer":0,
			"byteLength":816,
			"byteOffset":1396032,
			"target":34962
		},
		{
			"buffer":0,
			"byteLength":816,
			"byteOffset":1396848,
			"target":34962
		},
		{
			"buffer":0,
			"byteLength":544,
			"byteOffset":1397664,
			"target":34962
		},
		{
			"buffer":0,
			"byteLength":1088,
			"byteOffset":1398208,
			"target":34962
		},
		{
			"buffer":0,
			"byteLength":348,
			"byteOffset":1399296,
			"target":34963
		},
		{
			"buffer":0,
			"byteLength":10608,
			"byteOffset":1399644,
			"target":34962
		},
		{
			"buffer":0,
			"byteLength":10608,
			"byteOffset":1410252,
			"target":34962
		},
		{
			"buffer":0,
			"byteLength":7072,
			"byteOffset":1420860,
			"target":34962
		},
		{
			"buffer":0,
			"byteLength":14144,
			"byteOffset":1427932,
			"target":34962
		},
		{
			"buffer":0,
			"byteLength":6816,
			"byteOffset":1442076,
			"target":34963
		},
		{
			"buffer":0,
			"byteLength":21312,
			"byteOffset":1448892,
			"target":34962
		},
		{
			"buffer":0,
			"byteLength":21312,
			"byteOffset":1470204,
			"target":34962
		},
		{
			"buffer":0,
			"byteLength":14208,
			"byteOffset":1491516,
			"target":34962
		},
		{
			"buffer":0,
			"byteLength":28416,
			"byteOffset":1505724,
			"target":34962
		},
		{
			"buffer":0,
			"byteLength":13632,
			"byteOffset":1534140,
			"target":34963
		},
		{
			"buffer":0,
			"byteLength":21312,
			"byteOffset":1547772,
			"target":34962
		},
		{
			"buffer":0,
			"byteLength":21312,
			"byteOffset":1569084,
			"target":34962
		},
		{
			"buffer":0,
			"byteLength":14208,
			"byteOffset":1590396,
			"target":34962
		},
		{
			"buffer":0,
			"byteLength":28416,
			"byteOffset":1604604,
			"target":34962
		},
		{
			"buffer":0,
			"byteLength":13632,
			"byteOffset":1633020,
			"target":34963
		}
	],
	"samplers":[
		{
			"magFilter":9728,
			"minFilter":9984,
			"wrapS":33071,
			"wrapT":33071
		},
		{
			"magFilter":9728,
			"minFilter":9984
		}
	],
	"buffers":[
		{
			"byteLength":1646652,
			"uri":"Buildings_modifiers-38308b2c76b91d7bdb493b5183225d45.bin"
		}
	]
}
