{
	"asset":{
		"generator":"Khronos glTF Blender I/O v5.1.20",
		"version":"2.0"
	},
	"extensionsUsed":[
		"KHR_materials_specular"
	],
	"scene":0,
	"scenes":[
		{
			"name":"Scene",
			"nodes":[
				0,
				1,
				2,
				3,
				4,
				5,
				6,
				7
			]
		}
	],
	"nodes":[
		{
			"mesh":0,
			"name":"cube-col"
		},
		{
			"mesh":1,
			"name":"cube_half-col",
			"translation":[
				-0.020236101001501083,
				0,
				-4.040538787841797
			]
		},
		{
			"mesh":2,
			"name":"cube-corner-left-col",
			"translation":[
				1.8749357461929321,
				0,
				0
			]
		},
		{
			"mesh":3,
			"name":"cube-side-col",
			"translation":[
				3.4374961853027344,
				0,
				0
			]
		},
		{
			"mesh":4,
			"name":"cube-top-col",
			"translation":[
				5.052486896514893,
				0,
				0
			]
		},
		{
			"mesh":5,
			"name":"cube_half-corner-col",
			"translation":[
				1.854665994644165,
				0,
				-4.040538787841797
			]
		},
		{
			"mesh":6,
			"name":"cube_half-side-col",
			"translation":[
				3.489078998565674,
				0,
				-4.040538787841797
			]
		},
		{
			"mesh":7,
			"name":"cube_half-top-col",
			"translation":[
				5.242995262145996,
				0,
				-4.040538787841797
			]
		}
	],
	"materials":[
		{
			"doubleSided":true,
			"extensions":{
				"KHR_materials_specular":{
					"specularFactor":0
				}
			},
			"name":"Material.001",
			"pbrMetallicRoughness":{
				"baseColorTexture":{
					"index":0
				},
				"metallicFactor":0
			}
		}
	],
	"meshes":[
		{
			"name":"Cube.001",
			"primitives":[
				{
					"attributes":{
						"POSITION":0,
						"NORMAL":1,
						"TEXCOORD_0":2,
						"TANGENT":3
					},
					"indices":4,
					"material":0
				}
			]
		},
		{
			"name":"Cube.002",
			"primitives":[
				{
					"attributes":{
						"POSITION":5,
						"NORMAL":6,
						"TEXCOORD_0":7,
						"TANGENT":8
					},
					"indices":4,
					"material":0
				}
			]
		},
		{
			"name":"Cube.003",
			"primitives":[
				{
					"attributes":{
						"POSITION":9,
						"NORMAL":10,
						"TEXCOORD_0":11,
						"TANGENT":12
					},
					"indices":13,
					"material":0
				}
			]
		},
		{
			"name":"Cube.004",
			"primitives":[
				{
					"attributes":{
						"POSITION":14,
						"NORMAL":15,
						"TEXCOORD_0":16,
						"TANGENT":17
					},
					"indices":18,
					"material":0
				}
			]
		},
		{
			"name":"Cube.005",
			"primitives":[
				{
					"attributes":{
						"POSITION":19,
						"NORMAL":20,
						"TEXCOORD_0":21,
						"TANGENT":22
					},
					"indices":23,
					"material":0
				}
			]
		},
		{
			"name":"Cube.006",
			"primitives":[
				{
					"attributes":{
						"POSITION":24,
						"NORMAL":25,
						"TEXCOORD_0":26,
						"TANGENT":27
					},
					"indices":13,
					"material":0
				}
			]
		},
		{
			"name":"Cube.007",
			"primitives":[
				{
					"attributes":{
						"POSITION":28,
						"NORMAL":29,
						"TEXCOORD_0":30,
						"TANGENT":31
					},
					"indices":18,
					"material":0
				}
			]
		},
		{
			"name":"Cube.008",
			"primitives":[
				{
					"attributes":{
						"POSITION":32,
						"NORMAL":33,
						"TEXCOORD_0":34,
						"TANGENT":35
					},
					"indices":23,
					"material":0
				}
			]
		}
	],
	"textures":[
		{
			"sampler":0,
			"source":0
		}
	],
	"images":[
		{
			"mimeType":"image/png",
			"name":"tileset.png",
			"uri":"../../sprites/tileset.png"
		}
	],
	"accessors":[
		{
			"bufferView":0,
			"componentType":5126,
			"count":384,
			"max":[
				0.5,
				0.5,
				0.5
			],
			"min":[
				-0.5,
				-0.5,
				-0.5
			],
			"type":"VEC3"
		},
		{
			"bufferView":1,
			"componentType":5126,
			"count":384,
			"type":"VEC3"
		},
		{
			"bufferView":2,
			"componentType":5126,
			"count":384,
			"type":"VEC2"
		},
		{
			"bufferView":3,
			"componentType":5126,
			"count":384,
			"type":"VEC4"
		},
		{
			"bufferView":4,
			"componentType":5123,
			"count":564,
			"type":"SCALAR"
		},
		{
			"bufferView":5,
			"componentType":5126,
			"count":384,
			"max":[
				0.5,
				0,
				0.5
			],
			"min":[
				-0.5,
				-0.5,
				-0.5
			],
			"type":"VEC3"
		},
		{
			"bufferView":6,
			"componentType":5126,
			"count":384,
			"type":"VEC3"
		},
		{
			"bufferView":7,
			"componentType":5126,
			"count":384,
			"type":"VEC2"
		},
		{
			"bufferView":8,
			"componentType":5126,
			"count":384,
			"type":"VEC4"
		},
		{
			"bufferView":9,
			"componentType":5126,
			"count":75,
			"max":[
				0.5,
				0.5,
				0.5
			],
			"min":[
				-0.5,
				-0.5,
				-0.5
			],
			"type":"VEC3"
		},
		{
			"bufferView":10,
			"componentType":5126,
			"count":75,
			"type":"VEC3"
		},
		{
			"bufferView":11,
			"componentType":5126,
			"count":75,
			"type":"VEC2"
		},
		{
			"bufferView":12,
			"componentType":5126,
			"count":75,
			"type":"VEC4"
		},
		{
			"bufferView":13,
			"componentType":5123,
			"count":111,
			"type":"SCALAR"
		},
		{
			"bufferView":14,
			"componentType":5126,
			"count":20,
			"max":[
				0.5,
				0.5,
				0.5
			],
			"min":[
				-0.5,
				-0.5,
				-0.5
			],
			"type":"VEC3"
		},
		{
			"bufferView":15,
			"componentType":5126,
			"count":20,
			"type":"VEC3"
		},
		{
			"bufferView":16,
			"componentType":5126,
			"count":20,
			"type":"VEC2"
		},
		{
			"bufferView":17,
			"componentType":5126,
			"count":20,
			"type":"VEC4"
		},
		{
			"bufferView":18,
			"componentType":5123,
			"count":30,
			"type":"SCALAR"
		},
		{
			"bufferView":19,
			"componentType":5126,
			"count":4,
			"max":[
				0.5,
				0.5,
				0.5
			],
			"min":[
				-0.5,
				0.5,
				-0.5
			],
			"type":"VEC3"
		},
		{
			"bufferView":20,
			"componentType":5126,
			"count":4,
			"type":"VEC3"
		},
		{
			"bufferView":21,
			"componentType":5126,
			"count":4,
			"type":"VEC2"
		},
		{
			"bufferView":22,
			"componentType":5126,
			"count":4,
			"type":"VEC4"
		},
		{
			"bufferView":23,
			"componentType":5123,
			"count":6,
			"type":"SCALAR"
		},
		{
			"bufferView":24,
			"componentType":5126,
			"count":75,
			"max":[
				0.5,
				0,
				0.5
			],
			"min":[
				-0.5,
				-0.5,
				-0.5
			],
			"type":"VEC3"
		},
		{
			"bufferView":25,
			"componentType":5126,
			"count":75,
			"type":"VEC3"
		},
		{
			"bufferView":26,
			"componentType":5126,
			"count":75,
			"type":"VEC2"
		},
		{
			"bufferView":27,
			"componentType":5126,
			"count":75,
			"type":"VEC4"
		},
		{
			"bufferView":28,
			"componentType":5126,
			"count":20,
			"max":[
				0.5,
				0,
				0.5
			],
			"min":[
				-0.5,
				-0.5,
				-0.5
			],
			"type":"VEC3"
		},
		{
			"bufferView":29,
			"componentType":5126,
			"count":20,
			"type":"VEC3"
		},
		{
			"bufferView":30,
			"componentType":5126,
			"count":20,
			"type":"VEC2"
		},
		{
			"bufferView":31,
			"componentType":5126,
			"count":20,
			"type":"VEC4"
		},
		{
			"bufferView":32,
			"componentType":5126,
			"count":4,
			"max":[
				0.5,
				0,
				0.5
			],
			"min":[
				-0.5,
				0,
				-0.5
			],
			"type":"VEC3"
		},
		{
			"bufferView":33,
			"componentType":5126,
			"count":4,
			"type":"VEC3"
		},
		{
			"bufferView":34,
			"componentType":5126,
			"count":4,
			"type":"VEC2"
		},
		{
			"bufferView":35,
			"componentType":5126,
			"count":4,
			"type":"VEC4"
		}
	],
	"bufferViews":[
		{
			"buffer":0,
			"byteLength":4608,
			"byteOffset":0,
			"target":34962
		},
		{
			"buffer":0,
			"byteLength":4608,
			"byteOffset":4608,
			"target":34962
		},
		{
			"buffer":0,
			"byteLength":3072,
			"byteOffset":9216,
			"target":34962
		},
		{
			"buffer":0,
			"byteLength":6144,
			"byteOffset":12288,
			"target":34962
		},
		{
			"buffer":0,
			"byteLength":1128,
			"byteOffset":18432,
			"target":34963
		},
		{
			"buffer":0,
			"byteLength":4608,
			"byteOffset":19560,
			"target":34962
		},
		{
			"buffer":0,
			"byteLength":4608,
			"byteOffset":24168,
			"target":34962
		},
		{
			"buffer":0,
			"byteLength":3072,
			"byteOffset":28776,
			"target":34962
		},
		{
			"buffer":0,
			"byteLength":6144,
			"byteOffset":31848,
			"target":34962
		},
		{
			"buffer":0,
			"byteLength":900,
			"byteOffset":37992,
			"target":34962
		},
		{
			"buffer":0,
			"byteLength":900,
			"byteOffset":38892,
			"target":34962
		},
		{
			"buffer":0,
			"byteLength":600,
			"byteOffset":39792,
			"target":34962
		},
		{
			"buffer":0,
			"byteLength":1200,
			"byteOffset":40392,
			"target":34962
		},
		{
			"buffer":0,
			"byteLength":222,
			"byteOffset":41592,
			"target":34963
		},
		{
			"buffer":0,
			"byteLength":240,
			"byteOffset":41816,
			"target":34962
		},
		{
			"buffer":0,
			"byteLength":240,
			"byteOffset":42056,
			"target":34962
		},
		{
			"buffer":0,
			"byteLength":160,
			"byteOffset":42296,
			"target":34962
		},
		{
			"buffer":0,
			"byteLength":320,
			"byteOffset":42456,
			"target":34962
		},
		{
			"buffer":0,
			"byteLength":60,
			"byteOffset":42776,
			"target":34963
		},
		{
			"buffer":0,
			"byteLength":48,
			"byteOffset":42836,
			"target":34962
		},
		{
			"buffer":0,
			"byteLength":48,
			"byteOffset":42884,
			"target":34962
		},
		{
			"buffer":0,
			"byteLength":32,
			"byteOffset":42932,
			"target":34962
		},
		{
			"buffer":0,
			"byteLength":64,
			"byteOffset":42964,
			"target":34962
		},
		{
			"buffer":0,
			"byteLength":12,
			"byteOffset":43028,
			"target":34963
		},
		{
			"buffer":0,
			"byteLength":900,
			"byteOffset":43040,
			"target":34962
		},
		{
			"buffer":0,
			"byteLength":900,
			"byteOffset":43940,
			"target":34962
		},
		{
			"buffer":0,
			"byteLength":600,
			"byteOffset":44840,
			"target":34962
		},
		{
			"buffer":0,
			"byteLength":1200,
			"byteOffset":45440,
			"target":34962
		},
		{
			"buffer":0,
			"byteLength":240,
			"byteOffset":46640,
			"target":34962
		},
		{
			"buffer":0,
			"byteLength":240,
			"byteOffset":46880,
			"target":34962
		},
		{
			"buffer":0,
			"byteLength":160,
			"byteOffset":47120,
			"target":34962
		},
		{
			"buffer":0,
			"byteLength":320,
			"byteOffset":47280,
			"target":34962
		},
		{
			"buffer":0,
			"byteLength":48,
			"byteOffset":47600,
			"target":34962
		},
		{
			"buffer":0,
			"byteLength":48,
			"byteOffset":47648,
			"target":34962
		},
		{
			"buffer":0,
			"byteLength":32,
			"byteOffset":47696,
			"target":34962
		},
		{
			"buffer":0,
			"byteLength":64,
			"byteOffset":47728,
			"target":34962
		}
	],
	"samplers":[
		{
			"magFilter":9728,
			"minFilter":9984
		}
	],
	"buffers":[
		{
			"byteLength":47792,
			"uri":"TerrainMeshesAllDirections-242d6999101575630f7d3c7befd1adc7.bin"
		}
	]
}
