{
	"asset":{
		"generator":"Khronos glTF Blender I/O v5.1.20",
		"version":"2.0"
	},
	"extensionsUsed":[
		"KHR_materials_specular"
	],
	"scene":0,
	"scenes":[
		{
			"name":"Scene",
			"nodes":[
				0,
				1,
				2,
				3,
				4,
				5,
				6,
				7,
				8,
				9,
				10,
				11,
				12,
				13,
				14,
				15,
				16,
				17,
				18,
				19,
				20,
				21,
				22,
				23,
				24,
				25
			]
		}
	],
	"nodes":[
		{
			"mesh":0,
			"name":"cube-col"
		},
		{
			"mesh":1,
			"name":"cube_half-col",
			"translation":[
				-0.020236101001501083,
				-0.25,
				-1.5945254564285278
			]
		},
		{
			"mesh":2,
			"name":"cube-corner-col",
			"translation":[
				1.8035072088241577,
				0.0714285746216774,
				0.0714285746216774
			]
		},
		{
			"mesh":3,
			"name":"cube-side-col",
			"translation":[
				3.4374961853027344,
				0.1666666716337204,
				0.1666666716337204
			]
		},
		{
			"mesh":4,
			"name":"cube-top-col",
			"translation":[
				5.154425621032715,
				0.5,
				0
			]
		},
		{
			"mesh":5,
			"name":"cube_half-corner-col",
			"translation":[
				1.7832374572753906,
				-0.2142857313156128,
				-1.5230969190597534
			]
		},
		{
			"mesh":6,
			"name":"cube_half-side-col",
			"translation":[
				3.489078998565674,
				-0.1666666716337204,
				-1.427858829498291
			]
		},
		{
			"mesh":7,
			"name":"cube_half-top-col",
			"translation":[
				5.242995262145996,
				0,
				-1.5945255756378174
			]
		},
		{
			"mesh":8,
			"name":"cube-field-top-middle-col",
			"translation":[
				6.665678024291992,
				0.5,
				1.2189334630966187
			]
		},
		{
			"mesh":9,
			"name":"cube_half-top-left-col",
			"translation":[
				6.798932075500488,
				0,
				-1.5945255756378174
			]
		},
		{
			"mesh":10,
			"name":"cube-field-middle-middle-col",
			"translation":[
				7.811555862426758,
				0.5,
				1.2189334630966187
			]
		},
		{
			"mesh":11,
			"name":"cube-field-middle-left-col",
			"translation":[
				7.811555862426758,
				0.5,
				2.352492332458496
			]
		},
		{
			"mesh":12,
			"name":"cube-field-top-left-col",
			"translation":[
				6.668879508972168,
				0.5,
				2.352492332458496
			]
		},
		{
			"mesh":13,
			"name":"cube-field-bottom-left-col",
			"translation":[
				8.935911178588867,
				0.5,
				2.352492332458496
			]
		},
		{
			"mesh":14,
			"name":"cube-field-bottom-middle-col",
			"translation":[
				8.935911178588867,
				0.5,
				1.2169489860534668
			]
		},
		{
			"mesh":15,
			"name":"cube-field-bottom-right-col",
			"translation":[
				8.935911178588867,
				0.5,
				0.09627044200897217
			]
		},
		{
			"mesh":16,
			"name":"cube-field-middle-right-col",
			"translation":[
				7.811555862426758,
				0.5,
				0.09333491325378418
			]
		},
		{
			"mesh":17,
			"name":"cube-field-top-right-col",
			"translation":[
				6.665678024291992,
				0.5,
				0.08445990085601807
			]
		},
		{
			"mesh":18,
			"name":"cube_half-middle-left-col",
			"translation":[
				7.973215103149414,
				0,
				-1.5945255756378174
			]
		},
		{
			"mesh":19,
			"name":"cube_half-bottom-left-col",
			"translation":[
				9.130965232849121,
				0,
				-1.5945255756378174
			]
		},
		{
			"mesh":20,
			"name":"cube_half-top-middle-col",
			"translation":[
				6.798932075500488,
				0,
				-2.7320518493652344
			]
		},
		{
			"mesh":21,
			"name":"cube_half-middle-middle-col",
			"translation":[
				7.973215103149414,
				0,
				-2.7320518493652344
			]
		},
		{
			"mesh":22,
			"name":"cube_half-bottom-middle-col",
			"translation":[
				9.130965232849121,
				0,
				-2.7320518493652344
			]
		},
		{
			"mesh":23,
			"name":"cube_half-top-right-col",
			"translation":[
				6.798932075500488,
				0,
				-3.876577377319336
			]
		},
		{
			"mesh":24,
			"name":"cube_half-middle-right-col",
			"translation":[
				7.973215103149414,
				0,
				-3.876577377319336
			]
		},
		{
			"mesh":25,
			"name":"cube_half-bottom-right-col",
			"translation":[
				9.130965232849121,
				0,
				-3.876577377319336
			]
		}
	],
	"materials":[
		{
			"doubleSided":true,
			"extensions":{
				"KHR_materials_specular":{
					"specularFactor":0
				}
			},
			"name":"Material.001",
			"pbrMetallicRoughness":{
				"baseColorTexture":{
					"index":0
				},
				"metallicFactor":0
			}
		}
	],
	"meshes":[
		{
			"name":"Cube.001",
			"primitives":[
				{
					"attributes":{
						"POSITION":0,
						"NORMAL":1,
						"TEXCOORD_0":2,
						"TANGENT":3
					},
					"indices":4,
					"material":0
				}
			]
		},
		{
			"name":"Cube.002",
			"primitives":[
				{
					"attributes":{
						"POSITION":5,
						"NORMAL":6,
						"TEXCOORD_0":7,
						"TANGENT":8
					},
					"indices":4,
					"material":0
				}
			]
		},
		{
			"name":"Cube.003",
			"primitives":[
				{
					"attributes":{
						"POSITION":9,
						"NORMAL":10,
						"TEXCOORD_0":11,
						"TANGENT":12
					},
					"indices":13,
					"material":0
				}
			]
		},
		{
			"name":"Cube.004",
			"primitives":[
				{
					"attributes":{
						"POSITION":14,
						"NORMAL":15,
						"TEXCOORD_0":16,
						"TANGENT":17
					},
					"indices":18,
					"material":0
				}
			]
		},
		{
			"name":"Cube.005",
			"primitives":[
				{
					"attributes":{
						"POSITION":19,
						"NORMAL":20,
						"TEXCOORD_0":21,
						"TANGENT":22
					},
					"indices":23,
					"material":0
				}
			]
		},
		{
			"name":"Cube.006",
			"primitives":[
				{
					"attributes":{
						"POSITION":24,
						"NORMAL":25,
						"TEXCOORD_0":26,
						"TANGENT":27
					},
					"indices":13,
					"material":0
				}
			]
		},
		{
			"name":"Cube.007",
			"primitives":[
				{
					"attributes":{
						"POSITION":28,
						"NORMAL":29,
						"TEXCOORD_0":30,
						"TANGENT":31
					},
					"indices":18,
					"material":0
				}
			]
		},
		{
			"name":"Cube.008",
			"primitives":[
				{
					"attributes":{
						"POSITION":32,
						"NORMAL":33,
						"TEXCOORD_0":34,
						"TANGENT":35
					},
					"indices":23,
					"material":0
				}
			]
		},
		{
			"name":"Cube.009",
			"primitives":[
				{
					"attributes":{
						"POSITION":36,
						"NORMAL":37,
						"TEXCOORD_0":38,
						"TANGENT":39
					},
					"indices":23,
					"material":0
				}
			]
		},
		{
			"name":"Cube.010",
			"primitives":[
				{
					"attributes":{
						"POSITION":40,
						"NORMAL":41,
						"TEXCOORD_0":42,
						"TANGENT":43
					},
					"indices":23,
					"material":0
				}
			]
		},
		{
			"name":"Cube.011",
			"primitives":[
				{
					"attributes":{
						"POSITION":44,
						"NORMAL":45,
						"TEXCOORD_0":46,
						"TANGENT":47
					},
					"indices":23,
					"material":0
				}
			]
		},
		{
			"name":"Cube.012",
			"primitives":[
				{
					"attributes":{
						"POSITION":48,
						"NORMAL":49,
						"TEXCOORD_0":50,
						"TANGENT":51
					},
					"indices":23,
					"material":0
				}
			]
		},
		{
			"name":"Cube.013",
			"primitives":[
				{
					"attributes":{
						"POSITION":52,
						"NORMAL":53,
						"TEXCOORD_0":54,
						"TANGENT":55
					},
					"indices":23,
					"material":0
				}
			]
		},
		{
			"name":"Cube.014",
			"primitives":[
				{
					"attributes":{
						"POSITION":56,
						"NORMAL":57,
						"TEXCOORD_0":58,
						"TANGENT":59
					},
					"indices":23,
					"material":0
				}
			]
		},
		{
			"name":"Cube.015",
			"primitives":[
				{
					"attributes":{
						"POSITION":60,
						"NORMAL":61,
						"TEXCOORD_0":62,
						"TANGENT":63
					},
					"indices":23,
					"material":0
				}
			]
		},
		{
			"name":"Cube.016",
			"primitives":[
				{
					"attributes":{
						"POSITION":64,
						"NORMAL":65,
						"TEXCOORD_0":66,
						"TANGENT":67
					},
					"indices":23,
					"material":0
				}
			]
		},
		{
			"name":"Cube.017",
			"primitives":[
				{
					"attributes":{
						"POSITION":68,
						"NORMAL":69,
						"TEXCOORD_0":70,
						"TANGENT":71
					},
					"indices":23,
					"material":0
				}
			]
		},
		{
			"name":"Cube.018",
			"primitives":[
				{
					"attributes":{
						"POSITION":72,
						"NORMAL":73,
						"TEXCOORD_0":74,
						"TANGENT":75
					},
					"indices":23,
					"material":0
				}
			]
		},
		{
			"name":"Cube.019",
			"primitives":[
				{
					"attributes":{
						"POSITION":76,
						"NORMAL":77,
						"TEXCOORD_0":78,
						"TANGENT":79
					},
					"indices":23,
					"material":0
				}
			]
		},
		{
			"name":"Cube.020",
			"primitives":[
				{
					"attributes":{
						"POSITION":80,
						"NORMAL":81,
						"TEXCOORD_0":82,
						"TANGENT":83
					},
					"indices":23,
					"material":0
				}
			]
		},
		{
			"name":"Cube.021",
			"primitives":[
				{
					"attributes":{
						"POSITION":84,
						"NORMAL":85,
						"TEXCOORD_0":86,
						"TANGENT":87
					},
					"indices":23,
					"material":0
				}
			]
		},
		{
			"name":"Cube.022",
			"primitives":[
				{
					"attributes":{
						"POSITION":88,
						"NORMAL":89,
						"TEXCOORD_0":90,
						"TANGENT":91
					},
					"indices":23,
					"material":0
				}
			]
		},
		{
			"name":"Cube.023",
			"primitives":[
				{
					"attributes":{
						"POSITION":92,
						"NORMAL":93,
						"TEXCOORD_0":94,
						"TANGENT":95
					},
					"indices":23,
					"material":0
				}
			]
		},
		{
			"name":"Cube.024",
			"primitives":[
				{
					"attributes":{
						"POSITION":96,
						"NORMAL":97,
						"TEXCOORD_0":98,
						"TANGENT":99
					},
					"indices":23,
					"material":0
				}
			]
		},
		{
			"name":"Cube.025",
			"primitives":[
				{
					"attributes":{
						"POSITION":100,
						"NORMAL":101,
						"TEXCOORD_0":102,
						"TANGENT":103
					},
					"indices":23,
					"material":0
				}
			]
		},
		{
			"name":"Cube.026",
			"primitives":[
				{
					"attributes":{
						"POSITION":104,
						"NORMAL":105,
						"TEXCOORD_0":106,
						"TANGENT":107
					},
					"indices":23,
					"material":0
				}
			]
		}
	],
	"textures":[
		{
			"sampler":0,
			"source":0
		}
	],
	"images":[
		{
			"mimeType":"image/png",
			"name":"tileset.png",
			"uri":"../../sprites/tileset.png"
		}
	],
	"accessors":[
		{
			"bufferView":0,
			"componentType":5126,
			"count":384,
			"max":[
				0.5,
				0.5,
				0.5
			],
			"min":[
				-0.5,
				-0.5,
				-0.5
			],
			"type":"VEC3"
		},
		{
			"bufferView":1,
			"componentType":5126,
			"count":384,
			"type":"VEC3"
		},
		{
			"bufferView":2,
			"componentType":5126,
			"count":384,
			"type":"VEC2"
		},
		{
			"bufferView":3,
			"componentType":5126,
			"count":384,
			"type":"VEC4"
		},
		{
			"bufferView":4,
			"componentType":5123,
			"count":564,
			"type":"SCALAR"
		},
		{
			"bufferView":5,
			"componentType":5126,
			"count":384,
			"max":[
				0.5,
				0.25,
				0.49999988079071045
			],
			"min":[
				-0.4999999701976776,
				-0.25,
				-0.5000001192092896
			],
			"type":"VEC3"
		},
		{
			"bufferView":6,
			"componentType":5126,
			"count":384,
			"type":"VEC3"
		},
		{
			"bufferView":7,
			"componentType":5126,
			"count":384,
			"type":"VEC2"
		},
		{
			"bufferView":8,
			"componentType":5126,
			"count":384,
			"type":"VEC4"
		},
		{
			"bufferView":9,
			"componentType":5126,
			"count":75,
			"max":[
				0.5714284181594849,
				0.4285714328289032,
				0.4285714328289032
			],
			"min":[
				-0.4285714626312256,
				-0.5714285969734192,
				-0.5714285969734192
			],
			"type":"VEC3"
		},
		{
			"bufferView":10,
			"componentType":5126,
			"count":75,
			"type":"VEC3"
		},
		{
			"bufferView":11,
			"componentType":5126,
			"count":75,
			"type":"VEC2"
		},
		{
			"bufferView":12,
			"componentType":5126,
			"count":75,
			"type":"VEC4"
		},
		{
			"bufferView":13,
			"componentType":5123,
			"count":111,
			"type":"SCALAR"
		},
		{
			"bufferView":14,
			"componentType":5126,
			"count":20,
			"max":[
				0.5,
				0.3333333134651184,
				0.3333333134651184
			],
			"min":[
				-0.5,
				-0.6666666865348816,
				-0.6666666865348816
			],
			"type":"VEC3"
		},
		{
			"bufferView":15,
			"componentType":5126,
			"count":20,
			"type":"VEC3"
		},
		{
			"bufferView":16,
			"componentType":5126,
			"count":20,
			"type":"VEC2"
		},
		{
			"bufferView":17,
			"componentType":5126,
			"count":20,
			"type":"VEC4"
		},
		{
			"bufferView":18,
			"componentType":5123,
			"count":30,
			"type":"SCALAR"
		},
		{
			"bufferView":19,
			"componentType":5126,
			"count":4,
			"max":[
				0.5,
				0,
				0.5
			],
			"min":[
				-0.5,
				0,
				-0.5
			],
			"type":"VEC3"
		},
		{
			"bufferView":20,
			"componentType":5126,
			"count":4,
			"type":"VEC3"
		},
		{
			"bufferView":21,
			"componentType":5126,
			"count":4,
			"type":"VEC2"
		},
		{
			"bufferView":22,
			"componentType":5126,
			"count":4,
			"type":"VEC4"
		},
		{
			"bufferView":23,
			"componentType":5123,
			"count":6,
			"type":"SCALAR"
		},
		{
			"bufferView":24,
			"componentType":5126,
			"count":75,
			"max":[
				0.5714285373687744,
				0.2142857313156128,
				0.42857134342193604
			],
			"min":[
				-0.4285714626312256,
				-0.2857142686843872,
				-0.571428656578064
			],
			"type":"VEC3"
		},
		{
			"bufferView":25,
			"componentType":5126,
			"count":75,
			"type":"VEC3"
		},
		{
			"bufferView":26,
			"componentType":5126,
			"count":75,
			"type":"VEC2"
		},
		{
			"bufferView":27,
			"componentType":5126,
			"count":75,
			"type":"VEC4"
		},
		{
			"bufferView":28,
			"componentType":5126,
			"count":20,
			"max":[
				0.5,
				0.1666666716337204,
				0.33333325386047363
			],
			"min":[
				-0.5,
				-0.3333333134651184,
				-0.6666667461395264
			],
			"type":"VEC3"
		},
		{
			"bufferView":29,
			"componentType":5126,
			"count":20,
			"type":"VEC3"
		},
		{
			"bufferView":30,
			"componentType":5126,
			"count":20,
			"type":"VEC2"
		},
		{
			"bufferView":31,
			"componentType":5126,
			"count":20,
			"type":"VEC4"
		},
		{
			"bufferView":32,
			"componentType":5126,
			"count":4,
			"max":[
				0.5,
				0,
				0.5
			],
			"min":[
				-0.5,
				0,
				-0.5
			],
			"type":"VEC3"
		},
		{
			"bufferView":33,
			"componentType":5126,
			"count":4,
			"type":"VEC3"
		},
		{
			"bufferView":34,
			"componentType":5126,
			"count":4,
			"type":"VEC2"
		},
		{
			"bufferView":35,
			"componentType":5126,
			"count":4,
			"type":"VEC4"
		},
		{
			"bufferView":36,
			"componentType":5126,
			"count":4,
			"max":[
				0.5,
				0,
				0.5
			],
			"min":[
				-0.5,
				0,
				-0.5
			],
			"type":"VEC3"
		},
		{
			"bufferView":37,
			"componentType":5126,
			"count":4,
			"type":"VEC3"
		},
		{
			"bufferView":38,
			"componentType":5126,
			"count":4,
			"type":"VEC2"
		},
		{
			"bufferView":39,
			"componentType":5126,
			"count":4,
			"type":"VEC4"
		},
		{
			"bufferView":40,
			"componentType":5126,
			"count":4,
			"max":[
				0.5,
				0,
				0.5
			],
			"min":[
				-0.5,
				0,
				-0.5
			],
			"type":"VEC3"
		},
		{
			"bufferView":41,
			"componentType":5126,
			"count":4,
			"type":"VEC3"
		},
		{
			"bufferView":42,
			"componentType":5126,
			"count":4,
			"type":"VEC2"
		},
		{
			"bufferView":43,
			"componentType":5126,
			"count":4,
			"type":"VEC4"
		},
		{
			"bufferView":44,
			"componentType":5126,
			"count":4,
			"max":[
				0.5,
				0,
				0.5
			],
			"min":[
				-0.5,
				0,
				-0.5
			],
			"type":"VEC3"
		},
		{
			"bufferView":45,
			"componentType":5126,
			"count":4,
			"type":"VEC3"
		},
		{
			"bufferView":46,
			"componentType":5126,
			"count":4,
			"type":"VEC2"
		},
		{
			"bufferView":47,
			"componentType":5126,
			"count":4,
			"type":"VEC4"
		},
		{
			"bufferView":48,
			"componentType":5126,
			"count":4,
			"max":[
				0.5,
				0,
				0.5
			],
			"min":[
				-0.5,
				0,
				-0.5
			],
			"type":"VEC3"
		},
		{
			"bufferView":49,
			"componentType":5126,
			"count":4,
			"type":"VEC3"
		},
		{
			"bufferView":50,
			"componentType":5126,
			"count":4,
			"type":"VEC2"
		},
		{
			"bufferView":51,
			"componentType":5126,
			"count":4,
			"type":"VEC4"
		},
		{
			"bufferView":52,
			"componentType":5126,
			"count":4,
			"max":[
				0.5,
				0,
				0.5
			],
			"min":[
				-0.5,
				0,
				-0.5
			],
			"type":"VEC3"
		},
		{
			"bufferView":53,
			"componentType":5126,
			"count":4,
			"type":"VEC3"
		},
		{
			"bufferView":54,
			"componentType":5126,
			"count":4,
			"type":"VEC2"
		},
		{
			"bufferView":55,
			"componentType":5126,
			"count":4,
			"type":"VEC4"
		},
		{
			"bufferView":56,
			"componentType":5126,
			"count":4,
			"max":[
				0.5,
				0,
				0.5
			],
			"min":[
				-0.5,
				0,
				-0.5
			],
			"type":"VEC3"
		},
		{
			"bufferView":57,
			"componentType":5126,
			"count":4,
			"type":"VEC3"
		},
		{
			"bufferView":58,
			"componentType":5126,
			"count":4,
			"type":"VEC2"
		},
		{
			"bufferView":59,
			"componentType":5126,
			"count":4,
			"type":"VEC4"
		},
		{
			"bufferView":60,
			"componentType":5126,
			"count":4,
			"max":[
				0.5,
				0,
				0.5
			],
			"min":[
				-0.5,
				0,
				-0.5
			],
			"type":"VEC3"
		},
		{
			"bufferView":61,
			"componentType":5126,
			"count":4,
			"type":"VEC3"
		},
		{
			"bufferView":62,
			"componentType":5126,
			"count":4,
			"type":"VEC2"
		},
		{
			"bufferView":63,
			"componentType":5126,
			"count":4,
			"type":"VEC4"
		},
		{
			"bufferView":64,
			"componentType":5126,
			"count":4,
			"max":[
				0.5,
				0,
				0.5
			],
			"min":[
				-0.5,
				0,
				-0.5
			],
			"type":"VEC3"
		},
		{
			"bufferView":65,
			"componentType":5126,
			"count":4,
			"type":"VEC3"
		},
		{
			"bufferView":66,
			"componentType":5126,
			"count":4,
			"type":"VEC2"
		},
		{
			"bufferView":67,
			"componentType":5126,
			"count":4,
			"type":"VEC4"
		},
		{
			"bufferView":68,
			"componentType":5126,
			"count":4,
			"max":[
				0.5,
				0,
				0.5
			],
			"min":[
				-0.5,
				0,
				-0.5
			],
			"type":"VEC3"
		},
		{
			"bufferView":69,
			"componentType":5126,
			"count":4,
			"type":"VEC3"
		},
		{
			"bufferView":70,
			"componentType":5126,
			"count":4,
			"type":"VEC2"
		},
		{
			"bufferView":71,
			"componentType":5126,
			"count":4,
			"type":"VEC4"
		},
		{
			"bufferView":72,
			"componentType":5126,
			"count":4,
			"max":[
				0.5,
				0,
				0.5
			],
			"min":[
				-0.5,
				0,
				-0.5
			],
			"type":"VEC3"
		},
		{
			"bufferView":73,
			"componentType":5126,
			"count":4,
			"type":"VEC3"
		},
		{
			"bufferView":74,
			"componentType":5126,
			"count":4,
			"type":"VEC2"
		},
		{
			"bufferView":75,
			"componentType":5126,
			"count":4,
			"type":"VEC4"
		},
		{
			"bufferView":76,
			"componentType":5126,
			"count":4,
			"max":[
				0.5,
				0,
				0.5
			],
			"min":[
				-0.5,
				0,
				-0.5
			],
			"type":"VEC3"
		},
		{
			"bufferView":77,
			"componentType":5126,
			"count":4,
			"type":"VEC3"
		},
		{
			"bufferView":78,
			"componentType":5126,
			"count":4,
			"type":"VEC2"
		},
		{
			"bufferView":79,
			"componentType":5126,
			"count":4,
			"type":"VEC4"
		},
		{
			"bufferView":80,
			"componentType":5126,
			"count":4,
			"max":[
				0.5,
				0,
				0.5
			],
			"min":[
				-0.5,
				0,
				-0.5
			],
			"type":"VEC3"
		},
		{
			"bufferView":81,
			"componentType":5126,
			"count":4,
			"type":"VEC3"
		},
		{
			"bufferView":82,
			"componentType":5126,
			"count":4,
			"type":"VEC2"
		},
		{
			"bufferView":83,
			"componentType":5126,
			"count":4,
			"type":"VEC4"
		},
		{
			"bufferView":84,
			"componentType":5126,
			"count":4,
			"max":[
				0.5,
				0,
				0.5
			],
			"min":[
				-0.5,
				0,
				-0.5
			],
			"type":"VEC3"
		},
		{
			"bufferView":85,
			"componentType":5126,
			"count":4,
			"type":"VEC3"
		},
		{
			"bufferView":86,
			"componentType":5126,
			"count":4,
			"type":"VEC2"
		},
		{
			"bufferView":87,
			"componentType":5126,
			"count":4,
			"type":"VEC4"
		},
		{
			"bufferView":88,
			"componentType":5126,
			"count":4,
			"max":[
				0.5,
				0,
				0.5
			],
			"min":[
				-0.5,
				0,
				-0.5
			],
			"type":"VEC3"
		},
		{
			"bufferView":89,
			"componentType":5126,
			"count":4,
			"type":"VEC3"
		},
		{
			"bufferView":90,
			"componentType":5126,
			"count":4,
			"type":"VEC2"
		},
		{
			"bufferView":91,
			"componentType":5126,
			"count":4,
			"type":"VEC4"
		},
		{
			"bufferView":92,
			"componentType":5126,
			"count":4,
			"max":[
				0.5,
				0,
				0.5
			],
			"min":[
				-0.5,
				0,
				-0.5
			],
			"type":"VEC3"
		},
		{
			"bufferView":93,
			"componentType":5126,
			"count":4,
			"type":"VEC3"
		},
		{
			"bufferView":94,
			"componentType":5126,
			"count":4,
			"type":"VEC2"
		},
		{
			"bufferView":95,
			"componentType":5126,
			"count":4,
			"type":"VEC4"
		},
		{
			"bufferView":96,
			"componentType":5126,
			"count":4,
			"max":[
				0.5,
				0,
				0.4999997615814209
			],
			"min":[
				-0.5,
				0,
				-0.5
			],
			"type":"VEC3"
		},
		{
			"bufferView":97,
			"componentType":5126,
			"count":4,
			"type":"VEC3"
		},
		{
			"bufferView":98,
			"componentType":5126,
			"count":4,
			"type":"VEC2"
		},
		{
			"bufferView":99,
			"componentType":5126,
			"count":4,
			"type":"VEC4"
		},
		{
			"bufferView":100,
			"componentType":5126,
			"count":4,
			"max":[
				0.5,
				0,
				0.4999997615814209
			],
			"min":[
				-0.5,
				0,
				-0.5
			],
			"type":"VEC3"
		},
		{
			"bufferView":101,
			"componentType":5126,
			"count":4,
			"type":"VEC3"
		},
		{
			"bufferView":102,
			"componentType":5126,
			"count":4,
			"type":"VEC2"
		},
		{
			"bufferView":103,
			"componentType":5126,
			"count":4,
			"type":"VEC4"
		},
		{
			"bufferView":104,
			"componentType":5126,
			"count":4,
			"max":[
				0.5,
				0,
				0.4999997615814209
			],
			"min":[
				-0.5,
				0,
				-0.5
			],
			"type":"VEC3"
		},
		{
			"bufferView":105,
			"componentType":5126,
			"count":4,
			"type":"VEC3"
		},
		{
			"bufferView":106,
			"componentType":5126,
			"count":4,
			"type":"VEC2"
		},
		{
			"bufferView":107,
			"componentType":5126,
			"count":4,
			"type":"VEC4"
		}
	],
	"bufferViews":[
		{
			"buffer":0,
			"byteLength":4608,
			"byteOffset":0,
			"target":34962
		},
		{
			"buffer":0,
			"byteLength":4608,
			"byteOffset":4608,
			"target":34962
		},
		{
			"buffer":0,
			"byteLength":3072,
			"byteOffset":9216,
			"target":34962
		},
		{
			"buffer":0,
			"byteLength":6144,
			"byteOffset":12288,
			"target":34962
		},
		{
			"buffer":0,
			"byteLength":1128,
			"byteOffset":18432,
			"target":34963
		},
		{
			"buffer":0,
			"byteLength":4608,
			"byteOffset":19560,
			"target":34962
		},
		{
			"buffer":0,
			"byteLength":4608,
			"byteOffset":24168,
			"target":34962
		},
		{
			"buffer":0,
			"byteLength":3072,
			"byteOffset":28776,
			"target":34962
		},
		{
			"buffer":0,
			"byteLength":6144,
			"byteOffset":31848,
			"target":34962
		},
		{
			"buffer":0,
			"byteLength":900,
			"byteOffset":37992,
			"target":34962
		},
		{
			"buffer":0,
			"byteLength":900,
			"byteOffset":38892,
			"target":34962
		},
		{
			"buffer":0,
			"byteLength":600,
			"byteOffset":39792,
			"target":34962
		},
		{
			"buffer":0,
			"byteLength":1200,
			"byteOffset":40392,
			"target":34962
		},
		{
			"buffer":0,
			"byteLength":222,
			"byteOffset":41592,
			"target":34963
		},
		{
			"buffer":0,
			"byteLength":240,
			"byteOffset":41816,
			"target":34962
		},
		{
			"buffer":0,
			"byteLength":240,
			"byteOffset":42056,
			"target":34962
		},
		{
			"buffer":0,
			"byteLength":160,
			"byteOffset":42296,
			"target":34962
		},
		{
			"buffer":0,
			"byteLength":320,
			"byteOffset":42456,
			"target":34962
		},
		{
			"buffer":0,
			"byteLength":60,
			"byteOffset":42776,
			"target":34963
		},
		{
			"buffer":0,
			"byteLength":48,
			"byteOffset":42836,
			"target":34962
		},
		{
			"buffer":0,
			"byteLength":48,
			"byteOffset":42884,
			"target":34962
		},
		{
			"buffer":0,
			"byteLength":32,
			"byteOffset":42932,
			"target":34962
		},
		{
			"buffer":0,
			"byteLength":64,
			"byteOffset":42964,
			"target":34962
		},
		{
			"buffer":0,
			"byteLength":12,
			"byteOffset":43028,
			"target":34963
		},
		{
			"buffer":0,
			"byteLength":900,
			"byteOffset":43040,
			"target":34962
		},
		{
			"buffer":0,
			"byteLength":900,
			"byteOffset":43940,
			"target":34962
		},
		{
			"buffer":0,
			"byteLength":600,
			"byteOffset":44840,
			"target":34962
		},
		{
			"buffer":0,
			"byteLength":1200,
			"byteOffset":45440,
			"target":34962
		},
		{
			"buffer":0,
			"byteLength":240,
			"byteOffset":46640,
			"target":34962
		},
		{
			"buffer":0,
			"byteLength":240,
			"byteOffset":46880,
			"target":34962
		},
		{
			"buffer":0,
			"byteLength":160,
			"byteOffset":47120,
			"target":34962
		},
		{
			"buffer":0,
			"byteLength":320,
			"byteOffset":47280,
			"target":34962
		},
		{
			"buffer":0,
			"byteLength":48,
			"byteOffset":47600,
			"target":34962
		},
		{
			"buffer":0,
			"byteLength":48,
			"byteOffset":47648,
			"target":34962
		},
		{
			"buffer":0,
			"byteLength":32,
			"byteOffset":47696,
			"target":34962
		},
		{
			"buffer":0,
			"byteLength":64,
			"byteOffset":47728,
			"target":34962
		},
		{
			"buffer":0,
			"byteLength":48,
			"byteOffset":47792,
			"target":34962
		},
		{
			"buffer":0,
			"byteLength":48,
			"byteOffset":47840,
			"target":34962
		},
		{
			"buffer":0,
			"byteLength":32,
			"byteOffset":47888,
			"target":34962
		},
		{
			"buffer":0,
			"byteLength":64,
			"byteOffset":47920,
			"target":34962
		},
		{
			"buffer":0,
			"byteLength":48,
			"byteOffset":47984,
			"target":34962
		},
		{
			"buffer":0,
			"byteLength":48,
			"byteOffset":48032,
			"target":34962
		},
		{
			"buffer":0,
			"byteLength":32,
			"byteOffset":48080,
			"target":34962
		},
		{
			"buffer":0,
			"byteLength":64,
			"byteOffset":48112,
			"target":34962
		},
		{
			"buffer":0,
			"byteLength":48,
			"byteOffset":48176,
			"target":34962
		},
		{
			"buffer":0,
			"byteLength":48,
			"byteOffset":48224,
			"target":34962
		},
		{
			"buffer":0,
			"byteLength":32,
			"byteOffset":48272,
			"target":34962
		},
		{
			"buffer":0,
			"byteLength":64,
			"byteOffset":48304,
			"target":34962
		},
		{
			"buffer":0,
			"byteLength":48,
			"byteOffset":48368,
			"target":34962
		},
		{
			"buffer":0,
			"byteLength":48,
			"byteOffset":48416,
			"target":34962
		},
		{
			"buffer":0,
			"byteLength":32,
			"byteOffset":48464,
			"target":34962
		},
		{
			"buffer":0,
			"byteLength":64,
			"byteOffset":48496,
			"target":34962
		},
		{
			"buffer":0,
			"byteLength":48,
			"byteOffset":48560,
			"target":34962
		},
		{
			"buffer":0,
			"byteLength":48,
			"byteOffset":48608,
			"target":34962
		},
		{
			"buffer":0,
			"byteLength":32,
			"byteOffset":48656,
			"target":34962
		},
		{
			"buffer":0,
			"byteLength":64,
			"byteOffset":48688,
			"target":34962
		},
		{
			"buffer":0,
			"byteLength":48,
			"byteOffset":48752,
			"target":34962
		},
		{
			"buffer":0,
			"byteLength":48,
			"byteOffset":48800,
			"target":34962
		},
		{
			"buffer":0,
			"byteLength":32,
			"byteOffset":48848,
			"target":34962
		},
		{
			"buffer":0,
			"byteLength":64,
			"byteOffset":48880,
			"target":34962
		},
		{
			"buffer":0,
			"byteLength":48,
			"byteOffset":48944,
			"target":34962
		},
		{
			"buffer":0,
			"byteLength":48,
			"byteOffset":48992,
			"target":34962
		},
		{
			"buffer":0,
			"byteLength":32,
			"byteOffset":49040,
			"target":34962
		},
		{
			"buffer":0,
			"byteLength":64,
			"byteOffset":49072,
			"target":34962
		},
		{
			"buffer":0,
			"byteLength":48,
			"byteOffset":49136,
			"target":34962
		},
		{
			"buffer":0,
			"byteLength":48,
			"byteOffset":49184,
			"target":34962
		},
		{
			"buffer":0,
			"byteLength":32,
			"byteOffset":49232,
			"target":34962
		},
		{
			"buffer":0,
			"byteLength":64,
			"byteOffset":49264,
			"target":34962
		},
		{
			"buffer":0,
			"byteLength":48,
			"byteOffset":49328,
			"target":34962
		},
		{
			"buffer":0,
			"byteLength":48,
			"byteOffset":49376,
			"target":34962
		},
		{
			"buffer":0,
			"byteLength":32,
			"byteOffset":49424,
			"target":34962
		},
		{
			"buffer":0,
			"byteLength":64,
			"byteOffset":49456,
			"target":34962
		},
		{
			"buffer":0,
			"byteLength":48,
			"byteOffset":49520,
			"target":34962
		},
		{
			"buffer":0,
			"byteLength":48,
			"byteOffset":49568,
			"target":34962
		},
		{
			"buffer":0,
			"byteLength":32,
			"byteOffset":49616,
			"target":34962
		},
		{
			"buffer":0,
			"byteLength":64,
			"byteOffset":49648,
			"target":34962
		},
		{
			"buffer":0,
			"byteLength":48,
			"byteOffset":49712,
			"target":34962
		},
		{
			"buffer":0,
			"byteLength":48,
			"byteOffset":49760,
			"target":34962
		},
		{
			"buffer":0,
			"byteLength":32,
			"byteOffset":49808,
			"target":34962
		},
		{
			"buffer":0,
			"byteLength":64,
			"byteOffset":49840,
			"target":34962
		},
		{
			"buffer":0,
			"byteLength":48,
			"byteOffset":49904,
			"target":34962
		},
		{
			"buffer":0,
			"byteLength":48,
			"byteOffset":49952,
			"target":34962
		},
		{
			"buffer":0,
			"byteLength":32,
			"byteOffset":50000,
			"target":34962
		},
		{
			"buffer":0,
			"byteLength":64,
			"byteOffset":50032,
			"target":34962
		},
		{
			"buffer":0,
			"byteLength":48,
			"byteOffset":50096,
			"target":34962
		},
		{
			"buffer":0,
			"byteLength":48,
			"byteOffset":50144,
			"target":34962
		},
		{
			"buffer":0,
			"byteLength":32,
			"byteOffset":50192,
			"target":34962
		},
		{
			"buffer":0,
			"byteLength":64,
			"byteOffset":50224,
			"target":34962
		},
		{
			"buffer":0,
			"byteLength":48,
			"byteOffset":50288,
			"target":34962
		},
		{
			"buffer":0,
			"byteLength":48,
			"byteOffset":50336,
			"target":34962
		},
		{
			"buffer":0,
			"byteLength":32,
			"byteOffset":50384,
			"target":34962
		},
		{
			"buffer":0,
			"byteLength":64,
			"byteOffset":50416,
			"target":34962
		},
		{
			"buffer":0,
			"byteLength":48,
			"byteOffset":50480,
			"target":34962
		},
		{
			"buffer":0,
			"byteLength":48,
			"byteOffset":50528,
			"target":34962
		},
		{
			"buffer":0,
			"byteLength":32,
			"byteOffset":50576,
			"target":34962
		},
		{
			"buffer":0,
			"byteLength":64,
			"byteOffset":50608,
			"target":34962
		},
		{
			"buffer":0,
			"byteLength":48,
			"byteOffset":50672,
			"target":34962
		},
		{
			"buffer":0,
			"byteLength":48,
			"byteOffset":50720,
			"target":34962
		},
		{
			"buffer":0,
			"byteLength":32,
			"byteOffset":50768,
			"target":34962
		},
		{
			"buffer":0,
			"byteLength":64,
			"byteOffset":50800,
			"target":34962
		},
		{
			"buffer":0,
			"byteLength":48,
			"byteOffset":50864,
			"target":34962
		},
		{
			"buffer":0,
			"byteLength":48,
			"byteOffset":50912,
			"target":34962
		},
		{
			"buffer":0,
			"byteLength":32,
			"byteOffset":50960,
			"target":34962
		},
		{
			"buffer":0,
			"byteLength":64,
			"byteOffset":50992,
			"target":34962
		},
		{
			"buffer":0,
			"byteLength":48,
			"byteOffset":51056,
			"target":34962
		},
		{
			"buffer":0,
			"byteLength":48,
			"byteOffset":51104,
			"target":34962
		},
		{
			"buffer":0,
			"byteLength":32,
			"byteOffset":51152,
			"target":34962
		},
		{
			"buffer":0,
			"byteLength":64,
			"byteOffset":51184,
			"target":34962
		}
	],
	"samplers":[
		{
			"magFilter":9728,
			"minFilter":9984
		}
	],
	"buffers":[
		{
			"byteLength":51248,
			"uri":"TerrainMeshesUpdated-aa67ac78200e79d517a8fe543875958e.bin"
		}
	]
}
