{
	"asset":{
		"generator":"Khronos glTF Blender I/O v5.1.20",
		"version":"2.0"
	},
	"extensionsUsed":[
		"KHR_materials_specular"
	],
	"scene":0,
	"scenes":[
		{
			"name":"Scene",
			"nodes":[
				0,
				1,
				2,
				3,
				4,
				5,
				6,
				7,
				8,
				9,
				10,
				11,
				12,
				13,
				14,
				15,
				16,
				17,
				18,
				19,
				20,
				21,
				22,
				23,
				24,
				25,
				26,
				27,
				28,
				29,
				30,
				31,
				32,
				33,
				34,
				35,
				36,
				37,
				38,
				39,
				40,
				41,
				42,
				43,
				44,
				45,
				46,
				47,
				48,
				49,
				50,
				51,
				52,
				53,
				54,
				55,
				56,
				57,
				58,
				59,
				60,
				61,
				62,
				63,
				64,
				65,
				66,
				67,
				68,
				69,
				70,
				71,
				72,
				73,
				74,
				75,
				76,
				77,
				78,
				79,
				80,
				81,
				82,
				83,
				84,
				85,
				86
			]
		}
	],
	"nodes":[
		{
			"mesh":0,
			"name":"cube-col"
		},
		{
			"mesh":1,
			"name":"cube_half-col",
			"translation":[
				-0.020236101001501083,
				0,
				-4.040538787841797
			]
		},
		{
			"mesh":2,
			"name":"cube-corner-left-col",
			"translation":[
				1.8749357461929321,
				0,
				0
			]
		},
		{
			"mesh":3,
			"name":"cube-side-col",
			"translation":[
				3.4374961853027344,
				0,
				0
			]
		},
		{
			"mesh":4,
			"name":"cube-top-col",
			"translation":[
				5.052486896514893,
				0,
				0
			]
		},
		{
			"mesh":5,
			"name":"cube_half-corner-col",
			"translation":[
				1.854665994644165,
				0,
				-4.040538787841797
			]
		},
		{
			"mesh":6,
			"name":"cube_half-side-col",
			"translation":[
				3.489078998565674,
				0,
				-4.040538787841797
			]
		},
		{
			"mesh":7,
			"name":"cube_half-top-col",
			"translation":[
				5.242995262145996,
				0,
				-4.040538787841797
			]
		},
		{
			"mesh":8,
			"name":"cube_half-top-col.001",
			"translation":[
				7.214123725891113,
				0,
				-4.040538787841797
			]
		},
		{
			"mesh":9,
			"name":"cube_half-top-col.002",
			"translation":[
				7.214123725891113,
				0,
				-5.335154056549072
			]
		},
		{
			"mesh":10,
			"name":"cube_half-top-col.003",
			"translation":[
				7.214123725891113,
				0,
				-6.569460391998291
			]
		},
		{
			"mesh":11,
			"name":"cube_half-top-col.004",
			"translation":[
				8.494222640991211,
				0,
				-4.040538787841797
			]
		},
		{
			"mesh":12,
			"name":"cube_half-top-col.005",
			"translation":[
				8.494222640991211,
				0,
				-5.335154056549072
			]
		},
		{
			"mesh":13,
			"name":"cube_half-top-col.006",
			"translation":[
				8.494222640991211,
				0,
				-6.569460391998291
			]
		},
		{
			"mesh":14,
			"name":"cube_half-top-col.007",
			"translation":[
				9.761913299560547,
				0,
				-4.040538787841797
			]
		},
		{
			"mesh":15,
			"name":"cube_half-top-col.008",
			"translation":[
				9.761913299560547,
				0,
				-5.335154056549072
			]
		},
		{
			"mesh":16,
			"name":"cube_half-top-col.009",
			"translation":[
				9.761913299560547,
				0,
				-6.569460391998291
			]
		},
		{
			"mesh":17,
			"name":"cube_half-top-col.010",
			"translation":[
				11.294530868530273,
				0,
				-4.040538787841797
			]
		},
		{
			"mesh":18,
			"name":"cube_half-top-col.011",
			"translation":[
				11.294530868530273,
				0,
				-5.335154056549072
			]
		},
		{
			"mesh":19,
			"name":"cube_half-top-col.012",
			"translation":[
				11.294530868530273,
				0,
				-6.569460391998291
			]
		},
		{
			"mesh":20,
			"name":"cube_half-top-col.013",
			"translation":[
				12.574629783630371,
				0,
				-4.040538787841797
			]
		},
		{
			"mesh":21,
			"name":"cube_half-top-col.014",
			"translation":[
				12.574629783630371,
				0,
				-5.335154056549072
			]
		},
		{
			"mesh":22,
			"name":"cube_half-top-col.015",
			"translation":[
				12.574629783630371,
				0,
				-6.569460391998291
			]
		},
		{
			"mesh":23,
			"name":"cube_half-top-col.016",
			"translation":[
				13.842320442199707,
				0,
				-4.040538787841797
			]
		},
		{
			"mesh":24,
			"name":"cube_half-top-col.017",
			"translation":[
				13.842320442199707,
				0,
				-5.335154056549072
			]
		},
		{
			"mesh":25,
			"name":"cube_half-top-col.018",
			"translation":[
				13.842320442199707,
				0,
				-6.569460391998291
			]
		},
		{
			"mesh":26,
			"name":"cube-top-col.001",
			"translation":[
				7.228087425231934,
				0,
				0.4529247283935547
			]
		},
		{
			"mesh":27,
			"name":"cube-top-col.002",
			"translation":[
				7.228087425231934,
				0,
				-0.7744041681289673
			]
		},
		{
			"mesh":28,
			"name":"cube-top-col.003",
			"translation":[
				7.228087425231934,
				0,
				-2.0422444343566895
			]
		},
		{
			"mesh":29,
			"name":"cube-top-col.004",
			"translation":[
				8.49627685546875,
				0,
				0.4529247283935547
			]
		},
		{
			"mesh":30,
			"name":"cube-top-col.005",
			"translation":[
				8.49627685546875,
				0,
				-0.7744041681289673
			]
		},
		{
			"mesh":31,
			"name":"cube-top-col.006",
			"translation":[
				8.49627685546875,
				0,
				-2.0422444343566895
			]
		},
		{
			"mesh":32,
			"name":"cube-top-col.007",
			"translation":[
				9.673881530761719,
				0,
				0.4529247283935547
			]
		},
		{
			"mesh":33,
			"name":"cube-top-col.008",
			"translation":[
				9.673881530761719,
				0,
				-0.7744041681289673
			]
		},
		{
			"mesh":34,
			"name":"cube-top-col.009",
			"translation":[
				9.673881530761719,
				0,
				-2.0422444343566895
			]
		},
		{
			"mesh":35,
			"name":"cube-top-col.010",
			"translation":[
				11.325366020202637,
				0,
				0.4529247283935547
			]
		},
		{
			"mesh":36,
			"name":"cube-top-col.011",
			"translation":[
				11.325366020202637,
				0,
				-0.7744041681289673
			]
		},
		{
			"mesh":37,
			"name":"cube-top-col.012",
			"translation":[
				11.325366020202637,
				0,
				-2.0422444343566895
			]
		},
		{
			"mesh":38,
			"name":"cube-top-col.013",
			"translation":[
				12.593555450439453,
				0,
				0.4529247283935547
			]
		},
		{
			"mesh":39,
			"name":"cube-top-col.014",
			"translation":[
				12.593555450439453,
				0,
				-0.7744041681289673
			]
		},
		{
			"mesh":40,
			"name":"cube-top-col.015",
			"translation":[
				12.593555450439453,
				0,
				-2.0422444343566895
			]
		},
		{
			"mesh":41,
			"name":"cube-top-col.016",
			"translation":[
				13.771160125732422,
				0,
				0.4529247283935547
			]
		},
		{
			"mesh":42,
			"name":"cube-top-col.017",
			"translation":[
				13.771160125732422,
				0,
				-0.7744041681289673
			]
		},
		{
			"mesh":43,
			"name":"cube-top-col.018",
			"translation":[
				13.771160125732422,
				0,
				-2.0422444343566895
			]
		},
		{
			"mesh":44,
			"name":"cube-col.001",
			"translation":[
				0,
				0,
				2.5632519721984863
			]
		},
		{
			"mesh":45,
			"name":"cube-col.002",
			"translation":[
				1.877771019935608,
				0,
				2.5632519721984863
			]
		},
		{
			"mesh":46,
			"name":"cube-col.003",
			"translation":[
				3.4400272369384766,
				0,
				2.5632519721984863
			]
		},
		{
			"mesh":47,
			"name":"cube-col.004",
			"translation":[
				0,
				0,
				2.5632519721984863
			]
		},
		{
			"mesh":48,
			"name":"cube-col.007",
			"translation":[
				0,
				0,
				5.041492462158203
			]
		},
		{
			"mesh":49,
			"name":"cube-col.005",
			"translation":[
				1.8950974941253662,
				0,
				5.041492462158203
			]
		},
		{
			"mesh":50,
			"name":"cube-col.006",
			"translation":[
				3.430283546447754,
				0,
				5.041492462158203
			]
		},
		{
			"mesh":51,
			"name":"cube-top-col.019",
			"translation":[
				7.228087425231934,
				0,
				2.601982593536377
			]
		},
		{
			"mesh":52,
			"name":"cube-top-col.020",
			"translation":[
				8.49627685546875,
				0,
				2.601982593536377
			]
		},
		{
			"mesh":53,
			"name":"cube-top-col.021",
			"translation":[
				9.673881530761719,
				0,
				2.601982593536377
			]
		},
		{
			"mesh":54,
			"name":"cube-top-col.022",
			"translation":[
				7.228087425231934,
				0,
				4.088993072509766
			]
		},
		{
			"mesh":55,
			"name":"cube-top-col.023",
			"translation":[
				8.49627685546875,
				0,
				4.088993072509766
			]
		},
		{
			"mesh":56,
			"name":"cube-col.008",
			"translation":[
				-0.07341337203979492,
				0,
				7.027760028839111
			]
		},
		{
			"mesh":57,
			"name":"cube-col.009",
			"translation":[
				1.9141292572021484,
				0,
				7.027760028839111
			]
		},
		{
			"mesh":58,
			"name":"cube-col.010",
			"translation":[
				3.5027527809143066,
				0,
				7.027760028839111
			]
		},
		{
			"mesh":59,
			"name":"cube-top-col.024",
			"translation":[
				9.698041915893555,
				0,
				4.088993072509766
			]
		},
		{
			"mesh":60,
			"name":"cube-top-col.025",
			"translation":[
				8.49627685546875,
				0,
				1.5292903184890747
			]
		},
		{
			"mesh":61,
			"name":"cube-col.011",
			"translation":[
				-0.07341337203979492,
				0,
				8.763483047485352
			]
		},
		{
			"mesh":62,
			"name":"cube-col.012",
			"translation":[
				1.9328744411468506,
				0,
				8.763483047485352
			]
		},
		{
			"mesh":63,
			"name":"cube-col.013",
			"translation":[
				3.495819091796875,
				0,
				8.763483047485352
			]
		},
		{
			"mesh":64,
			"name":"cube_half-top-col.019",
			"translation":[
				7.214123725891113,
				0,
				-7.782493591308594
			]
		},
		{
			"mesh":65,
			"name":"cube_half-top-col.020",
			"translation":[
				8.494222640991211,
				0,
				-7.782493591308594
			]
		},
		{
			"mesh":66,
			"name":"cube_half-top-col.021",
			"translation":[
				9.761913299560547,
				0,
				-7.782493591308594
			]
		},
		{
			"mesh":67,
			"name":"cube_half-top-col.022",
			"translation":[
				7.214123725891113,
				0,
				-8.999634742736816
			]
		},
		{
			"mesh":68,
			"name":"cube_half-top-col.023",
			"translation":[
				8.494222640991211,
				0,
				-8.999634742736816
			]
		},
		{
			"mesh":69,
			"name":"cube_half-top-col.024",
			"translation":[
				9.761913299560547,
				0,
				-8.999634742736816
			]
		},
		{
			"mesh":70,
			"name":"cube_half-top-col.025",
			"translation":[
				8.494222640991211,
				0,
				-10.376407623291016
			]
		},
		{
			"mesh":71,
			"name":"cube_half-top-col.026",
			"translation":[
				9.743731498718262,
				0,
				-10.376407623291016
			]
		},
		{
			"mesh":72,
			"name":"cube-top-col.026",
			"translation":[
				9.6444091796875,
				0,
				1.5292903184890747
			]
		},
		{
			"mesh":73,
			"name":"cube-col.014",
			"translation":[
				-1.4397674798965454,
				0,
				0
			]
		},
		{
			"mesh":74,
			"name":"cube-col.015",
			"translation":[
				-1.4079668521881104,
				0,
				2.5632519721984863
			]
		},
		{
			"mesh":75,
			"name":"cube-col.016",
			"translation":[
				-1.5339059829711914,
				0,
				5.041492462158203
			]
		},
		{
			"mesh":76,
			"name":"cube-col.017",
			"translation":[
				-1.6486527919769287,
				0,
				7.027760028839111
			]
		},
		{
			"mesh":77,
			"name":"cube-col.018",
			"translation":[
				-1.6627626419067383,
				0,
				8.763483047485352
			]
		},
		{
			"mesh":78,
			"name":"cube-col.019",
			"translation":[
				-2.88446044921875,
				0,
				0
			]
		},
		{
			"mesh":79,
			"name":"cube-col.020",
			"translation":[
				-2.9195847511291504,
				0,
				2.5632519721984863
			]
		},
		{
			"mesh":80,
			"name":"cube-col.021",
			"translation":[
				-2.9680583477020264,
				0,
				5.041492462158203
			]
		},
		{
			"mesh":81,
			"name":"cube-col.022",
			"translation":[
				-2.9930572509765625,
				0,
				7.027760028839111
			]
		},
		{
			"mesh":82,
			"name":"cube-col.023",
			"translation":[
				-2.9453673362731934,
				0,
				8.763483047485352
			]
		},
		{
			"mesh":83,
			"name":"cube_half-col.001",
			"translation":[
				-1.4909130334854126,
				0,
				-4.040538787841797
			]
		},
		{
			"mesh":84,
			"name":"cube_half-col.002",
			"translation":[
				-3.1719717979431152,
				0,
				-4.040538787841797
			]
		},
		{
			"mesh":85,
			"name":"cube-col.024",
			"translation":[
				-1.4397674798965454,
				0,
				-1.2518528699874878
			]
		},
		{
			"mesh":86,
			"name":"cube_half-col.003",
			"translation":[
				-1.4909130334854126,
				0,
				-5.420295715332031
			]
		}
	],
	"materials":[
		{
			"doubleSided":true,
			"extensions":{
				"KHR_materials_specular":{
					"specularFactor":0
				}
			},
			"name":"Material.001",
			"pbrMetallicRoughness":{
				"baseColorTexture":{
					"index":0
				},
				"metallicFactor":0
			}
		}
	],
	"meshes":[
		{
			"name":"Cube.001",
			"primitives":[
				{
					"attributes":{
						"POSITION":0,
						"NORMAL":1,
						"TEXCOORD_0":2,
						"TANGENT":3
					},
					"indices":4,
					"material":0
				}
			]
		},
		{
			"name":"Cube.002",
			"primitives":[
				{
					"attributes":{
						"POSITION":5,
						"NORMAL":6,
						"TEXCOORD_0":7,
						"TANGENT":8
					},
					"indices":4,
					"material":0
				}
			]
		},
		{
			"name":"Cube.003",
			"primitives":[
				{
					"attributes":{
						"POSITION":9,
						"NORMAL":10,
						"TEXCOORD_0":11,
						"TANGENT":12
					},
					"indices":13,
					"material":0
				}
			]
		},
		{
			"name":"Cube.004",
			"primitives":[
				{
					"attributes":{
						"POSITION":14,
						"NORMAL":15,
						"TEXCOORD_0":16,
						"TANGENT":17
					},
					"indices":18,
					"material":0
				}
			]
		},
		{
			"name":"Cube.005",
			"primitives":[
				{
					"attributes":{
						"POSITION":19,
						"NORMAL":20,
						"TEXCOORD_0":21,
						"TANGENT":22
					},
					"indices":23,
					"material":0
				}
			]
		},
		{
			"name":"Cube.006",
			"primitives":[
				{
					"attributes":{
						"POSITION":24,
						"NORMAL":25,
						"TEXCOORD_0":26,
						"TANGENT":27
					},
					"indices":13,
					"material":0
				}
			]
		},
		{
			"name":"Cube.007",
			"primitives":[
				{
					"attributes":{
						"POSITION":28,
						"NORMAL":29,
						"TEXCOORD_0":30,
						"TANGENT":31
					},
					"indices":18,
					"material":0
				}
			]
		},
		{
			"name":"Cube.008",
			"primitives":[
				{
					"attributes":{
						"POSITION":32,
						"NORMAL":33,
						"TEXCOORD_0":34,
						"TANGENT":35
					},
					"indices":23,
					"material":0
				}
			]
		},
		{
			"name":"Cube.009",
			"primitives":[
				{
					"attributes":{
						"POSITION":36,
						"NORMAL":37,
						"TEXCOORD_0":38,
						"TANGENT":39
					},
					"indices":23,
					"material":0
				}
			]
		},
		{
			"name":"Cube.010",
			"primitives":[
				{
					"attributes":{
						"POSITION":40,
						"NORMAL":41,
						"TEXCOORD_0":42,
						"TANGENT":43
					},
					"indices":23,
					"material":0
				}
			]
		},
		{
			"name":"Cube.011",
			"primitives":[
				{
					"attributes":{
						"POSITION":44,
						"NORMAL":45,
						"TEXCOORD_0":46,
						"TANGENT":47
					},
					"indices":23,
					"material":0
				}
			]
		},
		{
			"name":"Cube.012",
			"primitives":[
				{
					"attributes":{
						"POSITION":48,
						"NORMAL":49,
						"TEXCOORD_0":50,
						"TANGENT":51
					},
					"indices":23,
					"material":0
				}
			]
		},
		{
			"name":"Cube.013",
			"primitives":[
				{
					"attributes":{
						"POSITION":52,
						"NORMAL":53,
						"TEXCOORD_0":54,
						"TANGENT":55
					},
					"indices":23,
					"material":0
				}
			]
		},
		{
			"name":"Cube.014",
			"primitives":[
				{
					"attributes":{
						"POSITION":56,
						"NORMAL":57,
						"TEXCOORD_0":58,
						"TANGENT":59
					},
					"indices":23,
					"material":0
				}
			]
		},
		{
			"name":"Cube.015",
			"primitives":[
				{
					"attributes":{
						"POSITION":60,
						"NORMAL":61,
						"TEXCOORD_0":62,
						"TANGENT":63
					},
					"indices":23,
					"material":0
				}
			]
		},
		{
			"name":"Cube.016",
			"primitives":[
				{
					"attributes":{
						"POSITION":64,
						"NORMAL":65,
						"TEXCOORD_0":66,
						"TANGENT":67
					},
					"indices":23,
					"material":0
				}
			]
		},
		{
			"name":"Cube.017",
			"primitives":[
				{
					"attributes":{
						"POSITION":68,
						"NORMAL":69,
						"TEXCOORD_0":70,
						"TANGENT":71
					},
					"indices":23,
					"material":0
				}
			]
		},
		{
			"name":"Cube.018",
			"primitives":[
				{
					"attributes":{
						"POSITION":72,
						"NORMAL":73,
						"TEXCOORD_0":74,
						"TANGENT":75
					},
					"indices":23,
					"material":0
				}
			]
		},
		{
			"name":"Cube.019",
			"primitives":[
				{
					"attributes":{
						"POSITION":76,
						"NORMAL":77,
						"TEXCOORD_0":78,
						"TANGENT":79
					},
					"indices":23,
					"material":0
				}
			]
		},
		{
			"name":"Cube.020",
			"primitives":[
				{
					"attributes":{
						"POSITION":80,
						"NORMAL":81,
						"TEXCOORD_0":82,
						"TANGENT":83
					},
					"indices":23,
					"material":0
				}
			]
		},
		{
			"name":"Cube.021",
			"primitives":[
				{
					"attributes":{
						"POSITION":84,
						"NORMAL":85,
						"TEXCOORD_0":86,
						"TANGENT":87
					},
					"indices":23,
					"material":0
				}
			]
		},
		{
			"name":"Cube.022",
			"primitives":[
				{
					"attributes":{
						"POSITION":88,
						"NORMAL":89,
						"TEXCOORD_0":90,
						"TANGENT":91
					},
					"indices":23,
					"material":0
				}
			]
		},
		{
			"name":"Cube.023",
			"primitives":[
				{
					"attributes":{
						"POSITION":92,
						"NORMAL":93,
						"TEXCOORD_0":94,
						"TANGENT":95
					},
					"indices":23,
					"material":0
				}
			]
		},
		{
			"name":"Cube.024",
			"primitives":[
				{
					"attributes":{
						"POSITION":96,
						"NORMAL":97,
						"TEXCOORD_0":98,
						"TANGENT":99
					},
					"indices":23,
					"material":0
				}
			]
		},
		{
			"name":"Cube.025",
			"primitives":[
				{
					"attributes":{
						"POSITION":100,
						"NORMAL":101,
						"TEXCOORD_0":102,
						"TANGENT":103
					},
					"indices":23,
					"material":0
				}
			]
		},
		{
			"name":"Cube.026",
			"primitives":[
				{
					"attributes":{
						"POSITION":104,
						"NORMAL":105,
						"TEXCOORD_0":106,
						"TANGENT":107
					},
					"indices":23,
					"material":0
				}
			]
		},
		{
			"name":"Cube.027",
			"primitives":[
				{
					"attributes":{
						"POSITION":108,
						"NORMAL":109,
						"TEXCOORD_0":110,
						"TANGENT":111
					},
					"indices":23,
					"material":0
				}
			]
		},
		{
			"name":"Cube.028",
			"primitives":[
				{
					"attributes":{
						"POSITION":112,
						"NORMAL":113,
						"TEXCOORD_0":114,
						"TANGENT":115
					},
					"indices":23,
					"material":0
				}
			]
		},
		{
			"name":"Cube.029",
			"primitives":[
				{
					"attributes":{
						"POSITION":116,
						"NORMAL":117,
						"TEXCOORD_0":118,
						"TANGENT":119
					},
					"indices":23,
					"material":0
				}
			]
		},
		{
			"name":"Cube.030",
			"primitives":[
				{
					"attributes":{
						"POSITION":120,
						"NORMAL":121,
						"TEXCOORD_0":122,
						"TANGENT":123
					},
					"indices":23,
					"material":0
				}
			]
		},
		{
			"name":"Cube.031",
			"primitives":[
				{
					"attributes":{
						"POSITION":124,
						"NORMAL":125,
						"TEXCOORD_0":126,
						"TANGENT":127
					},
					"indices":23,
					"material":0
				}
			]
		},
		{
			"name":"Cube.032",
			"primitives":[
				{
					"attributes":{
						"POSITION":128,
						"NORMAL":129,
						"TEXCOORD_0":130,
						"TANGENT":131
					},
					"indices":23,
					"material":0
				}
			]
		},
		{
			"name":"Cube.033",
			"primitives":[
				{
					"attributes":{
						"POSITION":132,
						"NORMAL":133,
						"TEXCOORD_0":134,
						"TANGENT":135
					},
					"indices":23,
					"material":0
				}
			]
		},
		{
			"name":"Cube.034",
			"primitives":[
				{
					"attributes":{
						"POSITION":136,
						"NORMAL":137,
						"TEXCOORD_0":138,
						"TANGENT":139
					},
					"indices":23,
					"material":0
				}
			]
		},
		{
			"name":"Cube.035",
			"primitives":[
				{
					"attributes":{
						"POSITION":140,
						"NORMAL":141,
						"TEXCOORD_0":142,
						"TANGENT":143
					},
					"indices":23,
					"material":0
				}
			]
		},
		{
			"name":"Cube.036",
			"primitives":[
				{
					"attributes":{
						"POSITION":144,
						"NORMAL":145,
						"TEXCOORD_0":146,
						"TANGENT":147
					},
					"indices":23,
					"material":0
				}
			]
		},
		{
			"name":"Cube.037",
			"primitives":[
				{
					"attributes":{
						"POSITION":148,
						"NORMAL":149,
						"TEXCOORD_0":150,
						"TANGENT":151
					},
					"indices":23,
					"material":0
				}
			]
		},
		{
			"name":"Cube.038",
			"primitives":[
				{
					"attributes":{
						"POSITION":152,
						"NORMAL":153,
						"TEXCOORD_0":154,
						"TANGENT":155
					},
					"indices":23,
					"material":0
				}
			]
		},
		{
			"name":"Cube.039",
			"primitives":[
				{
					"attributes":{
						"POSITION":156,
						"NORMAL":157,
						"TEXCOORD_0":158,
						"TANGENT":159
					},
					"indices":23,
					"material":0
				}
			]
		},
		{
			"name":"Cube.040",
			"primitives":[
				{
					"attributes":{
						"POSITION":160,
						"NORMAL":161,
						"TEXCOORD_0":162,
						"TANGENT":163
					},
					"indices":23,
					"material":0
				}
			]
		},
		{
			"name":"Cube.041",
			"primitives":[
				{
					"attributes":{
						"POSITION":164,
						"NORMAL":165,
						"TEXCOORD_0":166,
						"TANGENT":167
					},
					"indices":23,
					"material":0
				}
			]
		},
		{
			"name":"Cube.042",
			"primitives":[
				{
					"attributes":{
						"POSITION":168,
						"NORMAL":169,
						"TEXCOORD_0":170,
						"TANGENT":171
					},
					"indices":23,
					"material":0
				}
			]
		},
		{
			"name":"Cube.043",
			"primitives":[
				{
					"attributes":{
						"POSITION":172,
						"NORMAL":173,
						"TEXCOORD_0":174,
						"TANGENT":175
					},
					"indices":23,
					"material":0
				}
			]
		},
		{
			"name":"Cube.044",
			"primitives":[
				{
					"attributes":{
						"POSITION":176,
						"NORMAL":177,
						"TEXCOORD_0":178,
						"TANGENT":179
					},
					"indices":23,
					"material":0
				}
			]
		},
		{
			"name":"Cube.045",
			"primitives":[
				{
					"attributes":{
						"POSITION":180,
						"NORMAL":181,
						"TEXCOORD_0":182,
						"TANGENT":183
					},
					"indices":4,
					"material":0
				}
			]
		},
		{
			"name":"Cube.046",
			"primitives":[
				{
					"attributes":{
						"POSITION":184,
						"NORMAL":185,
						"TEXCOORD_0":186,
						"TANGENT":187
					},
					"indices":13,
					"material":0
				}
			]
		},
		{
			"name":"Cube.047",
			"primitives":[
				{
					"attributes":{
						"POSITION":188,
						"NORMAL":189,
						"TEXCOORD_0":190,
						"TANGENT":191
					},
					"indices":18,
					"material":0
				}
			]
		},
		{
			"name":"Cube.048",
			"primitives":[
				{
					"attributes":{
						"POSITION":192,
						"NORMAL":193,
						"TEXCOORD_0":194,
						"TANGENT":195
					},
					"indices":4,
					"material":0
				}
			]
		},
		{
			"name":"Cube.051",
			"primitives":[
				{
					"attributes":{
						"POSITION":196,
						"NORMAL":197,
						"TEXCOORD_0":198,
						"TANGENT":199
					},
					"indices":4,
					"material":0
				}
			]
		},
		{
			"name":"Cube.052",
			"primitives":[
				{
					"attributes":{
						"POSITION":200,
						"NORMAL":201,
						"TEXCOORD_0":202,
						"TANGENT":203
					},
					"indices":13,
					"material":0
				}
			]
		},
		{
			"name":"Cube.053",
			"primitives":[
				{
					"attributes":{
						"POSITION":204,
						"NORMAL":205,
						"TEXCOORD_0":206,
						"TANGENT":207
					},
					"indices":18,
					"material":0
				}
			]
		},
		{
			"name":"Cube.054",
			"primitives":[
				{
					"attributes":{
						"POSITION":208,
						"NORMAL":209,
						"TEXCOORD_0":210,
						"TANGENT":211
					},
					"indices":23,
					"material":0
				}
			]
		},
		{
			"name":"Cube.055",
			"primitives":[
				{
					"attributes":{
						"POSITION":212,
						"NORMAL":213,
						"TEXCOORD_0":214,
						"TANGENT":215
					},
					"indices":23,
					"material":0
				}
			]
		},
		{
			"name":"Cube.056",
			"primitives":[
				{
					"attributes":{
						"POSITION":216,
						"NORMAL":217,
						"TEXCOORD_0":218,
						"TANGENT":219
					},
					"indices":23,
					"material":0
				}
			]
		},
		{
			"name":"Cube.057",
			"primitives":[
				{
					"attributes":{
						"POSITION":220,
						"NORMAL":221,
						"TEXCOORD_0":222,
						"TANGENT":223
					},
					"indices":23,
					"material":0
				}
			]
		},
		{
			"name":"Cube.058",
			"primitives":[
				{
					"attributes":{
						"POSITION":224,
						"NORMAL":225,
						"TEXCOORD_0":226,
						"TANGENT":227
					},
					"indices":23,
					"material":0
				}
			]
		},
		{
			"name":"Cube.059",
			"primitives":[
				{
					"attributes":{
						"POSITION":228,
						"NORMAL":229,
						"TEXCOORD_0":230,
						"TANGENT":231
					},
					"indices":4,
					"material":0
				}
			]
		},
		{
			"name":"Cube.060",
			"primitives":[
				{
					"attributes":{
						"POSITION":232,
						"NORMAL":233,
						"TEXCOORD_0":234,
						"TANGENT":235
					},
					"indices":13,
					"material":0
				}
			]
		},
		{
			"name":"Cube.061",
			"primitives":[
				{
					"attributes":{
						"POSITION":236,
						"NORMAL":237,
						"TEXCOORD_0":238,
						"TANGENT":239
					},
					"indices":18,
					"material":0
				}
			]
		},
		{
			"name":"Cube.049",
			"primitives":[
				{
					"attributes":{
						"POSITION":240,
						"NORMAL":241,
						"TEXCOORD_0":242,
						"TANGENT":243
					},
					"indices":23,
					"material":0
				}
			]
		},
		{
			"name":"Cube.050",
			"primitives":[
				{
					"attributes":{
						"POSITION":244,
						"NORMAL":245,
						"TEXCOORD_0":246,
						"TANGENT":247
					},
					"indices":23,
					"material":0
				}
			]
		},
		{
			"name":"Cube.062",
			"primitives":[
				{
					"attributes":{
						"POSITION":248,
						"NORMAL":249,
						"TEXCOORD_0":250,
						"TANGENT":251
					},
					"indices":4,
					"material":0
				}
			]
		},
		{
			"name":"Cube.065",
			"primitives":[
				{
					"attributes":{
						"POSITION":252,
						"NORMAL":253,
						"TEXCOORD_0":254,
						"TANGENT":255
					},
					"indices":13,
					"material":0
				}
			]
		},
		{
			"name":"Cube.066",
			"primitives":[
				{
					"attributes":{
						"POSITION":256,
						"NORMAL":257,
						"TEXCOORD_0":258,
						"TANGENT":259
					},
					"indices":18,
					"material":0
				}
			]
		},
		{
			"name":"Cube.067",
			"primitives":[
				{
					"attributes":{
						"POSITION":260,
						"NORMAL":261,
						"TEXCOORD_0":262,
						"TANGENT":263
					},
					"indices":23,
					"material":0
				}
			]
		},
		{
			"name":"Cube.068",
			"primitives":[
				{
					"attributes":{
						"POSITION":264,
						"NORMAL":265,
						"TEXCOORD_0":266,
						"TANGENT":267
					},
					"indices":23,
					"material":0
				}
			]
		},
		{
			"name":"Cube.069",
			"primitives":[
				{
					"attributes":{
						"POSITION":268,
						"NORMAL":269,
						"TEXCOORD_0":270,
						"TANGENT":271
					},
					"indices":23,
					"material":0
				}
			]
		},
		{
			"name":"Cube.070",
			"primitives":[
				{
					"attributes":{
						"POSITION":272,
						"NORMAL":273,
						"TEXCOORD_0":274,
						"TANGENT":275
					},
					"indices":23,
					"material":0
				}
			]
		},
		{
			"name":"Cube.071",
			"primitives":[
				{
					"attributes":{
						"POSITION":276,
						"NORMAL":277,
						"TEXCOORD_0":278,
						"TANGENT":279
					},
					"indices":23,
					"material":0
				}
			]
		},
		{
			"name":"Cube.072",
			"primitives":[
				{
					"attributes":{
						"POSITION":280,
						"NORMAL":281,
						"TEXCOORD_0":282,
						"TANGENT":283
					},
					"indices":23,
					"material":0
				}
			]
		},
		{
			"name":"Cube.073",
			"primitives":[
				{
					"attributes":{
						"POSITION":284,
						"NORMAL":285,
						"TEXCOORD_0":286,
						"TANGENT":287
					},
					"indices":23,
					"material":0
				}
			]
		},
		{
			"name":"Cube.074",
			"primitives":[
				{
					"attributes":{
						"POSITION":288,
						"NORMAL":289,
						"TEXCOORD_0":290,
						"TANGENT":291
					},
					"indices":23,
					"material":0
				}
			]
		},
		{
			"name":"Cube.075",
			"primitives":[
				{
					"attributes":{
						"POSITION":292,
						"NORMAL":293,
						"TEXCOORD_0":294,
						"TANGENT":295
					},
					"indices":23,
					"material":0
				}
			]
		},
		{
			"name":"Cube.063",
			"primitives":[
				{
					"attributes":{
						"POSITION":296,
						"NORMAL":297,
						"TEXCOORD_0":298
					},
					"indices":299,
					"material":0
				}
			]
		},
		{
			"name":"Cube.064",
			"primitives":[
				{
					"attributes":{
						"POSITION":300,
						"NORMAL":301,
						"TEXCOORD_0":302
					},
					"indices":299,
					"material":0
				}
			]
		},
		{
			"name":"Cube.076",
			"primitives":[
				{
					"attributes":{
						"POSITION":303,
						"NORMAL":304,
						"TEXCOORD_0":305
					},
					"indices":299,
					"material":0
				}
			]
		},
		{
			"name":"Cube.077",
			"primitives":[
				{
					"attributes":{
						"POSITION":306,
						"NORMAL":307,
						"TEXCOORD_0":308
					},
					"indices":299,
					"material":0
				}
			]
		},
		{
			"name":"Cube.078",
			"primitives":[
				{
					"attributes":{
						"POSITION":309,
						"NORMAL":310,
						"TEXCOORD_0":311
					},
					"indices":299,
					"material":0
				}
			]
		},
		{
			"name":"Cube.079",
			"primitives":[
				{
					"attributes":{
						"POSITION":312,
						"NORMAL":313,
						"TEXCOORD_0":314
					},
					"indices":315,
					"material":0
				}
			]
		},
		{
			"name":"Cube.080",
			"primitives":[
				{
					"attributes":{
						"POSITION":316,
						"NORMAL":317,
						"TEXCOORD_0":318
					},
					"indices":315,
					"material":0
				}
			]
		},
		{
			"name":"Cube.081",
			"primitives":[
				{
					"attributes":{
						"POSITION":319,
						"NORMAL":320,
						"TEXCOORD_0":321
					},
					"indices":315,
					"material":0
				}
			]
		},
		{
			"name":"Cube.082",
			"primitives":[
				{
					"attributes":{
						"POSITION":322,
						"NORMAL":323,
						"TEXCOORD_0":324
					},
					"indices":315,
					"material":0
				}
			]
		},
		{
			"name":"Cube.083",
			"primitives":[
				{
					"attributes":{
						"POSITION":325,
						"NORMAL":326,
						"TEXCOORD_0":327
					},
					"indices":315,
					"material":0
				}
			]
		},
		{
			"name":"Cube.084",
			"primitives":[
				{
					"attributes":{
						"POSITION":328,
						"NORMAL":329,
						"TEXCOORD_0":330
					},
					"indices":299,
					"material":0
				}
			]
		},
		{
			"name":"Cube.085",
			"primitives":[
				{
					"attributes":{
						"POSITION":331,
						"NORMAL":332,
						"TEXCOORD_0":333
					},
					"indices":315,
					"material":0
				}
			]
		},
		{
			"name":"Cube.086",
			"primitives":[
				{
					"attributes":{
						"POSITION":334,
						"NORMAL":335,
						"TEXCOORD_0":336
					},
					"indices":337,
					"material":0
				}
			]
		},
		{
			"name":"Cube.087",
			"primitives":[
				{
					"attributes":{
						"POSITION":338,
						"NORMAL":339,
						"TEXCOORD_0":340
					},
					"indices":337,
					"material":0
				}
			]
		}
	],
	"textures":[
		{
			"sampler":0,
			"source":0
		}
	],
	"images":[
		{
			"mimeType":"image/png",
			"name":"tileset.png",
			"uri":"../../sprites/tileset.png"
		}
	],
	"accessors":[
		{
			"bufferView":0,
			"componentType":5126,
			"count":384,
			"max":[
				0.5,
				0.5,
				0.5
			],
			"min":[
				-0.5,
				-0.5,
				-0.5
			],
			"type":"VEC3"
		},
		{
			"bufferView":1,
			"componentType":5126,
			"count":384,
			"type":"VEC3"
		},
		{
			"bufferView":2,
			"componentType":5126,
			"count":384,
			"type":"VEC2"
		},
		{
			"bufferView":3,
			"componentType":5126,
			"count":384,
			"type":"VEC4"
		},
		{
			"bufferView":4,
			"componentType":5123,
			"count":564,
			"type":"SCALAR"
		},
		{
			"bufferView":5,
			"componentType":5126,
			"count":384,
			"max":[
				0.5,
				0,
				0.5
			],
			"min":[
				-0.5,
				-0.5,
				-0.5
			],
			"type":"VEC3"
		},
		{
			"bufferView":6,
			"componentType":5126,
			"count":384,
			"type":"VEC3"
		},
		{
			"bufferView":7,
			"componentType":5126,
			"count":384,
			"type":"VEC2"
		},
		{
			"bufferView":8,
			"componentType":5126,
			"count":384,
			"type":"VEC4"
		},
		{
			"bufferView":9,
			"componentType":5126,
			"count":75,
			"max":[
				0.5,
				0.5,
				0.5
			],
			"min":[
				-0.5,
				-0.5,
				-0.5
			],
			"type":"VEC3"
		},
		{
			"bufferView":10,
			"componentType":5126,
			"count":75,
			"type":"VEC3"
		},
		{
			"bufferView":11,
			"componentType":5126,
			"count":75,
			"type":"VEC2"
		},
		{
			"bufferView":12,
			"componentType":5126,
			"count":75,
			"type":"VEC4"
		},
		{
			"bufferView":13,
			"componentType":5123,
			"count":111,
			"type":"SCALAR"
		},
		{
			"bufferView":14,
			"componentType":5126,
			"count":20,
			"max":[
				0.5,
				0.5,
				0.5
			],
			"min":[
				-0.5,
				-0.5,
				-0.5
			],
			"type":"VEC3"
		},
		{
			"bufferView":15,
			"componentType":5126,
			"count":20,
			"type":"VEC3"
		},
		{
			"bufferView":16,
			"componentType":5126,
			"count":20,
			"type":"VEC2"
		},
		{
			"bufferView":17,
			"componentType":5126,
			"count":20,
			"type":"VEC4"
		},
		{
			"bufferView":18,
			"componentType":5123,
			"count":30,
			"type":"SCALAR"
		},
		{
			"bufferView":19,
			"componentType":5126,
			"count":4,
			"max":[
				0.5,
				0.5,
				0.5
			],
			"min":[
				-0.5,
				0.5,
				-0.5
			],
			"type":"VEC3"
		},
		{
			"bufferView":20,
			"componentType":5126,
			"count":4,
			"type":"VEC3"
		},
		{
			"bufferView":21,
			"componentType":5126,
			"count":4,
			"type":"VEC2"
		},
		{
			"bufferView":22,
			"componentType":5126,
			"count":4,
			"type":"VEC4"
		},
		{
			"bufferView":23,
			"componentType":5123,
			"count":6,
			"type":"SCALAR"
		},
		{
			"bufferView":24,
			"componentType":5126,
			"count":75,
			"max":[
				0.5,
				0,
				0.5
			],
			"min":[
				-0.5,
				-0.5,
				-0.5
			],
			"type":"VEC3"
		},
		{
			"bufferView":25,
			"componentType":5126,
			"count":75,
			"type":"VEC3"
		},
		{
			"bufferView":26,
			"componentType":5126,
			"count":75,
			"type":"VEC2"
		},
		{
			"bufferView":27,
			"componentType":5126,
			"count":75,
			"type":"VEC4"
		},
		{
			"bufferView":28,
			"componentType":5126,
			"count":20,
			"max":[
				0.5,
				0,
				0.5
			],
			"min":[
				-0.5,
				-0.5,
				-0.5
			],
			"type":"VEC3"
		},
		{
			"bufferView":29,
			"componentType":5126,
			"count":20,
			"type":"VEC3"
		},
		{
			"bufferView":30,
			"componentType":5126,
			"count":20,
			"type":"VEC2"
		},
		{
			"bufferView":31,
			"componentType":5126,
			"count":20,
			"type":"VEC4"
		},
		{
			"bufferView":32,
			"componentType":5126,
			"count":4,
			"max":[
				0.5,
				0,
				0.5
			],
			"min":[
				-0.5,
				0,
				-0.5
			],
			"type":"VEC3"
		},
		{
			"bufferView":33,
			"componentType":5126,
			"count":4,
			"type":"VEC3"
		},
		{
			"bufferView":34,
			"componentType":5126,
			"count":4,
			"type":"VEC2"
		},
		{
			"bufferView":35,
			"componentType":5126,
			"count":4,
			"type":"VEC4"
		},
		{
			"bufferView":36,
			"componentType":5126,
			"count":4,
			"max":[
				0.5,
				0,
				0.5
			],
			"min":[
				-0.5,
				0,
				-0.5
			],
			"type":"VEC3"
		},
		{
			"bufferView":37,
			"componentType":5126,
			"count":4,
			"type":"VEC3"
		},
		{
			"bufferView":38,
			"componentType":5126,
			"count":4,
			"type":"VEC2"
		},
		{
			"bufferView":39,
			"componentType":5126,
			"count":4,
			"type":"VEC4"
		},
		{
			"bufferView":40,
			"componentType":5126,
			"count":4,
			"max":[
				0.5,
				0,
				0.5
			],
			"min":[
				-0.5,
				0,
				-0.5
			],
			"type":"VEC3"
		},
		{
			"bufferView":41,
			"componentType":5126,
			"count":4,
			"type":"VEC3"
		},
		{
			"bufferView":42,
			"componentType":5126,
			"count":4,
			"type":"VEC2"
		},
		{
			"bufferView":43,
			"componentType":5126,
			"count":4,
			"type":"VEC4"
		},
		{
			"bufferView":44,
			"componentType":5126,
			"count":4,
			"max":[
				0.5,
				0,
				0.5
			],
			"min":[
				-0.5,
				0,
				-0.5
			],
			"type":"VEC3"
		},
		{
			"bufferView":45,
			"componentType":5126,
			"count":4,
			"type":"VEC3"
		},
		{
			"bufferView":46,
			"componentType":5126,
			"count":4,
			"type":"VEC2"
		},
		{
			"bufferView":47,
			"componentType":5126,
			"count":4,
			"type":"VEC4"
		},
		{
			"bufferView":48,
			"componentType":5126,
			"count":4,
			"max":[
				0.5,
				0,
				0.5
			],
			"min":[
				-0.5,
				0,
				-0.5
			],
			"type":"VEC3"
		},
		{
			"bufferView":49,
			"componentType":5126,
			"count":4,
			"type":"VEC3"
		},
		{
			"bufferView":50,
			"componentType":5126,
			"count":4,
			"type":"VEC2"
		},
		{
			"bufferView":51,
			"componentType":5126,
			"count":4,
			"type":"VEC4"
		},
		{
			"bufferView":52,
			"componentType":5126,
			"count":4,
			"max":[
				0.5,
				0,
				0.5
			],
			"min":[
				-0.5,
				0,
				-0.5
			],
			"type":"VEC3"
		},
		{
			"bufferView":53,
			"componentType":5126,
			"count":4,
			"type":"VEC3"
		},
		{
			"bufferView":54,
			"componentType":5126,
			"count":4,
			"type":"VEC2"
		},
		{
			"bufferView":55,
			"componentType":5126,
			"count":4,
			"type":"VEC4"
		},
		{
			"bufferView":56,
			"componentType":5126,
			"count":4,
			"max":[
				0.5,
				0,
				0.5
			],
			"min":[
				-0.5,
				0,
				-0.5
			],
			"type":"VEC3"
		},
		{
			"bufferView":57,
			"componentType":5126,
			"count":4,
			"type":"VEC3"
		},
		{
			"bufferView":58,
			"componentType":5126,
			"count":4,
			"type":"VEC2"
		},
		{
			"bufferView":59,
			"componentType":5126,
			"count":4,
			"type":"VEC4"
		},
		{
			"bufferView":60,
			"componentType":5126,
			"count":4,
			"max":[
				0.5,
				0,
				0.5
			],
			"min":[
				-0.5,
				0,
				-0.5
			],
			"type":"VEC3"
		},
		{
			"bufferView":61,
			"componentType":5126,
			"count":4,
			"type":"VEC3"
		},
		{
			"bufferView":62,
			"componentType":5126,
			"count":4,
			"type":"VEC2"
		},
		{
			"bufferView":63,
			"componentType":5126,
			"count":4,
			"type":"VEC4"
		},
		{
			"bufferView":64,
			"componentType":5126,
			"count":4,
			"max":[
				0.5,
				0,
				0.5
			],
			"min":[
				-0.5,
				0,
				-0.5
			],
			"type":"VEC3"
		},
		{
			"bufferView":65,
			"componentType":5126,
			"count":4,
			"type":"VEC3"
		},
		{
			"bufferView":66,
			"componentType":5126,
			"count":4,
			"type":"VEC2"
		},
		{
			"bufferView":67,
			"componentType":5126,
			"count":4,
			"type":"VEC4"
		},
		{
			"bufferView":68,
			"componentType":5126,
			"count":4,
			"max":[
				0.5,
				0,
				0.5
			],
			"min":[
				-0.5,
				0,
				-0.5
			],
			"type":"VEC3"
		},
		{
			"bufferView":69,
			"componentType":5126,
			"count":4,
			"type":"VEC3"
		},
		{
			"bufferView":70,
			"componentType":5126,
			"count":4,
			"type":"VEC2"
		},
		{
			"bufferView":71,
			"componentType":5126,
			"count":4,
			"type":"VEC4"
		},
		{
			"bufferView":72,
			"componentType":5126,
			"count":4,
			"max":[
				0.5,
				0,
				0.5
			],
			"min":[
				-0.5,
				0,
				-0.5
			],
			"type":"VEC3"
		},
		{
			"bufferView":73,
			"componentType":5126,
			"count":4,
			"type":"VEC3"
		},
		{
			"bufferView":74,
			"componentType":5126,
			"count":4,
			"type":"VEC2"
		},
		{
			"bufferView":75,
			"componentType":5126,
			"count":4,
			"type":"VEC4"
		},
		{
			"bufferView":76,
			"componentType":5126,
			"count":4,
			"max":[
				0.5,
				0,
				0.5
			],
			"min":[
				-0.5,
				0,
				-0.5
			],
			"type":"VEC3"
		},
		{
			"bufferView":77,
			"componentType":5126,
			"count":4,
			"type":"VEC3"
		},
		{
			"bufferView":78,
			"componentType":5126,
			"count":4,
			"type":"VEC2"
		},
		{
			"bufferView":79,
			"componentType":5126,
			"count":4,
			"type":"VEC4"
		},
		{
			"bufferView":80,
			"componentType":5126,
			"count":4,
			"max":[
				0.5,
				0,
				0.5
			],
			"min":[
				-0.5,
				0,
				-0.5
			],
			"type":"VEC3"
		},
		{
			"bufferView":81,
			"componentType":5126,
			"count":4,
			"type":"VEC3"
		},
		{
			"bufferView":82,
			"componentType":5126,
			"count":4,
			"type":"VEC2"
		},
		{
			"bufferView":83,
			"componentType":5126,
			"count":4,
			"type":"VEC4"
		},
		{
			"bufferView":84,
			"componentType":5126,
			"count":4,
			"max":[
				0.5,
				0,
				0.5
			],
			"min":[
				-0.5,
				0,
				-0.5
			],
			"type":"VEC3"
		},
		{
			"bufferView":85,
			"componentType":5126,
			"count":4,
			"type":"VEC3"
		},
		{
			"bufferView":86,
			"componentType":5126,
			"count":4,
			"type":"VEC2"
		},
		{
			"bufferView":87,
			"componentType":5126,
			"count":4,
			"type":"VEC4"
		},
		{
			"bufferView":88,
			"componentType":5126,
			"count":4,
			"max":[
				0.5,
				0,
				0.5
			],
			"min":[
				-0.5,
				0,
				-0.5
			],
			"type":"VEC3"
		},
		{
			"bufferView":89,
			"componentType":5126,
			"count":4,
			"type":"VEC3"
		},
		{
			"bufferView":90,
			"componentType":5126,
			"count":4,
			"type":"VEC2"
		},
		{
			"bufferView":91,
			"componentType":5126,
			"count":4,
			"type":"VEC4"
		},
		{
			"bufferView":92,
			"componentType":5126,
			"count":4,
			"max":[
				0.5,
				0,
				0.5
			],
			"min":[
				-0.5,
				0,
				-0.5
			],
			"type":"VEC3"
		},
		{
			"bufferView":93,
			"componentType":5126,
			"count":4,
			"type":"VEC3"
		},
		{
			"bufferView":94,
			"componentType":5126,
			"count":4,
			"type":"VEC2"
		},
		{
			"bufferView":95,
			"componentType":5126,
			"count":4,
			"type":"VEC4"
		},
		{
			"bufferView":96,
			"componentType":5126,
			"count":4,
			"max":[
				0.5,
				0,
				0.5
			],
			"min":[
				-0.5,
				0,
				-0.5
			],
			"type":"VEC3"
		},
		{
			"bufferView":97,
			"componentType":5126,
			"count":4,
			"type":"VEC3"
		},
		{
			"bufferView":98,
			"componentType":5126,
			"count":4,
			"type":"VEC2"
		},
		{
			"bufferView":99,
			"componentType":5126,
			"count":4,
			"type":"VEC4"
		},
		{
			"bufferView":100,
			"componentType":5126,
			"count":4,
			"max":[
				0.5,
				0,
				0.5
			],
			"min":[
				-0.5,
				0,
				-0.5
			],
			"type":"VEC3"
		},
		{
			"bufferView":101,
			"componentType":5126,
			"count":4,
			"type":"VEC3"
		},
		{
			"bufferView":102,
			"componentType":5126,
			"count":4,
			"type":"VEC2"
		},
		{
			"bufferView":103,
			"componentType":5126,
			"count":4,
			"type":"VEC4"
		},
		{
			"bufferView":104,
			"componentType":5126,
			"count":4,
			"max":[
				0.5,
				0,
				0.5
			],
			"min":[
				-0.5,
				0,
				-0.5
			],
			"type":"VEC3"
		},
		{
			"bufferView":105,
			"componentType":5126,
			"count":4,
			"type":"VEC3"
		},
		{
			"bufferView":106,
			"componentType":5126,
			"count":4,
			"type":"VEC2"
		},
		{
			"bufferView":107,
			"componentType":5126,
			"count":4,
			"type":"VEC4"
		},
		{
			"bufferView":108,
			"componentType":5126,
			"count":4,
			"max":[
				0.5,
				0.5,
				0.5
			],
			"min":[
				-0.5,
				0.5,
				-0.5
			],
			"type":"VEC3"
		},
		{
			"bufferView":109,
			"componentType":5126,
			"count":4,
			"type":"VEC3"
		},
		{
			"bufferView":110,
			"componentType":5126,
			"count":4,
			"type":"VEC2"
		},
		{
			"bufferView":111,
			"componentType":5126,
			"count":4,
			"type":"VEC4"
		},
		{
			"bufferView":112,
			"componentType":5126,
			"count":4,
			"max":[
				0.5,
				0.5,
				0.5
			],
			"min":[
				-0.5,
				0.5,
				-0.5
			],
			"type":"VEC3"
		},
		{
			"bufferView":113,
			"componentType":5126,
			"count":4,
			"type":"VEC3"
		},
		{
			"bufferView":114,
			"componentType":5126,
			"count":4,
			"type":"VEC2"
		},
		{
			"bufferView":115,
			"componentType":5126,
			"count":4,
			"type":"VEC4"
		},
		{
			"bufferView":116,
			"componentType":5126,
			"count":4,
			"max":[
				0.5,
				0.5,
				0.5
			],
			"min":[
				-0.5,
				0.5,
				-0.5
			],
			"type":"VEC3"
		},
		{
			"bufferView":117,
			"componentType":5126,
			"count":4,
			"type":"VEC3"
		},
		{
			"bufferView":118,
			"componentType":5126,
			"count":4,
			"type":"VEC2"
		},
		{
			"bufferView":119,
			"componentType":5126,
			"count":4,
			"type":"VEC4"
		},
		{
			"bufferView":120,
			"componentType":5126,
			"count":4,
			"max":[
				0.5,
				0.5,
				0.5
			],
			"min":[
				-0.5,
				0.5,
				-0.5
			],
			"type":"VEC3"
		},
		{
			"bufferView":121,
			"componentType":5126,
			"count":4,
			"type":"VEC3"
		},
		{
			"bufferView":122,
			"componentType":5126,
			"count":4,
			"type":"VEC2"
		},
		{
			"bufferView":123,
			"componentType":5126,
			"count":4,
			"type":"VEC4"
		},
		{
			"bufferView":124,
			"componentType":5126,
			"count":4,
			"max":[
				0.5,
				0.5,
				0.5
			],
			"min":[
				-0.5,
				0.5,
				-0.5
			],
			"type":"VEC3"
		},
		{
			"bufferView":125,
			"componentType":5126,
			"count":4,
			"type":"VEC3"
		},
		{
			"bufferView":126,
			"componentType":5126,
			"count":4,
			"type":"VEC2"
		},
		{
			"bufferView":127,
			"componentType":5126,
			"count":4,
			"type":"VEC4"
		},
		{
			"bufferView":128,
			"componentType":5126,
			"count":4,
			"max":[
				0.5,
				0.5,
				0.5
			],
			"min":[
				-0.5,
				0.5,
				-0.5
			],
			"type":"VEC3"
		},
		{
			"bufferView":129,
			"componentType":5126,
			"count":4,
			"type":"VEC3"
		},
		{
			"bufferView":130,
			"componentType":5126,
			"count":4,
			"type":"VEC2"
		},
		{
			"bufferView":131,
			"componentType":5126,
			"count":4,
			"type":"VEC4"
		},
		{
			"bufferView":132,
			"componentType":5126,
			"count":4,
			"max":[
				0.5,
				0.5,
				0.5
			],
			"min":[
				-0.5,
				0.5,
				-0.5
			],
			"type":"VEC3"
		},
		{
			"bufferView":133,
			"componentType":5126,
			"count":4,
			"type":"VEC3"
		},
		{
			"bufferView":134,
			"componentType":5126,
			"count":4,
			"type":"VEC2"
		},
		{
			"bufferView":135,
			"componentType":5126,
			"count":4,
			"type":"VEC4"
		},
		{
			"bufferView":136,
			"componentType":5126,
			"count":4,
			"max":[
				0.5,
				0.5,
				0.5
			],
			"min":[
				-0.5,
				0.5,
				-0.5
			],
			"type":"VEC3"
		},
		{
			"bufferView":137,
			"componentType":5126,
			"count":4,
			"type":"VEC3"
		},
		{
			"bufferView":138,
			"componentType":5126,
			"count":4,
			"type":"VEC2"
		},
		{
			"bufferView":139,
			"componentType":5126,
			"count":4,
			"type":"VEC4"
		},
		{
			"bufferView":140,
			"componentType":5126,
			"count":4,
			"max":[
				0.5,
				0.5,
				0.5
			],
			"min":[
				-0.5,
				0.5,
				-0.5
			],
			"type":"VEC3"
		},
		{
			"bufferView":141,
			"componentType":5126,
			"count":4,
			"type":"VEC3"
		},
		{
			"bufferView":142,
			"componentType":5126,
			"count":4,
			"type":"VEC2"
		},
		{
			"bufferView":143,
			"componentType":5126,
			"count":4,
			"type":"VEC4"
		},
		{
			"bufferView":144,
			"componentType":5126,
			"count":4,
			"max":[
				0.5,
				0.5,
				0.5
			],
			"min":[
				-0.5,
				0.5,
				-0.5
			],
			"type":"VEC3"
		},
		{
			"bufferView":145,
			"componentType":5126,
			"count":4,
			"type":"VEC3"
		},
		{
			"bufferView":146,
			"componentType":5126,
			"count":4,
			"type":"VEC2"
		},
		{
			"bufferView":147,
			"componentType":5126,
			"count":4,
			"type":"VEC4"
		},
		{
			"bufferView":148,
			"componentType":5126,
			"count":4,
			"max":[
				0.5,
				0.5,
				0.5
			],
			"min":[
				-0.5,
				0.5,
				-0.5
			],
			"type":"VEC3"
		},
		{
			"bufferView":149,
			"componentType":5126,
			"count":4,
			"type":"VEC3"
		},
		{
			"bufferView":150,
			"componentType":5126,
			"count":4,
			"type":"VEC2"
		},
		{
			"bufferView":151,
			"componentType":5126,
			"count":4,
			"type":"VEC4"
		},
		{
			"bufferView":152,
			"componentType":5126,
			"count":4,
			"max":[
				0.5,
				0.5,
				0.5
			],
			"min":[
				-0.5,
				0.5,
				-0.5
			],
			"type":"VEC3"
		},
		{
			"bufferView":153,
			"componentType":5126,
			"count":4,
			"type":"VEC3"
		},
		{
			"bufferView":154,
			"componentType":5126,
			"count":4,
			"type":"VEC2"
		},
		{
			"bufferView":155,
			"componentType":5126,
			"count":4,
			"type":"VEC4"
		},
		{
			"bufferView":156,
			"componentType":5126,
			"count":4,
			"max":[
				0.5,
				0.5,
				0.5
			],
			"min":[
				-0.5,
				0.5,
				-0.5
			],
			"type":"VEC3"
		},
		{
			"bufferView":157,
			"componentType":5126,
			"count":4,
			"type":"VEC3"
		},
		{
			"bufferView":158,
			"componentType":5126,
			"count":4,
			"type":"VEC2"
		},
		{
			"bufferView":159,
			"componentType":5126,
			"count":4,
			"type":"VEC4"
		},
		{
			"bufferView":160,
			"componentType":5126,
			"count":4,
			"max":[
				0.5,
				0.5,
				0.5
			],
			"min":[
				-0.5,
				0.5,
				-0.5
			],
			"type":"VEC3"
		},
		{
			"bufferView":161,
			"componentType":5126,
			"count":4,
			"type":"VEC3"
		},
		{
			"bufferView":162,
			"componentType":5126,
			"count":4,
			"type":"VEC2"
		},
		{
			"bufferView":163,
			"componentType":5126,
			"count":4,
			"type":"VEC4"
		},
		{
			"bufferView":164,
			"componentType":5126,
			"count":4,
			"max":[
				0.5,
				0.5,
				0.5
			],
			"min":[
				-0.5,
				0.5,
				-0.5
			],
			"type":"VEC3"
		},
		{
			"bufferView":165,
			"componentType":5126,
			"count":4,
			"type":"VEC3"
		},
		{
			"bufferView":166,
			"componentType":5126,
			"count":4,
			"type":"VEC2"
		},
		{
			"bufferView":167,
			"componentType":5126,
			"count":4,
			"type":"VEC4"
		},
		{
			"bufferView":168,
			"componentType":5126,
			"count":4,
			"max":[
				0.5,
				0.5,
				0.5
			],
			"min":[
				-0.5,
				0.5,
				-0.5
			],
			"type":"VEC3"
		},
		{
			"bufferView":169,
			"componentType":5126,
			"count":4,
			"type":"VEC3"
		},
		{
			"bufferView":170,
			"componentType":5126,
			"count":4,
			"type":"VEC2"
		},
		{
			"bufferView":171,
			"componentType":5126,
			"count":4,
			"type":"VEC4"
		},
		{
			"bufferView":172,
			"componentType":5126,
			"count":4,
			"max":[
				0.5,
				0.5,
				0.5
			],
			"min":[
				-0.5,
				0.5,
				-0.5
			],
			"type":"VEC3"
		},
		{
			"bufferView":173,
			"componentType":5126,
			"count":4,
			"type":"VEC3"
		},
		{
			"bufferView":174,
			"componentType":5126,
			"count":4,
			"type":"VEC2"
		},
		{
			"bufferView":175,
			"componentType":5126,
			"count":4,
			"type":"VEC4"
		},
		{
			"bufferView":176,
			"componentType":5126,
			"count":4,
			"max":[
				0.5,
				0.5,
				0.5
			],
			"min":[
				-0.5,
				0.5,
				-0.5
			],
			"type":"VEC3"
		},
		{
			"bufferView":177,
			"componentType":5126,
			"count":4,
			"type":"VEC3"
		},
		{
			"bufferView":178,
			"componentType":5126,
			"count":4,
			"type":"VEC2"
		},
		{
			"bufferView":179,
			"componentType":5126,
			"count":4,
			"type":"VEC4"
		},
		{
			"bufferView":180,
			"componentType":5126,
			"count":384,
			"max":[
				0.5,
				0.5,
				0.5
			],
			"min":[
				-0.5,
				-0.5,
				-0.5
			],
			"type":"VEC3"
		},
		{
			"bufferView":181,
			"componentType":5126,
			"count":384,
			"type":"VEC3"
		},
		{
			"bufferView":182,
			"componentType":5126,
			"count":384,
			"type":"VEC2"
		},
		{
			"bufferView":183,
			"componentType":5126,
			"count":384,
			"type":"VEC4"
		},
		{
			"bufferView":184,
			"componentType":5126,
			"count":75,
			"max":[
				0.5,
				0.5,
				0.5
			],
			"min":[
				-0.5,
				-0.5,
				-0.5
			],
			"type":"VEC3"
		},
		{
			"bufferView":185,
			"componentType":5126,
			"count":75,
			"type":"VEC3"
		},
		{
			"bufferView":186,
			"componentType":5126,
			"count":75,
			"type":"VEC2"
		},
		{
			"bufferView":187,
			"componentType":5126,
			"count":75,
			"type":"VEC4"
		},
		{
			"bufferView":188,
			"componentType":5126,
			"count":20,
			"max":[
				0.5,
				0.5,
				0.5
			],
			"min":[
				-0.5,
				-0.5,
				-0.5
			],
			"type":"VEC3"
		},
		{
			"bufferView":189,
			"componentType":5126,
			"count":20,
			"type":"VEC3"
		},
		{
			"bufferView":190,
			"componentType":5126,
			"count":20,
			"type":"VEC2"
		},
		{
			"bufferView":191,
			"componentType":5126,
			"count":20,
			"type":"VEC4"
		},
		{
			"bufferView":192,
			"componentType":5126,
			"count":384,
			"max":[
				0.5,
				0.5,
				0.5
			],
			"min":[
				-0.5,
				-0.5,
				-0.5
			],
			"type":"VEC3"
		},
		{
			"bufferView":193,
			"componentType":5126,
			"count":384,
			"type":"VEC3"
		},
		{
			"bufferView":194,
			"componentType":5126,
			"count":384,
			"type":"VEC2"
		},
		{
			"bufferView":195,
			"componentType":5126,
			"count":384,
			"type":"VEC4"
		},
		{
			"bufferView":196,
			"componentType":5126,
			"count":384,
			"max":[
				0.5,
				0.5,
				0.5
			],
			"min":[
				-0.5,
				-0.5,
				-0.5
			],
			"type":"VEC3"
		},
		{
			"bufferView":197,
			"componentType":5126,
			"count":384,
			"type":"VEC3"
		},
		{
			"bufferView":198,
			"componentType":5126,
			"count":384,
			"type":"VEC2"
		},
		{
			"bufferView":199,
			"componentType":5126,
			"count":384,
			"type":"VEC4"
		},
		{
			"bufferView":200,
			"componentType":5126,
			"count":75,
			"max":[
				0.5,
				0.5,
				0.5
			],
			"min":[
				-0.5,
				-0.5,
				-0.5
			],
			"type":"VEC3"
		},
		{
			"bufferView":201,
			"componentType":5126,
			"count":75,
			"type":"VEC3"
		},
		{
			"bufferView":202,
			"componentType":5126,
			"count":75,
			"type":"VEC2"
		},
		{
			"bufferView":203,
			"componentType":5126,
			"count":75,
			"type":"VEC4"
		},
		{
			"bufferView":204,
			"componentType":5126,
			"count":20,
			"max":[
				0.5,
				0.5,
				0.5
			],
			"min":[
				-0.5,
				-0.5,
				-0.5
			],
			"type":"VEC3"
		},
		{
			"bufferView":205,
			"componentType":5126,
			"count":20,
			"type":"VEC3"
		},
		{
			"bufferView":206,
			"componentType":5126,
			"count":20,
			"type":"VEC2"
		},
		{
			"bufferView":207,
			"componentType":5126,
			"count":20,
			"type":"VEC4"
		},
		{
			"bufferView":208,
			"componentType":5126,
			"count":4,
			"max":[
				0.5,
				0.5,
				0.5
			],
			"min":[
				-0.5,
				0.5,
				-0.5
			],
			"type":"VEC3"
		},
		{
			"bufferView":209,
			"componentType":5126,
			"count":4,
			"type":"VEC3"
		},
		{
			"bufferView":210,
			"componentType":5126,
			"count":4,
			"type":"VEC2"
		},
		{
			"bufferView":211,
			"componentType":5126,
			"count":4,
			"type":"VEC4"
		},
		{
			"bufferView":212,
			"componentType":5126,
			"count":4,
			"max":[
				0.5,
				0.5,
				0.5
			],
			"min":[
				-0.5,
				0.5,
				-0.5
			],
			"type":"VEC3"
		},
		{
			"bufferView":213,
			"componentType":5126,
			"count":4,
			"type":"VEC3"
		},
		{
			"bufferView":214,
			"componentType":5126,
			"count":4,
			"type":"VEC2"
		},
		{
			"bufferView":215,
			"componentType":5126,
			"count":4,
			"type":"VEC4"
		},
		{
			"bufferView":216,
			"componentType":5126,
			"count":4,
			"max":[
				0.5,
				0.5,
				0.5
			],
			"min":[
				-0.5,
				0.5,
				-0.5
			],
			"type":"VEC3"
		},
		{
			"bufferView":217,
			"componentType":5126,
			"count":4,
			"type":"VEC3"
		},
		{
			"bufferView":218,
			"componentType":5126,
			"count":4,
			"type":"VEC2"
		},
		{
			"bufferView":219,
			"componentType":5126,
			"count":4,
			"type":"VEC4"
		},
		{
			"bufferView":220,
			"componentType":5126,
			"count":4,
			"max":[
				0.5,
				0.5,
				0.5
			],
			"min":[
				-0.5,
				0.5,
				-0.5
			],
			"type":"VEC3"
		},
		{
			"bufferView":221,
			"componentType":5126,
			"count":4,
			"type":"VEC3"
		},
		{
			"bufferView":222,
			"componentType":5126,
			"count":4,
			"type":"VEC2"
		},
		{
			"bufferView":223,
			"componentType":5126,
			"count":4,
			"type":"VEC4"
		},
		{
			"bufferView":224,
			"componentType":5126,
			"count":4,
			"max":[
				0.5,
				0.5,
				0.5
			],
			"min":[
				-0.5,
				0.5,
				-0.5
			],
			"type":"VEC3"
		},
		{
			"bufferView":225,
			"componentType":5126,
			"count":4,
			"type":"VEC3"
		},
		{
			"bufferView":226,
			"componentType":5126,
			"count":4,
			"type":"VEC2"
		},
		{
			"bufferView":227,
			"componentType":5126,
			"count":4,
			"type":"VEC4"
		},
		{
			"bufferView":228,
			"componentType":5126,
			"count":384,
			"max":[
				0.5,
				0.5,
				0.5
			],
			"min":[
				-0.5,
				-0.5,
				-0.5
			],
			"type":"VEC3"
		},
		{
			"bufferView":229,
			"componentType":5126,
			"count":384,
			"type":"VEC3"
		},
		{
			"bufferView":230,
			"componentType":5126,
			"count":384,
			"type":"VEC2"
		},
		{
			"bufferView":231,
			"componentType":5126,
			"count":384,
			"type":"VEC4"
		},
		{
			"bufferView":232,
			"componentType":5126,
			"count":75,
			"max":[
				0.5,
				0.5,
				0.5
			],
			"min":[
				-0.5,
				-0.5,
				-0.5
			],
			"type":"VEC3"
		},
		{
			"bufferView":233,
			"componentType":5126,
			"count":75,
			"type":"VEC3"
		},
		{
			"bufferView":234,
			"componentType":5126,
			"count":75,
			"type":"VEC2"
		},
		{
			"bufferView":235,
			"componentType":5126,
			"count":75,
			"type":"VEC4"
		},
		{
			"bufferView":236,
			"componentType":5126,
			"count":20,
			"max":[
				0.5,
				0.5,
				0.5
			],
			"min":[
				-0.5,
				-0.5,
				-0.5
			],
			"type":"VEC3"
		},
		{
			"bufferView":237,
			"componentType":5126,
			"count":20,
			"type":"VEC3"
		},
		{
			"bufferView":238,
			"componentType":5126,
			"count":20,
			"type":"VEC2"
		},
		{
			"bufferView":239,
			"componentType":5126,
			"count":20,
			"type":"VEC4"
		},
		{
			"bufferView":240,
			"componentType":5126,
			"count":4,
			"max":[
				0.5,
				0.5,
				0.5
			],
			"min":[
				-0.5,
				0.5,
				-0.5
			],
			"type":"VEC3"
		},
		{
			"bufferView":241,
			"componentType":5126,
			"count":4,
			"type":"VEC3"
		},
		{
			"bufferView":242,
			"componentType":5126,
			"count":4,
			"type":"VEC2"
		},
		{
			"bufferView":243,
			"componentType":5126,
			"count":4,
			"type":"VEC4"
		},
		{
			"bufferView":244,
			"componentType":5126,
			"count":4,
			"max":[
				0.5,
				0.5,
				0.5
			],
			"min":[
				-0.5,
				0.5,
				-0.5
			],
			"type":"VEC3"
		},
		{
			"bufferView":245,
			"componentType":5126,
			"count":4,
			"type":"VEC3"
		},
		{
			"bufferView":246,
			"componentType":5126,
			"count":4,
			"type":"VEC2"
		},
		{
			"bufferView":247,
			"componentType":5126,
			"count":4,
			"type":"VEC4"
		},
		{
			"bufferView":248,
			"componentType":5126,
			"count":384,
			"max":[
				0.5,
				0.5,
				0.5
			],
			"min":[
				-0.5,
				-0.5,
				-0.5
			],
			"type":"VEC3"
		},
		{
			"bufferView":249,
			"componentType":5126,
			"count":384,
			"type":"VEC3"
		},
		{
			"bufferView":250,
			"componentType":5126,
			"count":384,
			"type":"VEC2"
		},
		{
			"bufferView":251,
			"componentType":5126,
			"count":384,
			"type":"VEC4"
		},
		{
			"bufferView":252,
			"componentType":5126,
			"count":75,
			"max":[
				0.5,
				0.5,
				0.5
			],
			"min":[
				-0.5,
				-0.5,
				-0.5
			],
			"type":"VEC3"
		},
		{
			"bufferView":253,
			"componentType":5126,
			"count":75,
			"type":"VEC3"
		},
		{
			"bufferView":254,
			"componentType":5126,
			"count":75,
			"type":"VEC2"
		},
		{
			"bufferView":255,
			"componentType":5126,
			"count":75,
			"type":"VEC4"
		},
		{
			"bufferView":256,
			"componentType":5126,
			"count":20,
			"max":[
				0.5,
				0.5,
				0.5
			],
			"min":[
				-0.5,
				-0.5,
				-0.5
			],
			"type":"VEC3"
		},
		{
			"bufferView":257,
			"componentType":5126,
			"count":20,
			"type":"VEC3"
		},
		{
			"bufferView":258,
			"componentType":5126,
			"count":20,
			"type":"VEC2"
		},
		{
			"bufferView":259,
			"componentType":5126,
			"count":20,
			"type":"VEC4"
		},
		{
			"bufferView":260,
			"componentType":5126,
			"count":4,
			"max":[
				0.5,
				0,
				0.5
			],
			"min":[
				-0.5,
				0,
				-0.5
			],
			"type":"VEC3"
		},
		{
			"bufferView":261,
			"componentType":5126,
			"count":4,
			"type":"VEC3"
		},
		{
			"bufferView":262,
			"componentType":5126,
			"count":4,
			"type":"VEC2"
		},
		{
			"bufferView":263,
			"componentType":5126,
			"count":4,
			"type":"VEC4"
		},
		{
			"bufferView":264,
			"componentType":5126,
			"count":4,
			"max":[
				0.5,
				0,
				0.5
			],
			"min":[
				-0.5,
				0,
				-0.5
			],
			"type":"VEC3"
		},
		{
			"bufferView":265,
			"componentType":5126,
			"count":4,
			"type":"VEC3"
		},
		{
			"bufferView":266,
			"componentType":5126,
			"count":4,
			"type":"VEC2"
		},
		{
			"bufferView":267,
			"componentType":5126,
			"count":4,
			"type":"VEC4"
		},
		{
			"bufferView":268,
			"componentType":5126,
			"count":4,
			"max":[
				0.5,
				0,
				0.5
			],
			"min":[
				-0.5,
				0,
				-0.5
			],
			"type":"VEC3"
		},
		{
			"bufferView":269,
			"componentType":5126,
			"count":4,
			"type":"VEC3"
		},
		{
			"bufferView":270,
			"componentType":5126,
			"count":4,
			"type":"VEC2"
		},
		{
			"bufferView":271,
			"componentType":5126,
			"count":4,
			"type":"VEC4"
		},
		{
			"bufferView":272,
			"componentType":5126,
			"count":4,
			"max":[
				0.5,
				0,
				0.5
			],
			"min":[
				-0.5,
				0,
				-0.5
			],
			"type":"VEC3"
		},
		{
			"bufferView":273,
			"componentType":5126,
			"count":4,
			"type":"VEC3"
		},
		{
			"bufferView":274,
			"componentType":5126,
			"count":4,
			"type":"VEC2"
		},
		{
			"bufferView":275,
			"componentType":5126,
			"count":4,
			"type":"VEC4"
		},
		{
			"bufferView":276,
			"componentType":5126,
			"count":4,
			"max":[
				0.5,
				0,
				0.5
			],
			"min":[
				-0.5,
				0,
				-0.5
			],
			"type":"VEC3"
		},
		{
			"bufferView":277,
			"componentType":5126,
			"count":4,
			"type":"VEC3"
		},
		{
			"bufferView":278,
			"componentType":5126,
			"count":4,
			"type":"VEC2"
		},
		{
			"bufferView":279,
			"componentType":5126,
			"count":4,
			"type":"VEC4"
		},
		{
			"bufferView":280,
			"componentType":5126,
			"count":4,
			"max":[
				0.5,
				0,
				0.5
			],
			"min":[
				-0.5,
				0,
				-0.5
			],
			"type":"VEC3"
		},
		{
			"bufferView":281,
			"componentType":5126,
			"count":4,
			"type":"VEC3"
		},
		{
			"bufferView":282,
			"componentType":5126,
			"count":4,
			"type":"VEC2"
		},
		{
			"bufferView":283,
			"componentType":5126,
			"count":4,
			"type":"VEC4"
		},
		{
			"bufferView":284,
			"componentType":5126,
			"count":4,
			"max":[
				0.5,
				0,
				0.5
			],
			"min":[
				-0.5,
				0,
				-0.5
			],
			"type":"VEC3"
		},
		{
			"bufferView":285,
			"componentType":5126,
			"count":4,
			"type":"VEC3"
		},
		{
			"bufferView":286,
			"componentType":5126,
			"count":4,
			"type":"VEC2"
		},
		{
			"bufferView":287,
			"componentType":5126,
			"count":4,
			"type":"VEC4"
		},
		{
			"bufferView":288,
			"componentType":5126,
			"count":4,
			"max":[
				0.5,
				0,
				0.5
			],
			"min":[
				-0.5,
				0,
				-0.5
			],
			"type":"VEC3"
		},
		{
			"bufferView":289,
			"componentType":5126,
			"count":4,
			"type":"VEC3"
		},
		{
			"bufferView":290,
			"componentType":5126,
			"count":4,
			"type":"VEC2"
		},
		{
			"bufferView":291,
			"componentType":5126,
			"count":4,
			"type":"VEC4"
		},
		{
			"bufferView":292,
			"componentType":5126,
			"count":4,
			"max":[
				0.5,
				0.5,
				0.5
			],
			"min":[
				-0.5,
				0.5,
				-0.5
			],
			"type":"VEC3"
		},
		{
			"bufferView":293,
			"componentType":5126,
			"count":4,
			"type":"VEC3"
		},
		{
			"bufferView":294,
			"componentType":5126,
			"count":4,
			"type":"VEC2"
		},
		{
			"bufferView":295,
			"componentType":5126,
			"count":4,
			"type":"VEC4"
		},
		{
			"bufferView":296,
			"componentType":5126,
			"count":42,
			"max":[
				0.5,
				0.5,
				0.5
			],
			"min":[
				-0.5,
				-0.5,
				-0.5
			],
			"type":"VEC3"
		},
		{
			"bufferView":297,
			"componentType":5126,
			"count":42,
			"type":"VEC3"
		},
		{
			"bufferView":298,
			"componentType":5126,
			"count":42,
			"type":"VEC2"
		},
		{
			"bufferView":299,
			"componentType":5123,
			"count":72,
			"type":"SCALAR"
		},
		{
			"bufferView":300,
			"componentType":5126,
			"count":42,
			"max":[
				0.5,
				0.5,
				0.5
			],
			"min":[
				-0.5,
				-0.5,
				-0.5
			],
			"type":"VEC3"
		},
		{
			"bufferView":301,
			"componentType":5126,
			"count":42,
			"type":"VEC3"
		},
		{
			"bufferView":302,
			"componentType":5126,
			"count":42,
			"type":"VEC2"
		},
		{
			"bufferView":303,
			"componentType":5126,
			"count":42,
			"max":[
				0.5,
				0.5,
				0.5
			],
			"min":[
				-0.5,
				-0.5,
				-0.5
			],
			"type":"VEC3"
		},
		{
			"bufferView":304,
			"componentType":5126,
			"count":42,
			"type":"VEC3"
		},
		{
			"bufferView":305,
			"componentType":5126,
			"count":42,
			"type":"VEC2"
		},
		{
			"bufferView":306,
			"componentType":5126,
			"count":42,
			"max":[
				0.5,
				0.5,
				0.5
			],
			"min":[
				-0.5,
				-0.5,
				-0.5
			],
			"type":"VEC3"
		},
		{
			"bufferView":307,
			"componentType":5126,
			"count":42,
			"type":"VEC3"
		},
		{
			"bufferView":308,
			"componentType":5126,
			"count":42,
			"type":"VEC2"
		},
		{
			"bufferView":309,
			"componentType":5126,
			"count":42,
			"max":[
				0.5,
				0.5,
				0.5
			],
			"min":[
				-0.5,
				-0.5,
				-0.5
			],
			"type":"VEC3"
		},
		{
			"bufferView":310,
			"componentType":5126,
			"count":42,
			"type":"VEC3"
		},
		{
			"bufferView":311,
			"componentType":5126,
			"count":42,
			"type":"VEC2"
		},
		{
			"bufferView":312,
			"componentType":5126,
			"count":96,
			"max":[
				0.5,
				0.5,
				0.5
			],
			"min":[
				-0.5,
				-0.5,
				-0.5
			],
			"type":"VEC3"
		},
		{
			"bufferView":313,
			"componentType":5126,
			"count":96,
			"type":"VEC3"
		},
		{
			"bufferView":314,
			"componentType":5126,
			"count":96,
			"type":"VEC2"
		},
		{
			"bufferView":315,
			"componentType":5123,
			"count":156,
			"type":"SCALAR"
		},
		{
			"bufferView":316,
			"componentType":5126,
			"count":96,
			"max":[
				0.5,
				0.5,
				0.5
			],
			"min":[
				-0.5,
				-0.5,
				-0.5
			],
			"type":"VEC3"
		},
		{
			"bufferView":317,
			"componentType":5126,
			"count":96,
			"type":"VEC3"
		},
		{
			"bufferView":318,
			"componentType":5126,
			"count":96,
			"type":"VEC2"
		},
		{
			"bufferView":319,
			"componentType":5126,
			"count":96,
			"max":[
				0.5,
				0.5,
				0.5
			],
			"min":[
				-0.5,
				-0.5,
				-0.5
			],
			"type":"VEC3"
		},
		{
			"bufferView":320,
			"componentType":5126,
			"count":96,
			"type":"VEC3"
		},
		{
			"bufferView":321,
			"componentType":5126,
			"count":96,
			"type":"VEC2"
		},
		{
			"bufferView":322,
			"componentType":5126,
			"count":96,
			"max":[
				0.5,
				0.5,
				0.5
			],
			"min":[
				-0.5,
				-0.5,
				-0.5
			],
			"type":"VEC3"
		},
		{
			"bufferView":323,
			"componentType":5126,
			"count":96,
			"type":"VEC3"
		},
		{
			"bufferView":324,
			"componentType":5126,
			"count":96,
			"type":"VEC2"
		},
		{
			"bufferView":325,
			"componentType":5126,
			"count":96,
			"max":[
				0.5,
				0.5,
				0.5
			],
			"min":[
				-0.5,
				-0.5,
				-0.5
			],
			"type":"VEC3"
		},
		{
			"bufferView":326,
			"componentType":5126,
			"count":96,
			"type":"VEC3"
		},
		{
			"bufferView":327,
			"componentType":5126,
			"count":96,
			"type":"VEC2"
		},
		{
			"bufferView":328,
			"componentType":5126,
			"count":42,
			"max":[
				0.5,
				0,
				0.5
			],
			"min":[
				-0.5,
				-0.5,
				-0.5
			],
			"type":"VEC3"
		},
		{
			"bufferView":329,
			"componentType":5126,
			"count":42,
			"type":"VEC3"
		},
		{
			"bufferView":330,
			"componentType":5126,
			"count":42,
			"type":"VEC2"
		},
		{
			"bufferView":331,
			"componentType":5126,
			"count":96,
			"max":[
				0.5,
				0,
				0.5
			],
			"min":[
				-0.5,
				-0.5,
				-0.5
			],
			"type":"VEC3"
		},
		{
			"bufferView":332,
			"componentType":5126,
			"count":96,
			"type":"VEC3"
		},
		{
			"bufferView":333,
			"componentType":5126,
			"count":96,
			"type":"VEC2"
		},
		{
			"bufferView":334,
			"componentType":5126,
			"count":60,
			"max":[
				0.5,
				0.5,
				0.5
			],
			"min":[
				-0.5,
				-0.5,
				-0.5
			],
			"type":"VEC3"
		},
		{
			"bufferView":335,
			"componentType":5126,
			"count":60,
			"type":"VEC3"
		},
		{
			"bufferView":336,
			"componentType":5126,
			"count":60,
			"type":"VEC2"
		},
		{
			"bufferView":337,
			"componentType":5123,
			"count":108,
			"type":"SCALAR"
		},
		{
			"bufferView":338,
			"componentType":5126,
			"count":60,
			"max":[
				0.5,
				0,
				0.5
			],
			"min":[
				-0.5,
				-0.5,
				-0.5
			],
			"type":"VEC3"
		},
		{
			"bufferView":339,
			"componentType":5126,
			"count":60,
			"type":"VEC3"
		},
		{
			"bufferView":340,
			"componentType":5126,
			"count":60,
			"type":"VEC2"
		}
	],
	"bufferViews":[
		{
			"buffer":0,
			"byteLength":4608,
			"byteOffset":0,
			"target":34962
		},
		{
			"buffer":0,
			"byteLength":4608,
			"byteOffset":4608,
			"target":34962
		},
		{
			"buffer":0,
			"byteLength":3072,
			"byteOffset":9216,
			"target":34962
		},
		{
			"buffer":0,
			"byteLength":6144,
			"byteOffset":12288,
			"target":34962
		},
		{
			"buffer":0,
			"byteLength":1128,
			"byteOffset":18432,
			"target":34963
		},
		{
			"buffer":0,
			"byteLength":4608,
			"byteOffset":19560,
			"target":34962
		},
		{
			"buffer":0,
			"byteLength":4608,
			"byteOffset":24168,
			"target":34962
		},
		{
			"buffer":0,
			"byteLength":3072,
			"byteOffset":28776,
			"target":34962
		},
		{
			"buffer":0,
			"byteLength":6144,
			"byteOffset":31848,
			"target":34962
		},
		{
			"buffer":0,
			"byteLength":900,
			"byteOffset":37992,
			"target":34962
		},
		{
			"buffer":0,
			"byteLength":900,
			"byteOffset":38892,
			"target":34962
		},
		{
			"buffer":0,
			"byteLength":600,
			"byteOffset":39792,
			"target":34962
		},
		{
			"buffer":0,
			"byteLength":1200,
			"byteOffset":40392,
			"target":34962
		},
		{
			"buffer":0,
			"byteLength":222,
			"byteOffset":41592,
			"target":34963
		},
		{
			"buffer":0,
			"byteLength":240,
			"byteOffset":41816,
			"target":34962
		},
		{
			"buffer":0,
			"byteLength":240,
			"byteOffset":42056,
			"target":34962
		},
		{
			"buffer":0,
			"byteLength":160,
			"byteOffset":42296,
			"target":34962
		},
		{
			"buffer":0,
			"byteLength":320,
			"byteOffset":42456,
			"target":34962
		},
		{
			"buffer":0,
			"byteLength":60,
			"byteOffset":42776,
			"target":34963
		},
		{
			"buffer":0,
			"byteLength":48,
			"byteOffset":42836,
			"target":34962
		},
		{
			"buffer":0,
			"byteLength":48,
			"byteOffset":42884,
			"target":34962
		},
		{
			"buffer":0,
			"byteLength":32,
			"byteOffset":42932,
			"target":34962
		},
		{
			"buffer":0,
			"byteLength":64,
			"byteOffset":42964,
			"target":34962
		},
		{
			"buffer":0,
			"byteLength":12,
			"byteOffset":43028,
			"target":34963
		},
		{
			"buffer":0,
			"byteLength":900,
			"byteOffset":43040,
			"target":34962
		},
		{
			"buffer":0,
			"byteLength":900,
			"byteOffset":43940,
			"target":34962
		},
		{
			"buffer":0,
			"byteLength":600,
			"byteOffset":44840,
			"target":34962
		},
		{
			"buffer":0,
			"byteLength":1200,
			"byteOffset":45440,
			"target":34962
		},
		{
			"buffer":0,
			"byteLength":240,
			"byteOffset":46640,
			"target":34962
		},
		{
			"buffer":0,
			"byteLength":240,
			"byteOffset":46880,
			"target":34962
		},
		{
			"buffer":0,
			"byteLength":160,
			"byteOffset":47120,
			"target":34962
		},
		{
			"buffer":0,
			"byteLength":320,
			"byteOffset":47280,
			"target":34962
		},
		{
			"buffer":0,
			"byteLength":48,
			"byteOffset":47600,
			"target":34962
		},
		{
			"buffer":0,
			"byteLength":48,
			"byteOffset":47648,
			"target":34962
		},
		{
			"buffer":0,
			"byteLength":32,
			"byteOffset":47696,
			"target":34962
		},
		{
			"buffer":0,
			"byteLength":64,
			"byteOffset":47728,
			"target":34962
		},
		{
			"buffer":0,
			"byteLength":48,
			"byteOffset":47792,
			"target":34962
		},
		{
			"buffer":0,
			"byteLength":48,
			"byteOffset":47840,
			"target":34962
		},
		{
			"buffer":0,
			"byteLength":32,
			"byteOffset":47888,
			"target":34962
		},
		{
			"buffer":0,
			"byteLength":64,
			"byteOffset":47920,
			"target":34962
		},
		{
			"buffer":0,
			"byteLength":48,
			"byteOffset":47984,
			"target":34962
		},
		{
			"buffer":0,
			"byteLength":48,
			"byteOffset":48032,
			"target":34962
		},
		{
			"buffer":0,
			"byteLength":32,
			"byteOffset":48080,
			"target":34962
		},
		{
			"buffer":0,
			"byteLength":64,
			"byteOffset":48112,
			"target":34962
		},
		{
			"buffer":0,
			"byteLength":48,
			"byteOffset":48176,
			"target":34962
		},
		{
			"buffer":0,
			"byteLength":48,
			"byteOffset":48224,
			"target":34962
		},
		{
			"buffer":0,
			"byteLength":32,
			"byteOffset":48272,
			"target":34962
		},
		{
			"buffer":0,
			"byteLength":64,
			"byteOffset":48304,
			"target":34962
		},
		{
			"buffer":0,
			"byteLength":48,
			"byteOffset":48368,
			"target":34962
		},
		{
			"buffer":0,
			"byteLength":48,
			"byteOffset":48416,
			"target":34962
		},
		{
			"buffer":0,
			"byteLength":32,
			"byteOffset":48464,
			"target":34962
		},
		{
			"buffer":0,
			"byteLength":64,
			"byteOffset":48496,
			"target":34962
		},
		{
			"buffer":0,
			"byteLength":48,
			"byteOffset":48560,
			"target":34962
		},
		{
			"buffer":0,
			"byteLength":48,
			"byteOffset":48608,
			"target":34962
		},
		{
			"buffer":0,
			"byteLength":32,
			"byteOffset":48656,
			"target":34962
		},
		{
			"buffer":0,
			"byteLength":64,
			"byteOffset":48688,
			"target":34962
		},
		{
			"buffer":0,
			"byteLength":48,
			"byteOffset":48752,
			"target":34962
		},
		{
			"buffer":0,
			"byteLength":48,
			"byteOffset":48800,
			"target":34962
		},
		{
			"buffer":0,
			"byteLength":32,
			"byteOffset":48848,
			"target":34962
		},
		{
			"buffer":0,
			"byteLength":64,
			"byteOffset":48880,
			"target":34962
		},
		{
			"buffer":0,
			"byteLength":48,
			"byteOffset":48944,
			"target":34962
		},
		{
			"buffer":0,
			"byteLength":48,
			"byteOffset":48992,
			"target":34962
		},
		{
			"buffer":0,
			"byteLength":32,
			"byteOffset":49040,
			"target":34962
		},
		{
			"buffer":0,
			"byteLength":64,
			"byteOffset":49072,
			"target":34962
		},
		{
			"buffer":0,
			"byteLength":48,
			"byteOffset":49136,
			"target":34962
		},
		{
			"buffer":0,
			"byteLength":48,
			"byteOffset":49184,
			"target":34962
		},
		{
			"buffer":0,
			"byteLength":32,
			"byteOffset":49232,
			"target":34962
		},
		{
			"buffer":0,
			"byteLength":64,
			"byteOffset":49264,
			"target":34962
		},
		{
			"buffer":0,
			"byteLength":48,
			"byteOffset":49328,
			"target":34962
		},
		{
			"buffer":0,
			"byteLength":48,
			"byteOffset":49376,
			"target":34962
		},
		{
			"buffer":0,
			"byteLength":32,
			"byteOffset":49424,
			"target":34962
		},
		{
			"buffer":0,
			"byteLength":64,
			"byteOffset":49456,
			"target":34962
		},
		{
			"buffer":0,
			"byteLength":48,
			"byteOffset":49520,
			"target":34962
		},
		{
			"buffer":0,
			"byteLength":48,
			"byteOffset":49568,
			"target":34962
		},
		{
			"buffer":0,
			"byteLength":32,
			"byteOffset":49616,
			"target":34962
		},
		{
			"buffer":0,
			"byteLength":64,
			"byteOffset":49648,
			"target":34962
		},
		{
			"buffer":0,
			"byteLength":48,
			"byteOffset":49712,
			"target":34962
		},
		{
			"buffer":0,
			"byteLength":48,
			"byteOffset":49760,
			"target":34962
		},
		{
			"buffer":0,
			"byteLength":32,
			"byteOffset":49808,
			"target":34962
		},
		{
			"buffer":0,
			"byteLength":64,
			"byteOffset":49840,
			"target":34962
		},
		{
			"buffer":0,
			"byteLength":48,
			"byteOffset":49904,
			"target":34962
		},
		{
			"buffer":0,
			"byteLength":48,
			"byteOffset":49952,
			"target":34962
		},
		{
			"buffer":0,
			"byteLength":32,
			"byteOffset":50000,
			"target":34962
		},
		{
			"buffer":0,
			"byteLength":64,
			"byteOffset":50032,
			"target":34962
		},
		{
			"buffer":0,
			"byteLength":48,
			"byteOffset":50096,
			"target":34962
		},
		{
			"buffer":0,
			"byteLength":48,
			"byteOffset":50144,
			"target":34962
		},
		{
			"buffer":0,
			"byteLength":32,
			"byteOffset":50192,
			"target":34962
		},
		{
			"buffer":0,
			"byteLength":64,
			"byteOffset":50224,
			"target":34962
		},
		{
			"buffer":0,
			"byteLength":48,
			"byteOffset":50288,
			"target":34962
		},
		{
			"buffer":0,
			"byteLength":48,
			"byteOffset":50336,
			"target":34962
		},
		{
			"buffer":0,
			"byteLength":32,
			"byteOffset":50384,
			"target":34962
		},
		{
			"buffer":0,
			"byteLength":64,
			"byteOffset":50416,
			"target":34962
		},
		{
			"buffer":0,
			"byteLength":48,
			"byteOffset":50480,
			"target":34962
		},
		{
			"buffer":0,
			"byteLength":48,
			"byteOffset":50528,
			"target":34962
		},
		{
			"buffer":0,
			"byteLength":32,
			"byteOffset":50576,
			"target":34962
		},
		{
			"buffer":0,
			"byteLength":64,
			"byteOffset":50608,
			"target":34962
		},
		{
			"buffer":0,
			"byteLength":48,
			"byteOffset":50672,
			"target":34962
		},
		{
			"buffer":0,
			"byteLength":48,
			"byteOffset":50720,
			"target":34962
		},
		{
			"buffer":0,
			"byteLength":32,
			"byteOffset":50768,
			"target":34962
		},
		{
			"buffer":0,
			"byteLength":64,
			"byteOffset":50800,
			"target":34962
		},
		{
			"buffer":0,
			"byteLength":48,
			"byteOffset":50864,
			"target":34962
		},
		{
			"buffer":0,
			"byteLength":48,
			"byteOffset":50912,
			"target":34962
		},
		{
			"buffer":0,
			"byteLength":32,
			"byteOffset":50960,
			"target":34962
		},
		{
			"buffer":0,
			"byteLength":64,
			"byteOffset":50992,
			"target":34962
		},
		{
			"buffer":0,
			"byteLength":48,
			"byteOffset":51056,
			"target":34962
		},
		{
			"buffer":0,
			"byteLength":48,
			"byteOffset":51104,
			"target":34962
		},
		{
			"buffer":0,
			"byteLength":32,
			"byteOffset":51152,
			"target":34962
		},
		{
			"buffer":0,
			"byteLength":64,
			"byteOffset":51184,
			"target":34962
		},
		{
			"buffer":0,
			"byteLength":48,
			"byteOffset":51248,
			"target":34962
		},
		{
			"buffer":0,
			"byteLength":48,
			"byteOffset":51296,
			"target":34962
		},
		{
			"buffer":0,
			"byteLength":32,
			"byteOffset":51344,
			"target":34962
		},
		{
			"buffer":0,
			"byteLength":64,
			"byteOffset":51376,
			"target":34962
		},
		{
			"buffer":0,
			"byteLength":48,
			"byteOffset":51440,
			"target":34962
		},
		{
			"buffer":0,
			"byteLength":48,
			"byteOffset":51488,
			"target":34962
		},
		{
			"buffer":0,
			"byteLength":32,
			"byteOffset":51536,
			"target":34962
		},
		{
			"buffer":0,
			"byteLength":64,
			"byteOffset":51568,
			"target":34962
		},
		{
			"buffer":0,
			"byteLength":48,
			"byteOffset":51632,
			"target":34962
		},
		{
			"buffer":0,
			"byteLength":48,
			"byteOffset":51680,
			"target":34962
		},
		{
			"buffer":0,
			"byteLength":32,
			"byteOffset":51728,
			"target":34962
		},
		{
			"buffer":0,
			"byteLength":64,
			"byteOffset":51760,
			"target":34962
		},
		{
			"buffer":0,
			"byteLength":48,
			"byteOffset":51824,
			"target":34962
		},
		{
			"buffer":0,
			"byteLength":48,
			"byteOffset":51872,
			"target":34962
		},
		{
			"buffer":0,
			"byteLength":32,
			"byteOffset":51920,
			"target":34962
		},
		{
			"buffer":0,
			"byteLength":64,
			"byteOffset":51952,
			"target":34962
		},
		{
			"buffer":0,
			"byteLength":48,
			"byteOffset":52016,
			"target":34962
		},
		{
			"buffer":0,
			"byteLength":48,
			"byteOffset":52064,
			"target":34962
		},
		{
			"buffer":0,
			"byteLength":32,
			"byteOffset":52112,
			"target":34962
		},
		{
			"buffer":0,
			"byteLength":64,
			"byteOffset":52144,
			"target":34962
		},
		{
			"buffer":0,
			"byteLength":48,
			"byteOffset":52208,
			"target":34962
		},
		{
			"buffer":0,
			"byteLength":48,
			"byteOffset":52256,
			"target":34962
		},
		{
			"buffer":0,
			"byteLength":32,
			"byteOffset":52304,
			"target":34962
		},
		{
			"buffer":0,
			"byteLength":64,
			"byteOffset":52336,
			"target":34962
		},
		{
			"buffer":0,
			"byteLength":48,
			"byteOffset":52400,
			"target":34962
		},
		{
			"buffer":0,
			"byteLength":48,
			"byteOffset":52448,
			"target":34962
		},
		{
			"buffer":0,
			"byteLength":32,
			"byteOffset":52496,
			"target":34962
		},
		{
			"buffer":0,
			"byteLength":64,
			"byteOffset":52528,
			"target":34962
		},
		{
			"buffer":0,
			"byteLength":48,
			"byteOffset":52592,
			"target":34962
		},
		{
			"buffer":0,
			"byteLength":48,
			"byteOffset":52640,
			"target":34962
		},
		{
			"buffer":0,
			"byteLength":32,
			"byteOffset":52688,
			"target":34962
		},
		{
			"buffer":0,
			"byteLength":64,
			"byteOffset":52720,
			"target":34962
		},
		{
			"buffer":0,
			"byteLength":48,
			"byteOffset":52784,
			"target":34962
		},
		{
			"buffer":0,
			"byteLength":48,
			"byteOffset":52832,
			"target":34962
		},
		{
			"buffer":0,
			"byteLength":32,
			"byteOffset":52880,
			"target":34962
		},
		{
			"buffer":0,
			"byteLength":64,
			"byteOffset":52912,
			"target":34962
		},
		{
			"buffer":0,
			"byteLength":48,
			"byteOffset":52976,
			"target":34962
		},
		{
			"buffer":0,
			"byteLength":48,
			"byteOffset":53024,
			"target":34962
		},
		{
			"buffer":0,
			"byteLength":32,
			"byteOffset":53072,
			"target":34962
		},
		{
			"buffer":0,
			"byteLength":64,
			"byteOffset":53104,
			"target":34962
		},
		{
			"buffer":0,
			"byteLength":48,
			"byteOffset":53168,
			"target":34962
		},
		{
			"buffer":0,
			"byteLength":48,
			"byteOffset":53216,
			"target":34962
		},
		{
			"buffer":0,
			"byteLength":32,
			"byteOffset":53264,
			"target":34962
		},
		{
			"buffer":0,
			"byteLength":64,
			"byteOffset":53296,
			"target":34962
		},
		{
			"buffer":0,
			"byteLength":48,
			"byteOffset":53360,
			"target":34962
		},
		{
			"buffer":0,
			"byteLength":48,
			"byteOffset":53408,
			"target":34962
		},
		{
			"buffer":0,
			"byteLength":32,
			"byteOffset":53456,
			"target":34962
		},
		{
			"buffer":0,
			"byteLength":64,
			"byteOffset":53488,
			"target":34962
		},
		{
			"buffer":0,
			"byteLength":48,
			"byteOffset":53552,
			"target":34962
		},
		{
			"buffer":0,
			"byteLength":48,
			"byteOffset":53600,
			"target":34962
		},
		{
			"buffer":0,
			"byteLength":32,
			"byteOffset":53648,
			"target":34962
		},
		{
			"buffer":0,
			"byteLength":64,
			"byteOffset":53680,
			"target":34962
		},
		{
			"buffer":0,
			"byteLength":48,
			"byteOffset":53744,
			"target":34962
		},
		{
			"buffer":0,
			"byteLength":48,
			"byteOffset":53792,
			"target":34962
		},
		{
			"buffer":0,
			"byteLength":32,
			"byteOffset":53840,
			"target":34962
		},
		{
			"buffer":0,
			"byteLength":64,
			"byteOffset":53872,
			"target":34962
		},
		{
			"buffer":0,
			"byteLength":48,
			"byteOffset":53936,
			"target":34962
		},
		{
			"buffer":0,
			"byteLength":48,
			"byteOffset":53984,
			"target":34962
		},
		{
			"buffer":0,
			"byteLength":32,
			"byteOffset":54032,
			"target":34962
		},
		{
			"buffer":0,
			"byteLength":64,
			"byteOffset":54064,
			"target":34962
		},
		{
			"buffer":0,
			"byteLength":48,
			"byteOffset":54128,
			"target":34962
		},
		{
			"buffer":0,
			"byteLength":48,
			"byteOffset":54176,
			"target":34962
		},
		{
			"buffer":0,
			"byteLength":32,
			"byteOffset":54224,
			"target":34962
		},
		{
			"buffer":0,
			"byteLength":64,
			"byteOffset":54256,
			"target":34962
		},
		{
			"buffer":0,
			"byteLength":48,
			"byteOffset":54320,
			"target":34962
		},
		{
			"buffer":0,
			"byteLength":48,
			"byteOffset":54368,
			"target":34962
		},
		{
			"buffer":0,
			"byteLength":32,
			"byteOffset":54416,
			"target":34962
		},
		{
			"buffer":0,
			"byteLength":64,
			"byteOffset":54448,
			"target":34962
		},
		{
			"buffer":0,
			"byteLength":48,
			"byteOffset":54512,
			"target":34962
		},
		{
			"buffer":0,
			"byteLength":48,
			"byteOffset":54560,
			"target":34962
		},
		{
			"buffer":0,
			"byteLength":32,
			"byteOffset":54608,
			"target":34962
		},
		{
			"buffer":0,
			"byteLength":64,
			"byteOffset":54640,
			"target":34962
		},
		{
			"buffer":0,
			"byteLength":4608,
			"byteOffset":54704,
			"target":34962
		},
		{
			"buffer":0,
			"byteLength":4608,
			"byteOffset":59312,
			"target":34962
		},
		{
			"buffer":0,
			"byteLength":3072,
			"byteOffset":63920,
			"target":34962
		},
		{
			"buffer":0,
			"byteLength":6144,
			"byteOffset":66992,
			"target":34962
		},
		{
			"buffer":0,
			"byteLength":900,
			"byteOffset":73136,
			"target":34962
		},
		{
			"buffer":0,
			"byteLength":900,
			"byteOffset":74036,
			"target":34962
		},
		{
			"buffer":0,
			"byteLength":600,
			"byteOffset":74936,
			"target":34962
		},
		{
			"buffer":0,
			"byteLength":1200,
			"byteOffset":75536,
			"target":34962
		},
		{
			"buffer":0,
			"byteLength":240,
			"byteOffset":76736,
			"target":34962
		},
		{
			"buffer":0,
			"byteLength":240,
			"byteOffset":76976,
			"target":34962
		},
		{
			"buffer":0,
			"byteLength":160,
			"byteOffset":77216,
			"target":34962
		},
		{
			"buffer":0,
			"byteLength":320,
			"byteOffset":77376,
			"target":34962
		},
		{
			"buffer":0,
			"byteLength":4608,
			"byteOffset":77696,
			"target":34962
		},
		{
			"buffer":0,
			"byteLength":4608,
			"byteOffset":82304,
			"target":34962
		},
		{
			"buffer":0,
			"byteLength":3072,
			"byteOffset":86912,
			"target":34962
		},
		{
			"buffer":0,
			"byteLength":6144,
			"byteOffset":89984,
			"target":34962
		},
		{
			"buffer":0,
			"byteLength":4608,
			"byteOffset":96128,
			"target":34962
		},
		{
			"buffer":0,
			"byteLength":4608,
			"byteOffset":100736,
			"target":34962
		},
		{
			"buffer":0,
			"byteLength":3072,
			"byteOffset":105344,
			"target":34962
		},
		{
			"buffer":0,
			"byteLength":6144,
			"byteOffset":108416,
			"target":34962
		},
		{
			"buffer":0,
			"byteLength":900,
			"byteOffset":114560,
			"target":34962
		},
		{
			"buffer":0,
			"byteLength":900,
			"byteOffset":115460,
			"target":34962
		},
		{
			"buffer":0,
			"byteLength":600,
			"byteOffset":116360,
			"target":34962
		},
		{
			"buffer":0,
			"byteLength":1200,
			"byteOffset":116960,
			"target":34962
		},
		{
			"buffer":0,
			"byteLength":240,
			"byteOffset":118160,
			"target":34962
		},
		{
			"buffer":0,
			"byteLength":240,
			"byteOffset":118400,
			"target":34962
		},
		{
			"buffer":0,
			"byteLength":160,
			"byteOffset":118640,
			"target":34962
		},
		{
			"buffer":0,
			"byteLength":320,
			"byteOffset":118800,
			"target":34962
		},
		{
			"buffer":0,
			"byteLength":48,
			"byteOffset":119120,
			"target":34962
		},
		{
			"buffer":0,
			"byteLength":48,
			"byteOffset":119168,
			"target":34962
		},
		{
			"buffer":0,
			"byteLength":32,
			"byteOffset":119216,
			"target":34962
		},
		{
			"buffer":0,
			"byteLength":64,
			"byteOffset":119248,
			"target":34962
		},
		{
			"buffer":0,
			"byteLength":48,
			"byteOffset":119312,
			"target":34962
		},
		{
			"buffer":0,
			"byteLength":48,
			"byteOffset":119360,
			"target":34962
		},
		{
			"buffer":0,
			"byteLength":32,
			"byteOffset":119408,
			"target":34962
		},
		{
			"buffer":0,
			"byteLength":64,
			"byteOffset":119440,
			"target":34962
		},
		{
			"buffer":0,
			"byteLength":48,
			"byteOffset":119504,
			"target":34962
		},
		{
			"buffer":0,
			"byteLength":48,
			"byteOffset":119552,
			"target":34962
		},
		{
			"buffer":0,
			"byteLength":32,
			"byteOffset":119600,
			"target":34962
		},
		{
			"buffer":0,
			"byteLength":64,
			"byteOffset":119632,
			"target":34962
		},
		{
			"buffer":0,
			"byteLength":48,
			"byteOffset":119696,
			"target":34962
		},
		{
			"buffer":0,
			"byteLength":48,
			"byteOffset":119744,
			"target":34962
		},
		{
			"buffer":0,
			"byteLength":32,
			"byteOffset":119792,
			"target":34962
		},
		{
			"buffer":0,
			"byteLength":64,
			"byteOffset":119824,
			"target":34962
		},
		{
			"buffer":0,
			"byteLength":48,
			"byteOffset":119888,
			"target":34962
		},
		{
			"buffer":0,
			"byteLength":48,
			"byteOffset":119936,
			"target":34962
		},
		{
			"buffer":0,
			"byteLength":32,
			"byteOffset":119984,
			"target":34962
		},
		{
			"buffer":0,
			"byteLength":64,
			"byteOffset":120016,
			"target":34962
		},
		{
			"buffer":0,
			"byteLength":4608,
			"byteOffset":120080,
			"target":34962
		},
		{
			"buffer":0,
			"byteLength":4608,
			"byteOffset":124688,
			"target":34962
		},
		{
			"buffer":0,
			"byteLength":3072,
			"byteOffset":129296,
			"target":34962
		},
		{
			"buffer":0,
			"byteLength":6144,
			"byteOffset":132368,
			"target":34962
		},
		{
			"buffer":0,
			"byteLength":900,
			"byteOffset":138512,
			"target":34962
		},
		{
			"buffer":0,
			"byteLength":900,
			"byteOffset":139412,
			"target":34962
		},
		{
			"buffer":0,
			"byteLength":600,
			"byteOffset":140312,
			"target":34962
		},
		{
			"buffer":0,
			"byteLength":1200,
			"byteOffset":140912,
			"target":34962
		},
		{
			"buffer":0,
			"byteLength":240,
			"byteOffset":142112,
			"target":34962
		},
		{
			"buffer":0,
			"byteLength":240,
			"byteOffset":142352,
			"target":34962
		},
		{
			"buffer":0,
			"byteLength":160,
			"byteOffset":142592,
			"target":34962
		},
		{
			"buffer":0,
			"byteLength":320,
			"byteOffset":142752,
			"target":34962
		},
		{
			"buffer":0,
			"byteLength":48,
			"byteOffset":143072,
			"target":34962
		},
		{
			"buffer":0,
			"byteLength":48,
			"byteOffset":143120,
			"target":34962
		},
		{
			"buffer":0,
			"byteLength":32,
			"byteOffset":143168,
			"target":34962
		},
		{
			"buffer":0,
			"byteLength":64,
			"byteOffset":143200,
			"target":34962
		},
		{
			"buffer":0,
			"byteLength":48,
			"byteOffset":143264,
			"target":34962
		},
		{
			"buffer":0,
			"byteLength":48,
			"byteOffset":143312,
			"target":34962
		},
		{
			"buffer":0,
			"byteLength":32,
			"byteOffset":143360,
			"target":34962
		},
		{
			"buffer":0,
			"byteLength":64,
			"byteOffset":143392,
			"target":34962
		},
		{
			"buffer":0,
			"byteLength":4608,
			"byteOffset":143456,
			"target":34962
		},
		{
			"buffer":0,
			"byteLength":4608,
			"byteOffset":148064,
			"target":34962
		},
		{
			"buffer":0,
			"byteLength":3072,
			"byteOffset":152672,
			"target":34962
		},
		{
			"buffer":0,
			"byteLength":6144,
			"byteOffset":155744,
			"target":34962
		},
		{
			"buffer":0,
			"byteLength":900,
			"byteOffset":161888,
			"target":34962
		},
		{
			"buffer":0,
			"byteLength":900,
			"byteOffset":162788,
			"target":34962
		},
		{
			"buffer":0,
			"byteLength":600,
			"byteOffset":163688,
			"target":34962
		},
		{
			"buffer":0,
			"byteLength":1200,
			"byteOffset":164288,
			"target":34962
		},
		{
			"buffer":0,
			"byteLength":240,
			"byteOffset":165488,
			"target":34962
		},
		{
			"buffer":0,
			"byteLength":240,
			"byteOffset":165728,
			"target":34962
		},
		{
			"buffer":0,
			"byteLength":160,
			"byteOffset":165968,
			"target":34962
		},
		{
			"buffer":0,
			"byteLength":320,
			"byteOffset":166128,
			"target":34962
		},
		{
			"buffer":0,
			"byteLength":48,
			"byteOffset":166448,
			"target":34962
		},
		{
			"buffer":0,
			"byteLength":48,
			"byteOffset":166496,
			"target":34962
		},
		{
			"buffer":0,
			"byteLength":32,
			"byteOffset":166544,
			"target":34962
		},
		{
			"buffer":0,
			"byteLength":64,
			"byteOffset":166576,
			"target":34962
		},
		{
			"buffer":0,
			"byteLength":48,
			"byteOffset":166640,
			"target":34962
		},
		{
			"buffer":0,
			"byteLength":48,
			"byteOffset":166688,
			"target":34962
		},
		{
			"buffer":0,
			"byteLength":32,
			"byteOffset":166736,
			"target":34962
		},
		{
			"buffer":0,
			"byteLength":64,
			"byteOffset":166768,
			"target":34962
		},
		{
			"buffer":0,
			"byteLength":48,
			"byteOffset":166832,
			"target":34962
		},
		{
			"buffer":0,
			"byteLength":48,
			"byteOffset":166880,
			"target":34962
		},
		{
			"buffer":0,
			"byteLength":32,
			"byteOffset":166928,
			"target":34962
		},
		{
			"buffer":0,
			"byteLength":64,
			"byteOffset":166960,
			"target":34962
		},
		{
			"buffer":0,
			"byteLength":48,
			"byteOffset":167024,
			"target":34962
		},
		{
			"buffer":0,
			"byteLength":48,
			"byteOffset":167072,
			"target":34962
		},
		{
			"buffer":0,
			"byteLength":32,
			"byteOffset":167120,
			"target":34962
		},
		{
			"buffer":0,
			"byteLength":64,
			"byteOffset":167152,
			"target":34962
		},
		{
			"buffer":0,
			"byteLength":48,
			"byteOffset":167216,
			"target":34962
		},
		{
			"buffer":0,
			"byteLength":48,
			"byteOffset":167264,
			"target":34962
		},
		{
			"buffer":0,
			"byteLength":32,
			"byteOffset":167312,
			"target":34962
		},
		{
			"buffer":0,
			"byteLength":64,
			"byteOffset":167344,
			"target":34962
		},
		{
			"buffer":0,
			"byteLength":48,
			"byteOffset":167408,
			"target":34962
		},
		{
			"buffer":0,
			"byteLength":48,
			"byteOffset":167456,
			"target":34962
		},
		{
			"buffer":0,
			"byteLength":32,
			"byteOffset":167504,
			"target":34962
		},
		{
			"buffer":0,
			"byteLength":64,
			"byteOffset":167536,
			"target":34962
		},
		{
			"buffer":0,
			"byteLength":48,
			"byteOffset":167600,
			"target":34962
		},
		{
			"buffer":0,
			"byteLength":48,
			"byteOffset":167648,
			"target":34962
		},
		{
			"buffer":0,
			"byteLength":32,
			"byteOffset":167696,
			"target":34962
		},
		{
			"buffer":0,
			"byteLength":64,
			"byteOffset":167728,
			"target":34962
		},
		{
			"buffer":0,
			"byteLength":48,
			"byteOffset":167792,
			"target":34962
		},
		{
			"buffer":0,
			"byteLength":48,
			"byteOffset":167840,
			"target":34962
		},
		{
			"buffer":0,
			"byteLength":32,
			"byteOffset":167888,
			"target":34962
		},
		{
			"buffer":0,
			"byteLength":64,
			"byteOffset":167920,
			"target":34962
		},
		{
			"buffer":0,
			"byteLength":48,
			"byteOffset":167984,
			"target":34962
		},
		{
			"buffer":0,
			"byteLength":48,
			"byteOffset":168032,
			"target":34962
		},
		{
			"buffer":0,
			"byteLength":32,
			"byteOffset":168080,
			"target":34962
		},
		{
			"buffer":0,
			"byteLength":64,
			"byteOffset":168112,
			"target":34962
		},
		{
			"buffer":0,
			"byteLength":504,
			"byteOffset":168176,
			"target":34962
		},
		{
			"buffer":0,
			"byteLength":504,
			"byteOffset":168680,
			"target":34962
		},
		{
			"buffer":0,
			"byteLength":336,
			"byteOffset":169184,
			"target":34962
		},
		{
			"buffer":0,
			"byteLength":144,
			"byteOffset":169520,
			"target":34963
		},
		{
			"buffer":0,
			"byteLength":504,
			"byteOffset":169664,
			"target":34962
		},
		{
			"buffer":0,
			"byteLength":504,
			"byteOffset":170168,
			"target":34962
		},
		{
			"buffer":0,
			"byteLength":336,
			"byteOffset":170672,
			"target":34962
		},
		{
			"buffer":0,
			"byteLength":504,
			"byteOffset":171008,
			"target":34962
		},
		{
			"buffer":0,
			"byteLength":504,
			"byteOffset":171512,
			"target":34962
		},
		{
			"buffer":0,
			"byteLength":336,
			"byteOffset":172016,
			"target":34962
		},
		{
			"buffer":0,
			"byteLength":504,
			"byteOffset":172352,
			"target":34962
		},
		{
			"buffer":0,
			"byteLength":504,
			"byteOffset":172856,
			"target":34962
		},
		{
			"buffer":0,
			"byteLength":336,
			"byteOffset":173360,
			"target":34962
		},
		{
			"buffer":0,
			"byteLength":504,
			"byteOffset":173696,
			"target":34962
		},
		{
			"buffer":0,
			"byteLength":504,
			"byteOffset":174200,
			"target":34962
		},
		{
			"buffer":0,
			"byteLength":336,
			"byteOffset":174704,
			"target":34962
		},
		{
			"buffer":0,
			"byteLength":1152,
			"byteOffset":175040,
			"target":34962
		},
		{
			"buffer":0,
			"byteLength":1152,
			"byteOffset":176192,
			"target":34962
		},
		{
			"buffer":0,
			"byteLength":768,
			"byteOffset":177344,
			"target":34962
		},
		{
			"buffer":0,
			"byteLength":312,
			"byteOffset":178112,
			"target":34963
		},
		{
			"buffer":0,
			"byteLength":1152,
			"byteOffset":178424,
			"target":34962
		},
		{
			"buffer":0,
			"byteLength":1152,
			"byteOffset":179576,
			"target":34962
		},
		{
			"buffer":0,
			"byteLength":768,
			"byteOffset":180728,
			"target":34962
		},
		{
			"buffer":0,
			"byteLength":1152,
			"byteOffset":181496,
			"target":34962
		},
		{
			"buffer":0,
			"byteLength":1152,
			"byteOffset":182648,
			"target":34962
		},
		{
			"buffer":0,
			"byteLength":768,
			"byteOffset":183800,
			"target":34962
		},
		{
			"buffer":0,
			"byteLength":1152,
			"byteOffset":184568,
			"target":34962
		},
		{
			"buffer":0,
			"byteLength":1152,
			"byteOffset":185720,
			"target":34962
		},
		{
			"buffer":0,
			"byteLength":768,
			"byteOffset":186872,
			"target":34962
		},
		{
			"buffer":0,
			"byteLength":1152,
			"byteOffset":187640,
			"target":34962
		},
		{
			"buffer":0,
			"byteLength":1152,
			"byteOffset":188792,
			"target":34962
		},
		{
			"buffer":0,
			"byteLength":768,
			"byteOffset":189944,
			"target":34962
		},
		{
			"buffer":0,
			"byteLength":504,
			"byteOffset":190712,
			"target":34962
		},
		{
			"buffer":0,
			"byteLength":504,
			"byteOffset":191216,
			"target":34962
		},
		{
			"buffer":0,
			"byteLength":336,
			"byteOffset":191720,
			"target":34962
		},
		{
			"buffer":0,
			"byteLength":1152,
			"byteOffset":192056,
			"target":34962
		},
		{
			"buffer":0,
			"byteLength":1152,
			"byteOffset":193208,
			"target":34962
		},
		{
			"buffer":0,
			"byteLength":768,
			"byteOffset":194360,
			"target":34962
		},
		{
			"buffer":0,
			"byteLength":720,
			"byteOffset":195128,
			"target":34962
		},
		{
			"buffer":0,
			"byteLength":720,
			"byteOffset":195848,
			"target":34962
		},
		{
			"buffer":0,
			"byteLength":480,
			"byteOffset":196568,
			"target":34962
		},
		{
			"buffer":0,
			"byteLength":216,
			"byteOffset":197048,
			"target":34963
		},
		{
			"buffer":0,
			"byteLength":720,
			"byteOffset":197264,
			"target":34962
		},
		{
			"buffer":0,
			"byteLength":720,
			"byteOffset":197984,
			"target":34962
		},
		{
			"buffer":0,
			"byteLength":480,
			"byteOffset":198704,
			"target":34962
		}
	],
	"samplers":[
		{
			"magFilter":9728,
			"minFilter":9984
		}
	],
	"buffers":[
		{
			"byteLength":199184,
			"uri":"TerrainMeshes-2654cfae512a6cee99491f264c4655c7.bin"
		}
	]
}
